<?xml version="1.0" encoding="UTF-8" standalone="no"?>
<svg
   xmlns:dc="http://purl.org/dc/elements/1.1/"
   xmlns:cc="http://creativecommons.org/ns#"
   xmlns:rdf="http://www.w3.org/1999/02/22-rdf-syntax-ns#"
   xmlns:svg="http://www.w3.org/2000/svg"
   xmlns="http://www.w3.org/2000/svg"
   xmlns:xlink="http://www.w3.org/1999/xlink"
   xmlns:sodipodi="http://sodipodi.sourceforge.net/DTD/sodipodi-0.dtd"
   xmlns:inkscape="http://www.inkscape.org/namespaces/inkscape"
   version="1.0"
   width="48"
   height="48"
   id="svg2453"
   viewBox="0 0 48 48"
   inkscape:version="0.91 r13725"
   sodipodi:docname="com.github.philip-scott.wallpaperize.svg">
  <sodipodi:namedview
     pagecolor="#ffffff"
     bordercolor="#666666"
     borderopacity="1"
     objecttolerance="10"
     gridtolerance="10"
     guidetolerance="10"
     inkscape:pageopacity="0"
     inkscape:pageshadow="2"
     inkscape:window-width="1920"
     inkscape:window-height="1017"
     id="namedview37"
     showgrid="true"
     showguides="false"
     showborder="true"
     inkscape:zoom="16"
     inkscape:cx="2.2211331"
     inkscape:cy="20.055688"
     inkscape:window-x="0"
     inkscape:window-y="30"
     inkscape:window-maximized="1"
     inkscape:current-layer="svg2453"
     inkscape:showpageshadow="false">
    <inkscape:grid
       type="xygrid"
       id="grid4235" />
  </sodipodi:namedview>
  <metadata
     id="metadata35">
    <rdf:RDF>
      <cc:Work
         rdf:about="">
        <dc:format>image/svg+xml</dc:format>
        <dc:type
           rdf:resource="http://purl.org/dc/dcmitype/StillImage" />
        <dc:title />
      </cc:Work>
    </rdf:RDF>
  </metadata>
  <defs
     id="defs2455">
    <linearGradient
       id="linearGradient4673">
      <stop
         offset="0"
         style="stop-color:#ffffff;stop-opacity:1"
         id="stop4675" />
      <stop
         offset="0"
         style="stop-color:#ffffff;stop-opacity:0.23529412"
         id="stop4677" />
      <stop
         offset="0.99999994"
         style="stop-color:#ffffff;stop-opacity:0.15686275"
         id="stop4679" />
      <stop
         offset="1"
         style="stop-color:#ffffff;stop-opacity:0.39215687"
         id="stop4681" />
    </linearGradient>
    <linearGradient
       id="linearGradient4574">
      <stop
         offset="0"
         style="stop-color:#ffffff;stop-opacity:1"
         id="stop4576" />
      <stop
         offset="0"
         style="stop-color:#ffffff;stop-opacity:0.23529412"
         id="stop4578" />
      <stop
         offset="1"
         style="stop-color:#ffffff;stop-opacity:0.15686275"
         id="stop4580" />
      <stop
         offset="1"
         style="stop-color:#ffffff;stop-opacity:0.39215687"
         id="stop4582" />
    </linearGradient>
    <linearGradient
       inkscape:collect="always"
       id="linearGradient4518">
      <stop
         style="stop-color:#06243c;stop-opacity:1;"
         offset="0"
         id="stop4520" />
      <stop
         id="stop4526"
         offset="0.34545457"
         style="stop-color:#082f3c;stop-opacity:1" />
      <stop
         style="stop-color:#074151;stop-opacity:1"
         offset="0.39090911"
         id="stop4528" />
      <stop
         style="stop-color:#3a5c6b;stop-opacity:1"
         offset="1"
         id="stop4522" />
    </linearGradient>
    <linearGradient
       inkscape:collect="always"
       id="linearGradient4498">
      <stop
         style="stop-color:#f9f7f0;stop-opacity:1"
         offset="0"
         id="stop4500" />
      <stop
         style="stop-color:#e8e8dd;stop-opacity:1"
         offset="0.34710741"
         id="stop4508" />
      <stop
         id="stop4514"
         offset="0.55208331"
         style="stop-color:#829c9a;stop-opacity:1;" />
      <stop
         id="stop4510"
         offset="0.57851237"
         style="stop-color:#0e2d39;stop-opacity:1" />
      <stop
         style="stop-color:#0e3848;stop-opacity:1"
         offset="0.74710745"
         id="stop4512" />
      <stop
         style="stop-color:#76b1bd;stop-opacity:1"
         offset="1"
         id="stop4502" />
    </linearGradient>
    <linearGradient
       id="linearGradient3462">
      <stop
         id="stop3464"
         style="stop-color:#ffffff;stop-opacity:1"
         offset="0" />
      <stop
         id="stop3466"
         style="stop-color:#ffffff;stop-opacity:0.23529412"
         offset="0.03457849" />
      <stop
         id="stop3468"
         style="stop-color:#ffffff;stop-opacity:0.15686275"
         offset="0.96375686" />
      <stop
         id="stop3470"
         style="stop-color:#ffffff;stop-opacity:0.39215687"
         offset="1" />
    </linearGradient>
    <linearGradient
       id="linearGradient5060-2">
      <stop
         id="stop5062-3"
         style="stop-color:#000000;stop-opacity:1"
         offset="0" />
      <stop
         id="stop5064-1"
         style="stop-color:#000000;stop-opacity:0"
         offset="1" />
    </linearGradient>
    <linearGradient
       id="linearGradient5048-8">
      <stop
         id="stop5050-4"
         style="stop-color:#000000;stop-opacity:0"
         offset="0" />
      <stop
         id="stop5056-5"
         style="stop-color:#000000;stop-opacity:1"
         offset="0.5" />
      <stop
         id="stop5052-1"
         style="stop-color:#000000;stop-opacity:0"
         offset="1" />
    </linearGradient>
    <radialGradient
       cx="605.71429"
       cy="486.64789"
       r="117.14286"
       fx="605.71429"
       fy="486.64789"
       id="radialGradient3172"
       xlink:href="#linearGradient5060-2"
       gradientUnits="userSpaceOnUse"
       gradientTransform="matrix(0.02409695,0,0,0.01545514,30.157011,36.028712)" />
    <radialGradient
       cx="605.71429"
       cy="486.64789"
       r="117.14286"
       fx="605.71429"
       fy="486.64789"
       id="radialGradient3175"
       xlink:href="#linearGradient5060-2"
       gradientUnits="userSpaceOnUse"
       gradientTransform="matrix(-0.02409695,0,0,0.01545514,17.951943,36.028712)" />
    <linearGradient
       x1="302.85715"
       y1="366.64789"
       x2="302.85715"
       y2="609.50507"
       id="linearGradient3178"
       xlink:href="#linearGradient5048-8"
       gradientUnits="userSpaceOnUse"
       gradientTransform="matrix(0.08542824,0,0,0.01545514,-6.8217325,36.028712)" />
    <linearGradient
       xlink:href="#linearGradient3462"
       id="linearGradient3133"
       gradientUnits="userSpaceOnUse"
       gradientTransform="matrix(1.1089508,0,0,0.98460508,-2.6181332,1.0401302)"
       x1="40.290417"
       y1="5.4143372"
       x2="40.290417"
       y2="42.437775" />
    <radialGradient
       gradientTransform="matrix(0,2.7377106,-3.3255091,-8.2837356e-8,52.154379,-13.543098)"
       gradientUnits="userSpaceOnUse"
       xlink:href="#linearGradient2867-449-88-871-390-598-476-591-434-148-57-177-8"
       id="radialGradient3166-9"
       fy="8.4497671"
       fx="4.5993023"
       r="19.99999"
       cy="8.4497671"
       cx="4.5993023" />
    <linearGradient
       id="linearGradient2867-449-88-871-390-598-476-591-434-148-57-177-8">
      <stop
         offset="0"
         style="stop-color:#90dbec;stop-opacity:1"
         id="stop3750-4" />
      <stop
         offset="0.26238"
         style="stop-color:#55c1ec;stop-opacity:1"
         id="stop3752-8" />
      <stop
         offset="0.704952"
         style="stop-color:#3689e6;stop-opacity:1"
         id="stop3754-1" />
      <stop
         offset="1"
         style="stop-color:#2b63a0;stop-opacity:1"
         id="stop3756-0" />
    </linearGradient>
    <radialGradient
       r="7.228416"
       fy="73.104591"
       fx="12.587129"
       cy="73.615715"
       cx="6.702713"
       gradientTransform="matrix(2.4901506,0,0,0.25962766,13.363666,25.80976)"
       gradientUnits="userSpaceOnUse"
       id="radialGradient4643"
       xlink:href="#linearGradient5060-2" />
    <linearGradient
       id="linearGradient4487">
      <stop
         offset="0"
         style="stop-color:#feaf9d;stop-opacity:1"
         id="stop4489" />
      <stop
         offset="1"
         style="stop-color:#7f4a98;stop-opacity:1"
         id="stop4491" />
    </linearGradient>
    <linearGradient
       id="linearGradient4304">
      <stop
         id="stop4306"
         offset="0"
         style="stop-color:#ffe6ab;stop-opacity:1" />
      <stop
         style="stop-color:#ffea8a;stop-opacity:0.63921571"
         offset="0.82044184"
         id="stop4312" />
      <stop
         id="stop4308"
         offset="1"
         style="stop-color:#e6ff4d;stop-opacity:0" />
    </linearGradient>
    <linearGradient
       id="linearGradient4011-6-3">
      <stop
         id="stop4013-0-0"
         style="stop-color:#ffffff;stop-opacity:1"
         offset="0" />
      <stop
         id="stop4015-7-9"
         style="stop-color:#ffffff;stop-opacity:0.23529412"
         offset="0.507761" />
      <stop
         id="stop4017-6-8"
         style="stop-color:#ffffff;stop-opacity:0.15686275"
         offset="0.83456558" />
      <stop
         id="stop4019-8-2"
         style="stop-color:#ffffff;stop-opacity:0.39215687"
         offset="1" />
    </linearGradient>
    <linearGradient
       id="linearGradient3846">
      <stop
         id="stop3848"
         style="stop-color:#fff3cb;stop-opacity:1"
         offset="0" />
      <stop
         id="stop3850"
         style="stop-color:#fdde76;stop-opacity:1"
         offset="0.26238" />
      <stop
         id="stop3852"
         style="stop-color:#f9c440;stop-opacity:1"
         offset="0.66093999" />
      <stop
         id="stop3854"
         style="stop-color:#e48b20;stop-opacity:1"
         offset="1" />
    </linearGradient>
    <linearGradient
       inkscape:collect="always"
       xlink:href="#linearGradient4498"
       id="linearGradient4504"
       x1="116.375"
       y1="25"
       x2="116.375"
       y2="28"
       gradientUnits="userSpaceOnUse"
       gradientTransform="matrix(0.86014145,0,0,0.93792017,-71.237641,-26.513263)" />
    <linearGradient
       inkscape:collect="always"
       xlink:href="#linearGradient4518"
       id="linearGradient4524"
       x1="132"
       y1="28"
       x2="132"
       y2="24.5625"
       gradientUnits="userSpaceOnUse"
       gradientTransform="matrix(0.96043025,0,0,0.93064948,-85.357136,-26.247883)" />
    <linearGradient
       inkscape:collect="always"
       xlink:href="#linearGradient4574"
       id="linearGradient4572"
       gradientUnits="userSpaceOnUse"
       gradientTransform="matrix(1.3337576,0,0,1.4905325,-76.308931,-30.035186)"
       x1="87.968956"
       y1="18.534632"
       x2="87.968956"
       y2="19.541433" />
    <linearGradient
       xlink:href="#linearGradient4673"
       id="linearGradient3133-3"
       gradientUnits="userSpaceOnUse"
       gradientTransform="matrix(0.63515613,0,0,0.51525574,8.9713284,11.670375)"
       x1="40.290417"
       y1="6.240006"
       x2="40.290417"
       y2="41.76001" />
    <linearGradient
       x1="164.28023"
       y1="241.65149"
       x2="164.28023"
       y2="156.78416"
       id="linearGradient3077-9-7-4"
       xlink:href="#linearGradient4487"
       gradientUnits="userSpaceOnUse"
       gradientTransform="matrix(0.51905912,0,0,0.44818546,-62.830341,-64.994544)" />
    <linearGradient
       x1="27.083811"
       y1="2.7114925"
       x2="49.414146"
       y2="25.041828"
       id="linearGradient3275-0-1"
       xlink:href="#linearGradient3846"
       gradientUnits="userSpaceOnUse"
       gradientTransform="matrix(2.8521469,3.1495882,-2.8521469,3.1495882,-63.474262,-93.43828)" />
    <radialGradient
       xlink:href="#linearGradient4304"
       id="radialGradient4310-4"
       cx="10"
       cy="73"
       fx="10"
       fy="73"
       r="30.5"
       gradientUnits="userSpaceOnUse"
       gradientTransform="matrix(1.0129539,1.8202051e-8,-1.6097074e-8,1.0999641,-4.0421162,-21.513028)" />
    <linearGradient
       gradientTransform="matrix(0.28740527,0,0,0.23410388,-23.937546,-22.589252)"
       gradientUnits="userSpaceOnUse"
       xlink:href="#linearGradient4487"
       id="linearGradient3077-9-7-2"
       y2="156.78416"
       x2="164.28023"
       y1="241.65149"
       x1="164.28023" />
    <linearGradient
       x1="71.204407"
       y1="5.0080671"
       x2="71.204407"
       y2="44.340794"
       id="linearGradient4488-1"
       xlink:href="#linearGradient4011-6-3"
       gradientUnits="userSpaceOnUse"
       gradientTransform="matrix(0.61867168,0,0,0.62675584,-30.491436,24.550242)" />
    <linearGradient
       gradientTransform="matrix(1.1753671,1.1773651,-1.1753671,1.1773651,-15.26305,-16.701709)"
       gradientUnits="userSpaceOnUse"
       xlink:href="#linearGradient3846"
       id="linearGradient3275-0-9"
       y2="25.041828"
       x2="49.414146"
       y1="2.7114925"
       x1="27.083811" />
    <radialGradient
       gradientTransform="matrix(0.55059048,0,0,0.54774925,8.6168154,1.7037509)"
       gradientUnits="userSpaceOnUse"
       r="30.5"
       fy="73"
       fx="10"
       cy="73"
       cx="10"
       id="radialGradient4310-49"
       xlink:href="#linearGradient4304" />
    <filter
       inkscape:collect="always"
       style="color-interpolation-filters:sRGB"
       id="filter4335"
       x="-0.070314832"
       width="1.1406296"
       y="-0.047082659"
       height="1.0941653">
      <feGaussianBlur
         inkscape:collect="always"
         stdDeviation="0.98437546"
         id="feGaussianBlur4337" />
    </filter>
    <filter
       inkscape:collect="always"
       style="color-interpolation-filters:sRGB"
       id="filter4439"
       x="-0.071663655"
       width="1.1433274"
       y="-0.14536451"
       height="1.290729">
      <feGaussianBlur
         inkscape:collect="always"
         stdDeviation="0.98765102"
         id="feGaussianBlur4441" />
    </filter>
  </defs>
  <path
     d="m 44.679296,41.695436 c 0,0 0,3.753168 0,3.753168 1.240932,0.0075 2.999973,-0.840911 2.999973,-1.876847 0,-1.035937 -1.384789,-1.876321 -2.999973,-1.876321 z"
     id="path2883-6"
     style="display:inline;overflow:visible;visibility:visible;opacity:0.3;fill:url(#radialGradient3172);fill-opacity:1;fill-rule:nonzero;stroke:none;stroke-width:1;marker:none"
     inkscape:connector-curvature="0" />
  <rect
     width="41.249638"
     height="3.7533934"
     x="3.4296577"
     y="41.695274"
     id="rect2879-0"
     style="display:inline;overflow:visible;visibility:visible;opacity:0.3;fill:url(#linearGradient3178);fill-opacity:1;fill-rule:nonzero;stroke:none;stroke-width:1;marker:none" />
  <path
     d="m 3.4296579,41.695436 c 0,0 0,3.753168 0,3.753168 -1.2409338,0.0075 -2.99997363,-0.840911 -2.99997363,-1.876847 0,-1.035937 1.38478843,-1.876321 2.99997363,-1.876321 z"
     id="path2881-4"
     style="display:inline;overflow:visible;visibility:visible;opacity:0.3;fill:url(#radialGradient3175);fill-opacity:1;fill-rule:nonzero;stroke:none;stroke-width:1;marker:none"
     inkscape:connector-curvature="0" />
  <rect
     width="44.249611"
     height="38.284615"
     rx="1.4999869"
     ry="1.5013574"
     x="1.929671"
     y="5.2873549"
     id="rect5505-21-3-8-5-2"
     style="color:#000000;display:inline;overflow:visible;visibility:visible;opacity:1;fill:url(#radialGradient3166-9);fill-opacity:1;fill-rule:nonzero;stroke:none;stroke-width:1;stroke-linecap:round;stroke-linejoin:round;stroke-miterlimit:4;stroke-dasharray:none;stroke-dashoffset:0;stroke-opacity:1;marker:none;enable-background:accumulate" />
  <rect
     style="color:#000000;display:inline;overflow:visible;visibility:visible;fill:url(#linearGradient3077-9-7-4);fill-opacity:1;fill-rule:nonzero;stroke:none;stroke-width:1.00000072;stroke-linecap:round;stroke-linejoin:miter;stroke-miterlimit:4;stroke-dasharray:none;stroke-dashoffset:0;stroke-opacity:1;marker:none;enable-background:accumulate"
     id="rect3180-1"
     y="5.0686975"
     x="1.9960815"
     height="38.301296"
     width="44.186474"
     ry="1.5099814"
     rx="1.4999869" />
  <path
     inkscape:connector-curvature="0"
     id="path2555-7-6-5-7"
     d="m 6.0874216,24.550089 c -1.3876994,0 -2.7517783,0.11113 -4.0913401,0.308145 l 0,18.511759 31.6679305,0 C 28.568876,32.213122 18.130614,24.550089 6.0874216,24.550089 Z"
     style="color:#000000;clip-rule:nonzero;display:inline;overflow:visible;visibility:visible;opacity:0.6;isolation:auto;mix-blend-mode:normal;color-interpolation:sRGB;color-interpolation-filters:linearRGB;solid-color:#000000;solid-opacity:1;fill:url(#radialGradient4310-4);fill-opacity:1;fill-rule:evenodd;stroke:none;stroke-width:1.00000012px;stroke-linecap:butt;stroke-linejoin:miter;stroke-miterlimit:4;stroke-dasharray:none;stroke-dashoffset:0;stroke-opacity:1;marker:none;color-rendering:auto;image-rendering:auto;shape-rendering:auto;text-rendering:auto;enable-background:accumulate" />
  <path
     inkscape:connector-curvature="0"
     id="path2555-7-6-5"
     d="m 8.043716,25.924605 c -1.858614,0 -3.679056,0.17725 -5.455168,0.502495 l 0,15.80384 33.076216,0 C 29.68544,32.400302 19.540182,25.924605 8.043716,25.924605 Z"
     style="color:#000000;clip-rule:nonzero;display:inline;overflow:visible;visibility:visible;opacity:1;isolation:auto;mix-blend-mode:normal;color-interpolation:sRGB;color-interpolation-filters:linearRGB;solid-color:#000000;solid-opacity:1;fill:url(#linearGradient3275-0-1);fill-opacity:1;fill-rule:evenodd;stroke:none;stroke-width:1.00000012px;stroke-linecap:butt;stroke-linejoin:miter;stroke-miterlimit:4;stroke-dasharray:none;stroke-dashoffset:0;stroke-opacity:1;marker:none;filter:url(#filter4439);color-rendering:auto;image-rendering:auto;shape-rendering:auto;text-rendering:auto;enable-background:accumulate"
     transform="matrix(0.74999341,0,0,0.75067869,1.7421876,10.418125)" />
  <path
     style="opacity:0.5;fill:#000000;fill-opacity:1;filter:url(#filter4335)"
     d="m 33.744141,-8.5 c -0.0096,0.1075841 0.0018,0.2132386 0.04687,0.3203125 0.152598,0.3628611 0.611404,0.4135659 1.197265,0.1289063 0.522657,-0.253948 1.025262,-0.2849951 1.117188,-0.066406 0.09192,0.2185876 -0.08875,0.5214509 -0.402344,0.6738281 -0.747743,0.3633192 -0.662572,0.5071942 1.126953,1.8671871 1.385391,1.05286 1.650492,1.085241 3.119141,0.375 1.269555,-0.613943 1.613502,-0.629911 1.638672,-0.07422 0.01846,0.406644 0.251906,0.607059 0.55664,0.476563 0.289521,-0.123994 0.210525,0.119753 -0.173828,0.542969 -0.452522,0.498281 -0.528619,0.948112 -0.216797,1.273437 0.407711,0.425362 0.03503,0.719664 -2.447265,1.925781 -3.183167,1.546651 -6.337788,4.026419 -8.238282,6.480469 -1.182607,1.527062 -3.401171,6.672202 -3.142578,7.28711 0.0724,0.172155 0.737714,0.01821 1.47461,-0.339844 1.101886,-0.535391 1.335684,-0.880972 1.318359,-1.955078 l -0.02148,-1.304688 0.55664,0.876953 0.558594,0.882813 0.458984,-1.615235 c 0.427888,-1.505162 0.471341,-1.544187 0.65625,-0.601562 0.122781,0.625905 0.435702,0.99281 0.822266,0.964844 0.466229,-0.03377 0.604278,0.191682 0.552734,0.896484 -0.06272,0.857625 0.07839,0.869765 1.546875,0.15625 1.300482,-0.631886 1.692574,-1.073793 2.011719,-2.289063 l 0.394531,-1.509765 0.529297,1.181641 c 0.501859,1.123125 0.537299,1.129264 0.759766,0.136718 0.203849,-0.909148 0.271107,-0.95717 0.517578,-0.371094 0.205212,0.487962 0.607389,0.511266 1.470703,0.0918 1.110362,-0.539511 1.056085,-0.356356 -0.804687,2.71875 -1.096013,1.811274 -2.644399,5.200821 -3.44336,7.535157 -1.390502,4.062597 -2.86955,10.913961 -2.294922,10.634765 0.793521,-0.385559 4.12853,-3.621395 4.013672,-3.894531 -0.07382,-0.175552 -0.1554,-0.915189 -0.183594,-1.642578 -0.05073,-1.309118 -0.04334,-1.3169 0.654297,-0.589844 0.985143,1.026687 1.78247,0.4768 1.748047,-1.207031 -0.03065,-1.49904 0.469006,-2.153177 0.886719,-1.160156 0.202941,0.482572 0.381809,0.424778 1.005859,-0.326172 0.567239,-0.682598 0.633969,-1.218096 0.25586,-2.117188 -0.46588,-1.107799 -0.444287,-1.169591 0.310547,-0.724609 0.854579,0.503785 1.617826,-0.125581 1.240234,-1.023438 -0.143006,-0.340052 0.14387,-0.611419 0.832031,-0.792968 0.576071,-0.151992 1.035572,-0.136339 1.021485,0.03516 -0.233419,2.838622 -0.273897,9.678272 -0.07031,12.222656 0.245277,3.06572 1.637461,8.613162 2.103516,8.386719 0.112829,-0.05481 0.712097,-1.905423 1.332031,-4.115235 0.7175,-2.557577 0.960227,-4.239617 0.664063,-4.628906 -0.342907,-0.450721 -0.239581,-0.72716 0.402343,-1.039062 1.011567,-0.491506 1.514433,-2.70594 0.785157,-3.466797 -0.355461,-0.370862 -0.29527,-0.526757 0.224609,-0.564453 0.900138,-0.0652 0.789056,-0.330187 -0.658203,-1.542969 -1.142199,-0.95715 -1.14541,-0.966887 -0.119141,-0.638672 0.571795,0.182862 1.15654,0.277178 1.296875,0.208985 0.402885,-0.195758 -0.340353,-1.660885 -0.876953,-1.728516 -0.265879,-0.03352 -0.566308,-0.249976 -0.664063,-0.482422 -0.112757,-0.268124 0.106176,-0.343973 0.595704,-0.207031 1.365192,0.381928 1.88611,-0.700541 0.970703,-2.019531 C 52.317562,15.102206 51.7168,14.451384 51.427734,14.298828 51.060318,14.104921 51.214803,13.940668 51.9375,13.75 c 0.629477,-0.166078 0.953619,-0.455739 0.833984,-0.740234 -0.108067,-0.256986 0.01664,-0.438607 0.273438,-0.40625 0.256819,0.03237 0.590714,-0.764904 0.74414,-1.767578 0.153419,-1.00267 0.381948,-1.875896 0.50586,-1.939454 3.434569,3.844921 5.939976,21.831412 6.58789,32.78125 0.381917,-0.363811 0.621094,-0.875716 0.621094,-1.447265 l 0,-24.330078 C 59.735761,11.815715 57.86557,8.299101 56.177734,6.425781 54.065605,4.08154 53.96971,3.738576 55.576172,4.267578 c 0.899596,0.296232 0.959406,0.241497 0.908203,-0.802734 -0.0525,-1.070762 -0.01925,-1.059853 0.796875,0.15039 0.666212,0.987922 1.425852,1.368953 3.509766,1.761719 0.269645,0.05083 0.461457,0.07561 0.71289,0.119141 l 0,-9.66211 c -0.04414,2.04e-4 -0.08666,-0.0062 -0.130859,-0.0059 l -1.855469,0.01758 1.390625,-0.6875 c 0.215492,-0.106345 0.412616,-0.228998 0.595703,-0.357422 l 0,-1.300781 c 0,-1.108 -0.892,-2 -2,-2 L 56.248047,-8.5 52.25,-6.5371094 52.017578,-7.90625 C 51.988088,-8.080079 51.92528,-8.2989256 51.878906,-8.5 l -6.195312,0 c -0.0024,0.00265 0.005,0.024085 0.002,0.025391 -0.01248,0.00553 -0.072,-0.021795 -0.09766,-0.025391 l -11.84375,0 z M 44.201172,3.8125 c 0.415342,0.05938 0.479641,1.183786 0.0098,1.826172 -0.309228,0.422763 -0.666882,0.820595 -0.794922,0.882812 -0.332685,0.161652 0.248781,-2.484049 0.585937,-2.666015 0.07321,-0.0395 0.139878,-0.05145 0.199219,-0.04297 z"
     id="path4427"
     inkscape:connector-curvature="0"
     transform="matrix(0.74999341,0,0,0.75067869,0.05468756,11.668125)" />
  <rect
     width="44.249611"
     height="39.097115"
     rx="1.4999869"
     ry="1.5332202"
     x="1.8711853"
     y="4.7402606"
     id="rect5505-21-3-8-5-2-6"
     style="color:#000000;display:inline;overflow:visible;visibility:visible;opacity:0.5;fill:#afafaf;fill-opacity:1;fill-rule:nonzero;stroke:none;stroke-width:1;stroke-linecap:round;stroke-linejoin:round;stroke-miterlimit:4;stroke-dasharray:none;stroke-dashoffset:0;stroke-opacity:1;marker:none;enable-background:accumulate" />
  <rect
     style="color:#000000;clip-rule:nonzero;display:inline;overflow:visible;visibility:visible;opacity:0.1;isolation:auto;mix-blend-mode:normal;color-interpolation:sRGB;color-interpolation-filters:linearRGB;solid-color:#000000;solid-opacity:1;fill:#4a2e4c;fill-opacity:1;fill-rule:nonzero;stroke:none;stroke-width:1.00000072;stroke-linecap:round;stroke-linejoin:miter;stroke-miterlimit:4;stroke-dasharray:none;stroke-dashoffset:0;stroke-opacity:1;marker:none;color-rendering:auto;image-rendering:auto;shape-rendering:auto;text-rendering:auto;enable-background:accumulate"
     id="rect3180-1-0-5-5"
     y="14.579858"
     x="11.019036"
     height="21.201057"
     width="26.274006"
     ry="0.88337737"
     rx="0.87580013" />
  <rect
     style="color:#000000;clip-rule:nonzero;display:inline;overflow:visible;visibility:visible;opacity:0.2;isolation:auto;mix-blend-mode:normal;color-interpolation:sRGB;color-interpolation-filters:linearRGB;solid-color:#000000;solid-opacity:1;fill:#4a2e4c;fill-opacity:1;fill-rule:nonzero;stroke:none;stroke-width:1.00000072;stroke-linecap:round;stroke-linejoin:miter;stroke-miterlimit:4;stroke-dasharray:none;stroke-dashoffset:0;stroke-opacity:1;marker:none;color-rendering:auto;image-rendering:auto;shape-rendering:auto;text-rendering:auto;enable-background:accumulate"
     id="rect3180-1-0-5"
     y="15.463236"
     x="11.914502"
     height="19.434303"
     width="24.508863"
     ry="0.88337737"
     rx="0.8753165" />
  <rect
     style="color:#000000;display:inline;overflow:visible;visibility:visible;fill:url(#linearGradient3077-9-7-2);fill-opacity:1;fill-rule:nonzero;stroke:none;stroke-width:1.00000072;stroke-linecap:round;stroke-linejoin:miter;stroke-miterlimit:4;stroke-dasharray:none;stroke-dashoffset:0;stroke-opacity:1;marker:none;enable-background:accumulate"
     id="rect3180-1-0"
     y="14.007369"
     x="11.957126"
     height="20.006186"
     width="24.46624"
     ry="0.90937209"
     rx="0.87379426" />
  <path
     inkscape:connector-curvature="0"
     id="path2555-7-6-5-7-9"
     d="m 14.122721,24.641808 c -0.754284,0 -1.495728,0.05533 -2.223846,0.153446 l 0,9.218303 17.213086,0 c -2.76946,-5.555788 -8.44317,-9.371749 -14.98924,-9.371749 z"
     style="color:#000000;clip-rule:nonzero;display:inline;overflow:visible;visibility:visible;opacity:0.6;isolation:auto;mix-blend-mode:normal;color-interpolation:sRGB;color-interpolation-filters:linearRGB;solid-color:#000000;solid-opacity:1;fill:url(#radialGradient4310-49);fill-opacity:1;fill-rule:evenodd;stroke:none;stroke-width:1.00000012px;stroke-linecap:butt;stroke-linejoin:miter;stroke-miterlimit:4;stroke-dasharray:none;stroke-dashoffset:0;stroke-opacity:1;marker:none;color-rendering:auto;image-rendering:auto;shape-rendering:auto;text-rendering:auto;enable-background:accumulate" />
  <path
     inkscape:connector-curvature="0"
     id="path2555-7-6-5-1"
     d="m 14.209445,27.917996 c -0.765932,0 -1.516136,0.06626 -2.24807,0.18784 l 0,5.907721 13.630678,0 C 23.127979,30.338713 18.947127,27.917996 14.209445,27.917996 Z"
     style="color:#000000;clip-rule:nonzero;display:inline;overflow:visible;visibility:visible;opacity:1;isolation:auto;mix-blend-mode:normal;color-interpolation:sRGB;color-interpolation-filters:linearRGB;solid-color:#000000;solid-opacity:1;fill:url(#linearGradient3275-0-9);fill-opacity:1;fill-rule:evenodd;stroke:none;stroke-width:1.00000012px;stroke-linecap:butt;stroke-linejoin:miter;stroke-miterlimit:4;stroke-dasharray:none;stroke-dashoffset:0;stroke-opacity:1;marker:none;color-rendering:auto;image-rendering:auto;shape-rendering:auto;text-rendering:auto;enable-background:accumulate" />
  <path
     inkscape:connector-curvature="0"
     id="path4427-7"
     d="m 24.983286,14.579254 c -0.0039,0.04022 7.19e-4,0.07992 0.01928,0.119936 0.06289,0.135642 0.252317,0.154033 0.49375,0.04763 0.215386,-0.09493 0.422114,-0.106407 0.459996,-0.0247 0.03788,0.08172 -0.03664,0.195259 -0.165869,0.25222 -0.308144,0.135813 -0.272643,0.18918 0.464819,0.697566 0.570918,0.393577 0.680255,0.405719 1.285484,0.14022 0.523183,-0.229503 0.664676,-0.235068 0.675048,-0.02734 0.0076,0.152011 0.103936,0.226921 0.229515,0.17814 0.119313,-0.04635 0.08703,0.04463 -0.07137,0.202833 -0.186486,0.186266 -0.218187,0.354604 -0.08968,0.476215 0.168017,0.159007 0.01424,0.26875 -1.008714,0.719615 -1.311782,0.578163 -2.611337,1.505165 -3.394526,2.422527 -0.487353,0.570842 -1.401695,2.49427 -1.295129,2.724131 0.02982,0.06435 0.303869,0.0069 0.607543,-0.126991 0.454087,-0.200137 0.550072,-0.329561 0.542933,-0.731079 l -0.0088,-0.487682 0.229515,0.328062 0.230482,0.329824 0.189012,-0.60409 c 0.176333,-0.562651 0.193819,-0.577247 0.270021,-0.224879 0.05059,0.233973 0.18015,0.371143 0.339451,0.360689 0.192133,-0.01263 0.24883,0.07166 0.227588,0.335114 -0.02585,0.320595 0.03227,0.32581 0.637439,0.05907 0.535927,-0.236211 0.697825,-0.402021 0.829345,-0.856307 l 0.162011,-0.564404 0.217944,0.441822 c 0.206814,0.419841 0.221737,0.422177 0.313414,0.05114 0.084,-0.339854 0.111553,-0.357541 0.213123,-0.138457 0.08457,0.182408 0.250809,0.191199 0.60658,0.03439 0.457578,-0.201675 0.435083,-0.133594 -0.331739,1.01593 -0.451666,0.677081 -1.090279,1.944117 -1.41953,2.816726 -0.573024,1.518663 -1.181871,4.079887 -0.945066,3.975521 0.327008,-0.14413 1.701199,-1.353885 1.653867,-1.455986 -0.03042,-0.06562 -0.06457,-0.341881 -0.0762,-0.613789 -0.02091,-0.489369 -0.01748,-0.492257 0.270019,-0.220471 0.405977,0.383791 0.734558,0.177919 0.720373,-0.451524 -0.01263,-0.560363 0.193351,-0.80421 0.365489,-0.433002 0.08364,0.180391 0.157503,0.158134 0.414673,-0.122583 0.23376,-0.255164 0.260932,-0.454953 0.105114,-0.791046 -0.191987,-0.414111 -0.182805,-0.437078 0.12826,-0.270738 0.352171,0.188322 0.666714,-0.04711 0.511107,-0.382736 -0.05893,-0.127117 0.05876,-0.228446 0.342346,-0.29631 0.237398,-0.05681 0.427229,-0.05088 0.421422,0.01322 -0.09619,1.061121 -0.112824,3.617896 -0.02891,4.569025 0.101078,1.146015 0.674892,3.219736 0.866953,3.135089 0.0465,-0.02048 0.293244,-0.712821 0.548718,-1.538884 0.295681,-0.956062 0.395923,-1.584729 0.273875,-1.73025 -0.141312,-0.168488 -0.09867,-0.271434 0.16587,-0.388028 0.416866,-0.183731 0.623593,-1.011945 0.323059,-1.296364 -0.146485,-0.138635 -0.121664,-0.19668 0.09257,-0.210772 0.370947,-0.02438 0.325431,-0.123392 -0.270982,-0.576749 -0.4707,-0.357797 -0.472108,-0.361683 -0.04918,-0.238991 0.235636,0.06835 0.476421,0.103981 0.534252,0.0785 0.166029,-0.07318 -0.1405,-0.621136 -0.361632,-0.646418 -0.109569,-0.01253 -0.232628,-0.09301 -0.272914,-0.179903 -0.04647,-0.100232 0.04321,-0.128799 0.244947,-0.07762 0.562595,0.142769 0.777446,-0.261831 0.400207,-0.754891 -0.183036,-0.239235 -0.430558,-0.482682 -0.549682,-0.539709 -0.151412,-0.07248 -0.08758,-0.134206 0.21023,-0.20548 0.259407,-0.06208 0.392613,-0.16968 0.343311,-0.276027 -0.04454,-0.09606 0.007,-0.164663 0.112829,-0.152567 0.105834,0.0121 0.243437,-0.285714 0.306664,-0.66053 0.06322,-0.374814 0.157236,-0.701147 0.208301,-0.724905 1.437974,1.460227 2.484835,8.390208 2.731046,12.460981 l 0.240121,0 0,-9.842675 c -0.72865,-1.526915 -1.499312,-2.841358 -2.194867,-3.541635 -0.870407,-0.876313 -0.909861,-1.00467 -0.24784,-0.80692 0.370723,0.110736 0.395271,0.09051 0.374169,-0.29984 -0.02163,-0.400267 -0.0085,-0.396848 0.327879,0.05556 0.27455,0.369301 0.587756,0.511944 1.446533,0.658766 0.111126,0.019 0.190512,0.02871 0.294126,0.04498 l 0,-3.612184 c -0.01817,7.7e-5 -0.03574,-0.0019 -0.05402,-0.0018 l -0.76473,0.0062 0.572824,-0.256627 c 0.0888,-0.03976 0.170459,-0.08604 0.245911,-0.134049 l 0,-1.135861 -0.494708,-0.09789 -1.671229,0 -1.648082,0.733726 -0.09547,-0.511492 c -0.01215,-0.06499 -0.03779,-0.147069 -0.0569,-0.222234 l -2.55361,0 c -9.75e-4,9.76e-4 0.0022,0.0092 9.74e-4,0.0097 -0.0051,0.0021 -0.02992,-0.0084 -0.0405,-0.0097 l -4.880597,0 z m 4.309699,4.602537 c 0.171162,0.02219 0.19751,0.442442 0.0038,0.682576 -0.127434,0.158034 -0.275115,0.306565 -0.327881,0.329824 -0.137099,0.06042 0.103112,-0.928504 0.242055,-0.996524 0.03017,-0.01477 0.05752,-0.01905 0.08197,-0.01588 z"
     style="opacity:0.5;fill:#000000;fill-opacity:1" />
  <path
     inkscape:connector-curvature="0"
     id="path8655-6-9-8"
     d="m 23.994128,33.761183 c -2.072478,-2.971078 -5.744787,-4.988059 -10.10606,-4.913127 -0.661526,0.01137 -1.309007,0.05971 -1.939902,0.168888"
     style="color:#000000;display:inline;overflow:visible;visibility:visible;opacity:0.8;fill:none;stroke:url(#linearGradient4488-1);stroke-width:0.87660438;stroke-linecap:butt;stroke-linejoin:round;stroke-miterlimit:4;stroke-dasharray:none;stroke-dashoffset:0;stroke-opacity:1;marker:none;enable-background:accumulate" />
  <path
     inkscape:connector-curvature="0"
     id="path2555-7-4-7-3"
     d="m 25.140293,33.767994 c -2.341889,-3.533375 -6.536985,-5.860902 -11.039747,-5.860902 -0.727953,0 -1.440956,0.06371 -2.136597,0.180609"
     style="color:#000000;clip-rule:nonzero;display:inline;overflow:visible;visibility:visible;opacity:0.3;isolation:auto;mix-blend-mode:normal;color-interpolation:sRGB;color-interpolation-filters:linearRGB;solid-color:#000000;solid-opacity:1;fill:none;fill-opacity:1;fill-rule:evenodd;stroke:#d25000;stroke-width:0.8775804;stroke-linecap:butt;stroke-linejoin:miter;stroke-miterlimit:4;stroke-dasharray:none;stroke-dashoffset:0;stroke-opacity:1;marker:none;color-rendering:auto;image-rendering:auto;shape-rendering:auto;text-rendering:auto;enable-background:accumulate" />
  <rect
     width="23.500774"
     height="19.064465"
     rx="0.43519953"
     ry="0.45391577"
     x="12.464686"
     y="14.504282"
     id="rect6741-5-0-2-3-4"
     style="opacity:0.5;fill:none;stroke:url(#linearGradient3133-3);stroke-width:0.99777019;stroke-linecap:round;stroke-linejoin:round;stroke-miterlimit:4;stroke-dasharray:none;stroke-dashoffset:0;stroke-opacity:1" />
  <rect
     width="41.031181"
     height="36.430389"
     rx="0.71984529"
     ry="0.7434774"
     x="3.4810979"
     y="6.4554563"
     id="rect6741-5-0-2-3"
     style="opacity:0.5;fill:none;stroke:url(#linearGradient3133);stroke-width:0.987005;stroke-linecap:round;stroke-linejoin:round;stroke-miterlimit:4;stroke-dasharray:none;stroke-dashoffset:0;stroke-opacity:1" />
  <rect
     width="43.146858"
     height="38.019329"
     rx="1.4626055"
     ry="1.4909542"
     x="2.4216881"
     y="5.5606232"
     id="rect5505-21-3-8-9-1-1"
     style="color:#000000;clip-rule:nonzero;display:inline;overflow:visible;visibility:visible;opacity:0.5;isolation:auto;mix-blend-mode:normal;color-interpolation:sRGB;color-interpolation-filters:linearRGB;solid-color:#000000;solid-opacity:1;fill:#000000;fill-opacity:0;fill-rule:nonzero;stroke:#73396d;stroke-width:0.98403364;stroke-linecap:round;stroke-linejoin:round;stroke-miterlimit:4;stroke-dasharray:none;stroke-dashoffset:0;stroke-opacity:1;marker:none;color-rendering:auto;image-rendering:auto;shape-rendering:auto;text-rendering:auto;enable-background:accumulate" />
  <path
     d="m 48.054266,44.922435 c 0,1.036472 -8.058815,1.876697 -17.99985,1.876697 -9.941034,0 -17.999834,-0.840225 -17.999834,-1.876697 0,-1.03647 8.0588,-1.876697 17.999834,-1.876697 9.941035,0 17.99985,0.840227 17.99985,1.876697 z"
     id="path10689"
     style="display:inline;overflow:visible;visibility:visible;opacity:0.2;fill:url(#radialGradient4643);fill-opacity:1;fill-rule:nonzero;stroke:none;stroke-width:0.80000001;marker:none"
     inkscape:connector-curvature="0" />
  <rect
     style="color:#000000;clip-rule:nonzero;display:inline;overflow:visible;visibility:visible;opacity:1;isolation:auto;mix-blend-mode:normal;color-interpolation:sRGB;color-interpolation-filters:linearRGB;solid-color:#000000;solid-opacity:1;fill:url(#linearGradient4504);fill-opacity:1;fill-rule:nonzero;stroke:none;stroke-width:1;stroke-linecap:butt;stroke-linejoin:miter;stroke-miterlimit:4;stroke-dasharray:none;stroke-dashoffset:0;stroke-opacity:1;marker:none;color-rendering:auto;image-rendering:auto;shape-rendering:auto;text-rendering:auto;enable-background:accumulate"
     id="rect3681"
     width="35.265797"
     height="3.7516806"
     x="28.108688"
     y="-3.53422"
     ry="0.37516809"
     rx="0.37516809"
     transform="matrix(0.7067838,0.70742961,-0.7067838,0.70742961,0,0)" />
  <rect
     style="color:#000000;clip-rule:nonzero;display:inline;overflow:visible;visibility:visible;opacity:1;isolation:auto;mix-blend-mode:normal;color-interpolation:sRGB;color-interpolation-filters:linearRGB;solid-color:#000000;solid-opacity:1;fill:url(#linearGradient4524);fill-opacity:1;fill-rule:nonzero;stroke:none;stroke-width:1;stroke-linecap:butt;stroke-linejoin:miter;stroke-miterlimit:4;stroke-dasharray:none;stroke-dashoffset:0;stroke-opacity:1;marker:none;color-rendering:auto;image-rendering:auto;shape-rendering:auto;text-rendering:auto;enable-background:accumulate"
     id="rect4516"
     width="24.010757"
     height="3.7516806"
     x="33.736217"
     y="-3.53422"
     rx="0"
     ry="0"
     transform="matrix(0.7067838,0.70742961,-0.7067838,0.70742961,0,0)" />
  <rect
     style="color:#000000;clip-rule:nonzero;display:inline;overflow:visible;visibility:visible;opacity:0.5;isolation:auto;mix-blend-mode:normal;color-interpolation:sRGB;color-interpolation-filters:linearRGB;solid-color:#000000;solid-opacity:1;fill:none;fill-opacity:1;fill-rule:nonzero;stroke:#001537;stroke-width:0.75033617;stroke-linecap:butt;stroke-linejoin:miter;stroke-miterlimit:4;stroke-dasharray:none;stroke-dashoffset:0;stroke-opacity:1;marker:none;color-rendering:auto;image-rendering:auto;shape-rendering:auto;text-rendering:auto;enable-background:accumulate"
     id="rect3681-7"
     width="35.265797"
     height="3.7516806"
     x="28.108694"
     y="-3.53422"
     ry="0.37516809"
     rx="0.37516809"
     transform="matrix(0.7067838,0.70742961,-0.7067838,0.70742961,0,0)" />
  <rect
     style="color:#000000;clip-rule:nonzero;display:inline;overflow:visible;visibility:visible;opacity:0.5;isolation:auto;mix-blend-mode:normal;color-interpolation:sRGB;color-interpolation-filters:linearRGB;solid-color:#000000;solid-opacity:1;fill:none;fill-opacity:1;fill-rule:nonzero;stroke:url(#linearGradient4572);stroke-width:0.75033617;stroke-linecap:round;stroke-linejoin:round;stroke-miterlimit:4;stroke-dasharray:none;stroke-dashoffset:0;stroke-opacity:1;marker:none;color-rendering:auto;image-rendering:auto;shape-rendering:auto;text-rendering:auto;enable-background:accumulate"
     id="rect3681-7-5"
     width="33.765125"
     height="2.2510085"
     x="28.859032"
     y="-2.7838838"
     transform="matrix(0.7067838,0.70742961,-0.7067838,0.70742961,0,0)" />
</svg>
