<?xml version="1.0" encoding="UTF-8" standalone="no"?>
<svg
   xmlns:dc="http://purl.org/dc/elements/1.1/"
   xmlns:cc="http://creativecommons.org/ns#"
   xmlns:rdf="http://www.w3.org/1999/02/22-rdf-syntax-ns#"
   xmlns:svg="http://www.w3.org/2000/svg"
   xmlns="http://www.w3.org/2000/svg"
   xmlns:xlink="http://www.w3.org/1999/xlink"
   xmlns:sodipodi="http://sodipodi.sourceforge.net/DTD/sodipodi-0.dtd"
   xmlns:inkscape="http://www.inkscape.org/namespaces/inkscape"
   version="1.0"
   width="24"
   height="24"
   id="svg2453"
   viewBox="0 0 24 24"
   inkscape:version="0.91 r13725"
   sodipodi:docname="com.github.philip-scott.wallpaperize.svg">
  <sodipodi:namedview
     pagecolor="#ffffff"
     bordercolor="#666666"
     borderopacity="1"
     objecttolerance="10"
     gridtolerance="10"
     guidetolerance="10"
     inkscape:pageopacity="0"
     inkscape:pageshadow="2"
     inkscape:window-width="1920"
     inkscape:window-height="1017"
     id="namedview37"
     showgrid="true"
     showguides="false"
     showborder="true"
     inkscape:zoom="45.254834"
     inkscape:cx="12.286871"
     inkscape:cy="13.420738"
     inkscape:window-x="0"
     inkscape:window-y="30"
     inkscape:window-maximized="1"
     inkscape:current-layer="svg2453">
    <inkscape:grid
       type="xygrid"
       id="grid4237"
       enabled="true"
       snapvisiblegridlinesonly="true"
       dotted="false" />
  </sodipodi:namedview>
  <metadata
     id="metadata35">
    <rdf:RDF>
      <cc:Work
         rdf:about="">
        <dc:format>image/svg+xml</dc:format>
        <dc:type
           rdf:resource="http://purl.org/dc/dcmitype/StillImage" />
        <dc:title></dc:title>
      </cc:Work>
    </rdf:RDF>
  </metadata>
  <defs
     id="defs2455">
    <linearGradient
       id="linearGradient4673">
      <stop
         offset="0"
         style="stop-color:#ffffff;stop-opacity:1"
         id="stop4675" />
      <stop
         offset="0"
         style="stop-color:#ffffff;stop-opacity:0.23529412"
         id="stop4677" />
      <stop
         offset="0.99999994"
         style="stop-color:#ffffff;stop-opacity:0.15686275"
         id="stop4679" />
      <stop
         offset="1"
         style="stop-color:#ffffff;stop-opacity:0.39215687"
         id="stop4681" />
    </linearGradient>
    <linearGradient
       id="linearGradient4574">
      <stop
         offset="0"
         style="stop-color:#ffffff;stop-opacity:1"
         id="stop4576" />
      <stop
         offset="0"
         style="stop-color:#ffffff;stop-opacity:0.23529412"
         id="stop4578" />
      <stop
         offset="1"
         style="stop-color:#ffffff;stop-opacity:0.15686275"
         id="stop4580" />
      <stop
         offset="1"
         style="stop-color:#ffffff;stop-opacity:0.39215687"
         id="stop4582" />
    </linearGradient>
    <linearGradient
       inkscape:collect="always"
       id="linearGradient4518">
      <stop
         style="stop-color:#06243c;stop-opacity:1;"
         offset="0"
         id="stop4520" />
      <stop
         id="stop4526"
         offset="0.34545457"
         style="stop-color:#082f3c;stop-opacity:1" />
      <stop
         style="stop-color:#074151;stop-opacity:1"
         offset="0.39090911"
         id="stop4528" />
      <stop
         style="stop-color:#3a5c6b;stop-opacity:1"
         offset="1"
         id="stop4522" />
    </linearGradient>
    <linearGradient
       inkscape:collect="always"
       id="linearGradient4498">
      <stop
         style="stop-color:#f9f7f0;stop-opacity:1"
         offset="0"
         id="stop4500" />
      <stop
         style="stop-color:#e8e8dd;stop-opacity:1"
         offset="0.34710741"
         id="stop4508" />
      <stop
         id="stop4514"
         offset="0.55208331"
         style="stop-color:#829c9a;stop-opacity:1;" />
      <stop
         id="stop4510"
         offset="0.57851237"
         style="stop-color:#0e2d39;stop-opacity:1" />
      <stop
         style="stop-color:#0e3848;stop-opacity:1"
         offset="0.74710745"
         id="stop4512" />
      <stop
         style="stop-color:#76b1bd;stop-opacity:1"
         offset="1"
         id="stop4502" />
    </linearGradient>
    <linearGradient
       id="linearGradient5060-2">
      <stop
         id="stop5062-3"
         style="stop-color:#000000;stop-opacity:1"
         offset="0" />
      <stop
         id="stop5064-1"
         style="stop-color:#000000;stop-opacity:0"
         offset="1" />
    </linearGradient>
    <linearGradient
       id="linearGradient5048-8">
      <stop
         id="stop5050-4"
         style="stop-color:#000000;stop-opacity:0"
         offset="0" />
      <stop
         id="stop5056-5"
         style="stop-color:#000000;stop-opacity:1"
         offset="0.5" />
      <stop
         id="stop5052-1"
         style="stop-color:#000000;stop-opacity:0"
         offset="1" />
    </linearGradient>
    <radialGradient
       cx="605.71429"
       cy="486.64789"
       r="117.14286"
       fx="605.71429"
       fy="486.64789"
       id="radialGradient3172"
       xlink:href="#linearGradient5060-2"
       gradientUnits="userSpaceOnUse"
       gradientTransform="matrix(0.01563202,0,0,0.01001681,19.639811,23.818455)" />
    <radialGradient
       cx="605.71429"
       cy="486.64789"
       r="117.14286"
       fx="605.71429"
       fy="486.64789"
       id="radialGradient3175"
       xlink:href="#linearGradient5060-2"
       gradientUnits="userSpaceOnUse"
       gradientTransform="matrix(-0.01377979,0,0,0.01001681,10.375362,19.818455)" />
    <linearGradient
       x1="302.85715"
       y1="366.64789"
       x2="302.85715"
       y2="609.50507"
       id="linearGradient3178"
       xlink:href="#linearGradient5048-8"
       gradientUnits="userSpaceOnUse"
       gradientTransform="matrix(0.04885195,0,0,0.01001681,-3.7914101,19.818455)" />
    <linearGradient
       id="linearGradient4487">
      <stop
         offset="0"
         style="stop-color:#feaf9d;stop-opacity:1"
         id="stop4489" />
      <stop
         offset="1"
         style="stop-color:#7f4a98;stop-opacity:1"
         id="stop4491" />
    </linearGradient>
    <linearGradient
       id="linearGradient4304">
      <stop
         id="stop4306"
         offset="0"
         style="stop-color:#ffe6ab;stop-opacity:1" />
      <stop
         style="stop-color:#ffea8a;stop-opacity:0.63921571"
         offset="0.82044184"
         id="stop4312" />
      <stop
         id="stop4308"
         offset="1"
         style="stop-color:#e6ff4d;stop-opacity:0" />
    </linearGradient>
    <linearGradient
       id="linearGradient4011-6-3">
      <stop
         id="stop4013-0-0"
         style="stop-color:#ffffff;stop-opacity:1"
         offset="0" />
      <stop
         id="stop4015-7-9"
         style="stop-color:#ffffff;stop-opacity:0.23529412"
         offset="0.507761" />
      <stop
         id="stop4017-6-8"
         style="stop-color:#ffffff;stop-opacity:0.15686275"
         offset="0.83456558" />
      <stop
         id="stop4019-8-2"
         style="stop-color:#ffffff;stop-opacity:0.39215687"
         offset="1" />
    </linearGradient>
    <linearGradient
       id="linearGradient3846">
      <stop
         id="stop3848"
         style="stop-color:#fff3cb;stop-opacity:1"
         offset="0" />
      <stop
         id="stop3850"
         style="stop-color:#fdde76;stop-opacity:1"
         offset="0.26238" />
      <stop
         id="stop3852"
         style="stop-color:#f9c440;stop-opacity:1"
         offset="0.66093999" />
      <stop
         id="stop3854"
         style="stop-color:#e48b20;stop-opacity:1"
         offset="1" />
    </linearGradient>
    <linearGradient
       inkscape:collect="always"
       xlink:href="#linearGradient4498"
       id="linearGradient4504"
       x1="116.375"
       y1="25"
       x2="116.375"
       y2="28"
       gradientUnits="userSpaceOnUse"
       gradientTransform="matrix(0.55773039,0,0,0.60816344,-45.807009,-16.915224)" />
    <linearGradient
       inkscape:collect="always"
       xlink:href="#linearGradient4518"
       id="linearGradient4524"
       x1="132"
       y1="28"
       x2="132"
       y2="24.5625"
       gradientUnits="userSpaceOnUse"
       gradientTransform="matrix(0.62275936,0,0,0.60344901,-54.962331,-16.743147)" />
    <linearGradient
       inkscape:collect="always"
       xlink:href="#linearGradient4574"
       id="linearGradient4572"
       gradientUnits="userSpaceOnUse"
       gradientTransform="matrix(0.86483117,0,0,0.96648671,-49.095319,-19.198898)"
       x1="87.968956"
       y1="18.534632"
       x2="87.968956"
       y2="19.541433" />
    <linearGradient
       xlink:href="#linearGradient4673"
       id="linearGradient3133-3"
       gradientUnits="userSpaceOnUse"
       gradientTransform="matrix(0.51780711,0,0,0.42191651,-0.45463415,2.1514396)"
       x1="40.290417"
       y1="6.240006"
       x2="40.290417"
       y2="41.76001" />
    <linearGradient
       gradientTransform="matrix(0.23432068,0,0,0.19165914,-27.312864,-25.915076)"
       gradientUnits="userSpaceOnUse"
       xlink:href="#linearGradient4487"
       id="linearGradient3077-9-7-2"
       y2="156.78416"
       x2="164.28023"
       y1="241.65149"
       x1="164.28023" />
    <linearGradient
       x1="71.204407"
       y1="5.0080671"
       x2="71.204407"
       y2="44.340794"
       id="linearGradient4488-1"
       xlink:href="#linearGradient4011-6-3"
       gradientUnits="userSpaceOnUse"
       gradientTransform="matrix(0.52320274,0,0,0.56295124,-33.857945,12.004094)" />
    <linearGradient
       gradientTransform="matrix(0.97893532,1.0583374,-0.97893532,1.0583374,-20.671342,-25.160959)"
       gradientUnits="userSpaceOnUse"
       xlink:href="#linearGradient3846"
       id="linearGradient3275-0-9"
       y2="25.041828"
       x2="49.414146"
       y1="2.7114925"
       x1="27.083811" />
    <radialGradient
       gradientTransform="matrix(0.45657182,0,0,0.49237363,-0.74688122,-8.3534186)"
       gradientUnits="userSpaceOnUse"
       r="30.5"
       fy="73"
       fx="10"
       cy="73"
       cx="10"
       id="radialGradient4310-49"
       xlink:href="#linearGradient4304" />
    <radialGradient
       inkscape:collect="always"
       xlink:href="#linearGradient5060-2"
       id="radialGradient4251"
       gradientUnits="userSpaceOnUse"
       gradientTransform="matrix(0.01377979,0,0,0.01001681,17.295717,19.823357)"
       cx="605.71429"
       cy="486.64789"
       fx="605.71429"
       fy="486.64789"
       r="117.14286" />
  </defs>
  <g
     id="g4237"
     transform="matrix(0.84099564,0,0,0.84099564,0.05649376,-0.03001998)">
    <path
       d="m 25.600254,23.49608 c 0,0 0,2.432508 0,2.432508 0.709626,0.0049 1.715529,-0.545012 1.715529,-1.216424 0,-0.671412 -0.791889,-1.216084 -1.715529,-1.216084 z"
       id="path4249"
       style="display:inline;overflow:visible;visibility:visible;opacity:0.3;fill:url(#radialGradient4251);fill-opacity:1;fill-rule:nonzero;stroke:none;stroke-width:1;marker:none"
       inkscape:connector-curvature="0" />
    <rect
       style="display:inline;overflow:visible;visibility:visible;opacity:0.3;fill:url(#linearGradient3178);fill-opacity:1;fill-rule:nonzero;stroke:none;stroke-width:1;marker:none"
       id="rect2879-0"
       y="23.491074"
       x="2.0708253"
       height="2.4326537"
       width="23.588516" />
    <path
       inkscape:connector-curvature="0"
       style="display:inline;overflow:visible;visibility:visible;opacity:0.3;fill:url(#radialGradient3175);fill-opacity:1;fill-rule:nonzero;stroke:none;stroke-width:1;marker:none"
       id="path2881-4"
       d="m 2.0708253,23.491178 c 0,0 0,2.432508 0,2.432508 -0.7096253,0.0049 -1.7155284,-0.545012 -1.7155284,-1.216424 0,-0.671412 0.7918883,-1.216084 1.7155284,-1.216084 z" />
  </g>
  <rect
     style="color:#000000;clip-rule:nonzero;display:inline;overflow:visible;visibility:visible;opacity:0.1;isolation:auto;mix-blend-mode:normal;color-interpolation:sRGB;color-interpolation-filters:linearRGB;solid-color:#000000;solid-opacity:1;fill:#4a2e4c;fill-opacity:1;fill-rule:nonzero;stroke:none;stroke-width:1.00000072;stroke-linecap:round;stroke-linejoin:miter;stroke-miterlimit:4;stroke-dasharray:none;stroke-dashoffset:0;stroke-opacity:1;marker:none;color-rendering:auto;image-rendering:auto;shape-rendering:auto;text-rendering:auto;enable-background:accumulate"
     id="rect3180-1-0-5-5"
     y="3.9850867"
     x="2.0106928"
     height="17.065281"
     width="19.956703"
     ry="0.71105343"
     rx="0.66522348" />
  <rect
     style="color:#000000;clip-rule:nonzero;display:inline;overflow:visible;visibility:visible;opacity:0.2;isolation:auto;mix-blend-mode:normal;color-interpolation:sRGB;color-interpolation-filters:linearRGB;solid-color:#000000;solid-opacity:1;fill:#4a2e4c;fill-opacity:1;fill-rule:nonzero;stroke:none;stroke-width:1.00000072;stroke-linecap:round;stroke-linejoin:miter;stroke-miterlimit:4;stroke-dasharray:none;stroke-dashoffset:0;stroke-opacity:1;marker:none;color-rendering:auto;image-rendering:auto;shape-rendering:auto;text-rendering:auto;enable-background:accumulate"
     id="rect3180-1-0-5"
     y="6.2164278"
     x="3.3435993"
     height="12.775584"
     width="16.259834"
     ry="0.58070838"
     rx="0.58070838" />
  <rect
     style="color:#000000;display:inline;overflow:visible;visibility:visible;fill:url(#linearGradient3077-9-7-2);fill-opacity:1;fill-rule:nonzero;stroke:none;stroke-width:1.00000072;stroke-linecap:round;stroke-linejoin:miter;stroke-miterlimit:4;stroke-dasharray:none;stroke-dashoffset:0;stroke-opacity:1;marker:none;enable-background:accumulate"
     id="rect3180-1-0"
     y="4.046308"
     x="1.9519584"
     height="16.378916"
     width="19.947256"
     ry="0.74449623"
     rx="0.71240193" />
  <path
     inkscape:connector-curvature="0"
     id="path2555-7-6-5-7-9"
     d="m 3.8188373,12.265679 c -0.6254821,0 -1.2403177,0.04973 -1.8441022,0.13793 l 0,8.286363 14.2737839,0 C 13.951971,15.695858 9.2471022,12.265679 3.8188373,12.265679 Z"
     style="color:#000000;clip-rule:nonzero;display:inline;overflow:visible;visibility:visible;opacity:0.6;isolation:auto;mix-blend-mode:normal;color-interpolation:sRGB;color-interpolation-filters:linearRGB;solid-color:#000000;solid-opacity:1;fill:url(#radialGradient4310-49);fill-opacity:1;fill-rule:evenodd;stroke:none;stroke-width:1.00000012px;stroke-linecap:butt;stroke-linejoin:miter;stroke-miterlimit:4;stroke-dasharray:none;stroke-dashoffset:0;stroke-opacity:1;marker:none;color-rendering:auto;image-rendering:auto;shape-rendering:auto;text-rendering:auto;enable-background:accumulate" />
  <path
     inkscape:connector-curvature="0"
     id="path2555-7-6-5-1"
     d="m 3.8756008,14.947842 c -0.6379269,0 -1.2627534,0.05957 -1.8723635,0.16885 l 0,5.31047 11.3526647,0 c -2.052267,-3.303329 -5.5343977,-5.47932 -9.4803012,-5.47932 z"
     style="color:#000000;clip-rule:nonzero;display:inline;overflow:visible;visibility:visible;opacity:1;isolation:auto;mix-blend-mode:normal;color-interpolation:sRGB;color-interpolation-filters:linearRGB;solid-color:#000000;solid-opacity:1;fill:url(#linearGradient3275-0-9);fill-opacity:1;fill-rule:evenodd;stroke:none;stroke-width:1.00000012px;stroke-linecap:butt;stroke-linejoin:miter;stroke-miterlimit:4;stroke-dasharray:none;stroke-dashoffset:0;stroke-opacity:1;marker:none;color-rendering:auto;image-rendering:auto;shape-rendering:auto;text-rendering:auto;enable-background:accumulate" />
  <path
     inkscape:connector-curvature="0"
     id="path4427-7"
     d="m 12.465104,4.0721438 c -0.0032,0.030849 5.89e-4,0.061296 0.01581,0.091988 0.05155,0.1040342 0.206806,0.1181405 0.404693,0.036526 0.176537,-0.07281 0.345977,-0.081611 0.377027,-0.018945 0.03105,0.062673 -0.03003,0.14976 -0.135951,0.1934491 -0.252565,0.1041627 -0.223468,0.1450984 0.380979,0.5350217 0.467942,0.3018671 0.557559,0.3111806 1.053622,0.1075493 0.428817,-0.1760234 0.544789,-0.1802917 0.55329,-0.020968 0.0062,0.1165872 0.08519,0.1740438 0.188119,0.1366299 0.09779,-0.035547 0.07133,0.034229 -0.05848,0.1555692 -0.15285,0.1428625 -0.178834,0.2719748 -0.07351,0.3652482 0.137713,0.121956 0.01163,0.2061276 -0.826773,0.5519336 -1.075177,0.4434406 -2.140332,1.1544366 -2.782259,1.8580377 -0.399448,0.4378259 -1.148873,1.9130649 -1.061527,2.0893635 0.02446,0.04936 0.249061,0.0053 0.497961,-0.09739 0.372183,-0.1535042 0.450857,-0.2527692 0.445004,-0.5607276 l -0.0071,-0.374043 0.188119,0.251617 0.18891,0.2529694 0.15492,-0.4633257 c 0.144528,-0.4315443 0.15886,-0.4427388 0.221316,-0.1724784 0.04146,0.1794529 0.147657,0.284659 0.278225,0.2766421 0.15748,-0.00966 0.203949,0.054959 0.186538,0.2570274 -0.02119,0.2458911 0.02646,0.2498898 0.522465,0.04531 0.439263,-0.1811688 0.571959,-0.3083433 0.679757,-0.6567727 l 0.132788,-0.4328887 0.178636,0.33887 c 0.16951,0.3220107 0.181741,0.323804 0.256884,0.039227 0.06883,-0.2606616 0.09144,-0.2742274 0.174682,-0.1061973 0.06931,0.1399033 0.205571,0.1466462 0.497172,0.026374 0.375044,-0.1546822 0.356606,-0.1024722 -0.271905,0.7791991 -0.370199,0.5193099 -0.893625,1.4911049 -1.163491,2.1603829 -0.469668,1.164791 -0.968697,3.129206 -0.774605,3.049158 0.268026,-0.110537 1.394356,-1.038407 1.355561,-1.116715 -0.02492,-0.05034 -0.05292,-0.262217 -0.06246,-0.470767 -0.01713,-0.375338 -0.01432,-0.377553 0.221316,-0.169098 0.332751,0.294363 0.602066,0.136461 0.590441,-0.346311 -0.01035,-0.429788 0.158475,-0.616815 0.299565,-0.332106 0.06856,0.138359 0.129095,0.121287 0.339879,-0.09402 0.191596,-0.19571 0.213869,-0.348943 0.08615,-0.606722 -0.157359,-0.317616 -0.149833,-0.335232 0.105119,-0.207651 0.28865,0.144441 0.546459,-0.03614 0.418919,-0.293551 -0.0483,-0.0975 0.04817,-0.175216 0.280598,-0.227266 0.194579,-0.04358 0.35017,-0.03901 0.345411,0.01028 -0.07883,0.813862 -0.09247,2.774866 -0.02371,3.504367 0.08285,0.878976 0.553164,2.469487 0.710583,2.404563 0.03811,-0.0157 0.240352,-0.546722 0.449746,-1.180299 0.24235,-0.733284 0.324511,-1.21546 0.224476,-1.327074 -0.115822,-0.129226 -0.08088,-0.208185 0.135953,-0.297611 0.341676,-0.140918 0.511116,-0.776144 0.264789,-0.994288 -0.120068,-0.106334 -0.09971,-0.15085 0.07588,-0.161659 0.304038,-0.01868 0.266733,-0.09464 -0.222107,-0.442358 -0.3858,-0.274426 -0.386953,-0.277405 -0.0403,-0.183303 0.193136,0.05242 0.390489,0.07975 0.43789,0.0602 0.136084,-0.05612 -0.115152,-0.476402 -0.296404,-0.495792 -0.08981,-0.0095 -0.190671,-0.07133 -0.223689,-0.137984 -0.0381,-0.07689 0.03542,-0.09878 0.200764,-0.05953 0.461121,0.109503 0.63722,-0.20082 0.328023,-0.57899 -0.150022,-0.183488 -0.352897,-0.370211 -0.450536,-0.413945 -0.124098,-0.05559 -0.0718,-0.102938 0.172312,-0.157603 0.212618,-0.04762 0.321797,-0.130139 0.281387,-0.211709 -0.0365,-0.07368 0.0057,-0.126292 0.09247,-0.117013 0.08674,0.0092 0.199528,-0.2191374 0.25135,-0.5066157 0.05181,-0.2874758 0.128875,-0.5377695 0.17073,-0.5559898 1.178608,1.1199685 2.036649,6.4351515 2.238451,9.5573665 l 0.196811,0 0,-7.54917 C 21.244513,9.8970359 20.612855,8.8888794 20.042757,8.3517783 19.329344,7.6796616 19.297006,7.5812133 19.839619,7.7328829 c 0.303857,0.084935 0.323975,0.069424 0.306681,-0.2299712 -0.01773,-0.3069981 -0.0069,-0.3043767 0.26874,0.042617 0.225028,0.2832467 0.481743,0.3926519 1.185623,0.5052604 0.09108,0.014569 0.15615,0.022007 0.241075,0.0345 l 0,-2.7704854 c -0.01489,5.83e-5 -0.02929,-0.00159 -0.04426,-0.00137 l -0.626798,0.00477 0.469504,-0.1968281 c 0.07279,-0.030501 0.139714,-0.065981 0.201556,-0.1028106 l 0,-0.8711873 -0.405478,-0.07508 -1.369791,0 -1.350819,0.562755 -0.07825,-0.3923052 c -0.01001,-0.049848 -0.03098,-0.1128065 -0.04664,-0.1704556 l -2.09302,0 c -7.99e-4,7.481e-4 0.0018,0.00707 7.99e-4,0.00743 -0.0042,0.00161 -0.02453,-0.00644 -0.0332,-0.00743 l -4.000288,0 z m 3.532362,3.5300692 c 0.140288,0.017018 0.161884,0.3393469 0.0032,0.5235254 -0.104448,0.12121 -0.225493,0.2351302 -0.268741,0.2529701 -0.112373,0.046344 0.08451,-0.7121476 0.198394,-0.7643188 0.02473,-0.011369 0.04714,-0.014601 0.06719,-0.012186 z"
     style="opacity:0.5;fill:#000000;fill-opacity:1" />
  <path
     inkscape:connector-curvature="0"
     id="path8655-6-9-8"
     d="M 12.219801,20.277349 C 10.467133,17.608731 7.3615083,15.797082 3.6732361,15.864384 3.1137912,15.874644 2.566226,15.918023 2.0326852,16.016081"
     style="color:#000000;display:inline;overflow:visible;visibility:visible;opacity:0.8;fill:none;stroke:url(#linearGradient4488-1);stroke-width:0.76400232;stroke-linecap:butt;stroke-linejoin:round;stroke-miterlimit:4;stroke-dasharray:none;stroke-dashoffset:0;stroke-opacity:1;marker:none;enable-background:accumulate" />
  <path
     inkscape:connector-curvature="0"
     id="path2555-7-4-7-3"
     d="m 13.069647,20.467715 c -1.97566,-3.174386 -5.5147155,-5.265439 -9.3133228,-5.265439 -0.6141137,0 -1.2156153,0.05723 -1.8024705,0.162259"
     style="color:#000000;clip-rule:nonzero;display:inline;overflow:visible;visibility:visible;opacity:0.3;isolation:auto;mix-blend-mode:normal;color-interpolation:sRGB;color-interpolation-filters:linearRGB;solid-color:#000000;solid-opacity:1;fill:none;fill-opacity:1;fill-rule:evenodd;stroke:#d25000;stroke-width:0.76400232;stroke-linecap:butt;stroke-linejoin:miter;stroke-miterlimit:4;stroke-dasharray:none;stroke-dashoffset:0;stroke-opacity:1;marker:none;color-rendering:auto;image-rendering:auto;shape-rendering:auto;text-rendering:auto;enable-background:accumulate" />
  <rect
     width="19.158861"
     height="15.610911"
     rx="0.3547937"
     ry="0.37168834"
     x="2.3933022"
     y="4.4719801"
     id="rect6741-5-0-2-3-4"
     style="opacity:0.5;fill:none;stroke:url(#linearGradient3133-3);stroke-width:0.98872375;stroke-linecap:round;stroke-linejoin:round;stroke-miterlimit:4;stroke-dasharray:none;stroke-dashoffset:0;stroke-opacity:1" />
  <g
     id="g4242"
     transform="matrix(0.81249029,0,0,0.82880007,-4.0114053,-1.51904)">
    <path
       inkscape:connector-curvature="0"
       style="display:inline;overflow:visible;visibility:visible;opacity:0.3;fill:url(#radialGradient3172);fill-opacity:1;fill-rule:nonzero;stroke:none;stroke-width:1;marker:none"
       id="path2883-6"
       d="m 29.060611,27.491178 c 0,0 0,2.432508 0,2.432508 0.80501,0.0049 1.946123,-0.545012 1.946123,-1.216424 0,-0.671412 -0.898331,-1.216084 -1.946123,-1.216084 z" />
    <rect
       transform="matrix(0.70710678,0.70710678,-0.70710678,0.70710678,0,0)"
       rx="0.24326538"
       ry="0.24326538"
       y="-2.0152194"
       x="18.610847"
       height="2.4326537"
       width="22.866945"
       id="rect3681"
       style="color:#000000;clip-rule:nonzero;display:inline;overflow:visible;visibility:visible;opacity:1;isolation:auto;mix-blend-mode:normal;color-interpolation:sRGB;color-interpolation-filters:linearRGB;solid-color:#000000;solid-opacity:1;fill:url(#linearGradient4504);fill-opacity:1;fill-rule:nonzero;stroke:none;stroke-width:1;stroke-linecap:butt;stroke-linejoin:miter;stroke-miterlimit:4;stroke-dasharray:none;stroke-dashoffset:0;stroke-opacity:1;marker:none;color-rendering:auto;image-rendering:auto;shape-rendering:auto;text-rendering:auto;enable-background:accumulate" />
    <rect
       transform="matrix(0.70710678,0.70710678,-0.70710678,0.70710678,0,0)"
       ry="0"
       rx="0"
       y="-2.0152194"
       x="22.259832"
       height="2.4326537"
       width="15.568984"
       id="rect4516"
       style="color:#000000;clip-rule:nonzero;display:inline;overflow:visible;visibility:visible;opacity:1;isolation:auto;mix-blend-mode:normal;color-interpolation:sRGB;color-interpolation-filters:linearRGB;solid-color:#000000;solid-opacity:1;fill:url(#linearGradient4524);fill-opacity:1;fill-rule:nonzero;stroke:none;stroke-width:1;stroke-linecap:butt;stroke-linejoin:miter;stroke-miterlimit:4;stroke-dasharray:none;stroke-dashoffset:0;stroke-opacity:1;marker:none;color-rendering:auto;image-rendering:auto;shape-rendering:auto;text-rendering:auto;enable-background:accumulate" />
    <rect
       transform="matrix(0.70710678,0.70710678,-0.70710678,0.70710678,0,0)"
       rx="0.24326538"
       ry="0.24326538"
       y="-2.0152194"
       x="18.610851"
       height="2.4326537"
       width="22.866945"
       id="rect3681-7"
       style="color:#000000;clip-rule:nonzero;display:inline;overflow:visible;visibility:visible;opacity:0.5;isolation:auto;mix-blend-mode:normal;color-interpolation:sRGB;color-interpolation-filters:linearRGB;solid-color:#000000;solid-opacity:1;fill:none;fill-opacity:1;fill-rule:nonzero;stroke:#001537;stroke-width:0.48653075;stroke-linecap:butt;stroke-linejoin:miter;stroke-miterlimit:4;stroke-dasharray:none;stroke-dashoffset:0;stroke-opacity:1;marker:none;color-rendering:auto;image-rendering:auto;shape-rendering:auto;text-rendering:auto;enable-background:accumulate" />
    <rect
       transform="matrix(0.70710678,0.70710678,-0.70710678,0.70710678,0,0)"
       y="-1.5286896"
       x="19.097382"
       height="1.4595922"
       width="21.893885"
       id="rect3681-7-5"
       style="color:#000000;clip-rule:nonzero;display:inline;overflow:visible;visibility:visible;opacity:0.5;isolation:auto;mix-blend-mode:normal;color-interpolation:sRGB;color-interpolation-filters:linearRGB;solid-color:#000000;solid-opacity:1;fill:none;fill-opacity:1;fill-rule:nonzero;stroke:url(#linearGradient4572);stroke-width:0.48653075;stroke-linecap:round;stroke-linejoin:round;stroke-miterlimit:4;stroke-dasharray:none;stroke-dashoffset:0;stroke-opacity:1;marker:none;color-rendering:auto;image-rendering:auto;shape-rendering:auto;text-rendering:auto;enable-background:accumulate" />
  </g>
</svg>
