<?xml version="1.0" encoding="UTF-8" standalone="no"?>
<svg
   xmlns:dc="http://purl.org/dc/elements/1.1/"
   xmlns:cc="http://creativecommons.org/ns#"
   xmlns:rdf="http://www.w3.org/1999/02/22-rdf-syntax-ns#"
   xmlns:svg="http://www.w3.org/2000/svg"
   xmlns="http://www.w3.org/2000/svg"
   xmlns:xlink="http://www.w3.org/1999/xlink"
   xmlns:sodipodi="http://sodipodi.sourceforge.net/DTD/sodipodi-0.dtd"
   xmlns:inkscape="http://www.inkscape.org/namespaces/inkscape"
   version="1.0"
   width="128"
   height="128"
   id="svg2453"
   viewBox="0 0 128 128"
   inkscape:version="0.91 r13725"
   sodipodi:docname="com.github.philip-scott.wallpaperize.svg">
  <sodipodi:namedview
     pagecolor="#ffffff"
     bordercolor="#666666"
     borderopacity="1"
     objecttolerance="10"
     gridtolerance="10"
     guidetolerance="10"
     inkscape:pageopacity="0"
     inkscape:pageshadow="2"
     inkscape:window-width="1920"
     inkscape:window-height="1017"
     id="namedview37"
     showgrid="true"
     showguides="false"
     showborder="true"
     inkscape:zoom="7.9999999"
     inkscape:cx="65.504634"
     inkscape:cy="35.384016"
     inkscape:window-x="0"
     inkscape:window-y="30"
     inkscape:window-maximized="1"
     inkscape:current-layer="svg2453"
     borderlayer="false">
    <inkscape:grid
       type="xygrid"
       id="grid4235" />
  </sodipodi:namedview>
  <metadata
     id="metadata35">
    <rdf:RDF>
      <cc:Work
         rdf:about="">
        <dc:format>image/svg+xml</dc:format>
        <dc:type
           rdf:resource="http://purl.org/dc/dcmitype/StillImage" />
        <dc:title />
      </cc:Work>
    </rdf:RDF>
  </metadata>
  <defs
     id="defs2455">
    <linearGradient
       id="linearGradient4673">
      <stop
         offset="0"
         style="stop-color:#ffffff;stop-opacity:1"
         id="stop4675" />
      <stop
         offset="0"
         style="stop-color:#ffffff;stop-opacity:0.23529412"
         id="stop4677" />
      <stop
         offset="0.99999994"
         style="stop-color:#ffffff;stop-opacity:0.15686275"
         id="stop4679" />
      <stop
         offset="1"
         style="stop-color:#ffffff;stop-opacity:0.39215687"
         id="stop4681" />
    </linearGradient>
    <linearGradient
       id="linearGradient4574">
      <stop
         offset="0"
         style="stop-color:#ffffff;stop-opacity:1"
         id="stop4576" />
      <stop
         offset="0"
         style="stop-color:#ffffff;stop-opacity:0.23529412"
         id="stop4578" />
      <stop
         offset="1"
         style="stop-color:#ffffff;stop-opacity:0.15686275"
         id="stop4580" />
      <stop
         offset="1"
         style="stop-color:#ffffff;stop-opacity:0.39215687"
         id="stop4582" />
    </linearGradient>
    <linearGradient
       inkscape:collect="always"
       id="linearGradient4518">
      <stop
         style="stop-color:#06243c;stop-opacity:1;"
         offset="0"
         id="stop4520" />
      <stop
         id="stop4526"
         offset="0.34545457"
         style="stop-color:#082f3c;stop-opacity:1" />
      <stop
         style="stop-color:#074151;stop-opacity:1"
         offset="0.39090911"
         id="stop4528" />
      <stop
         style="stop-color:#3a5c6b;stop-opacity:1"
         offset="1"
         id="stop4522" />
    </linearGradient>
    <linearGradient
       inkscape:collect="always"
       id="linearGradient4498">
      <stop
         style="stop-color:#f9f7f0;stop-opacity:1"
         offset="0"
         id="stop4500" />
      <stop
         style="stop-color:#e8e8dd;stop-opacity:1"
         offset="0.34710741"
         id="stop4508" />
      <stop
         id="stop4514"
         offset="0.55208331"
         style="stop-color:#829c9a;stop-opacity:1;" />
      <stop
         id="stop4510"
         offset="0.57851237"
         style="stop-color:#0e2d39;stop-opacity:1" />
      <stop
         style="stop-color:#0e3848;stop-opacity:1"
         offset="0.74710745"
         id="stop4512" />
      <stop
         style="stop-color:#76b1bd;stop-opacity:1"
         offset="1"
         id="stop4502" />
    </linearGradient>
    <linearGradient
       id="linearGradient3462">
      <stop
         id="stop3464"
         style="stop-color:#ffffff;stop-opacity:1"
         offset="0" />
      <stop
         id="stop3466"
         style="stop-color:#ffffff;stop-opacity:0.23529412"
         offset="0.03457849" />
      <stop
         id="stop3468"
         style="stop-color:#ffffff;stop-opacity:0.15686275"
         offset="0.96375686" />
      <stop
         id="stop3470"
         style="stop-color:#ffffff;stop-opacity:0.39215687"
         offset="1" />
    </linearGradient>
    <linearGradient
       id="linearGradient5060-2">
      <stop
         id="stop5062-3"
         style="stop-color:#000000;stop-opacity:1"
         offset="0" />
      <stop
         id="stop5064-1"
         style="stop-color:#000000;stop-opacity:0"
         offset="1" />
    </linearGradient>
    <linearGradient
       id="linearGradient5048-8">
      <stop
         id="stop5050-4"
         style="stop-color:#000000;stop-opacity:0"
         offset="0" />
      <stop
         id="stop5056-5"
         style="stop-color:#000000;stop-opacity:1"
         offset="0.5" />
      <stop
         id="stop5052-1"
         style="stop-color:#000000;stop-opacity:0"
         offset="1" />
    </linearGradient>
    <radialGradient
       cx="605.71429"
       cy="486.64789"
       r="117.14286"
       fx="605.71429"
       fy="486.64789"
       id="radialGradient3172"
       xlink:href="#linearGradient5060-2"
       gradientUnits="userSpaceOnUse"
       gradientTransform="matrix(0.06443811,0,0,0.04129115,80.277764,98.023922)" />
    <radialGradient
       cx="605.71429"
       cy="486.64789"
       r="117.14286"
       fx="605.71429"
       fy="486.64789"
       id="radialGradient3175"
       xlink:href="#linearGradient5060-2"
       gradientUnits="userSpaceOnUse"
       gradientTransform="matrix(-0.06443811,0,0,0.04129115,47.639972,98.023922)" />
    <linearGradient
       x1="302.85715"
       y1="366.64789"
       x2="302.85715"
       y2="609.50507"
       id="linearGradient3178"
       xlink:href="#linearGradient5048-8"
       gradientUnits="userSpaceOnUse"
       gradientTransform="matrix(0.22844519,0,0,0.04129115,-18.607759,98.023922)" />
    <linearGradient
       xlink:href="#linearGradient3462"
       id="linearGradient3133"
       gradientUnits="userSpaceOnUse"
       gradientTransform="matrix(3.1136747,0,0,2.6706275,-10.763744,2.80942)"
       x1="40.290417"
       y1="5.4143372"
       x2="40.290417"
       y2="42.437775" />
    <radialGradient
       gradientTransform="matrix(0,7.3142778,-8.8928037,-2.2131465e-7,139.10132,-34.415942)"
       gradientUnits="userSpaceOnUse"
       xlink:href="#linearGradient2867-449-88-871-390-598-476-591-434-148-57-177-8"
       id="radialGradient3166-9"
       fy="8.4497671"
       fx="4.5993023"
       r="19.99999"
       cy="8.4497671"
       cx="4.5993023" />
    <linearGradient
       id="linearGradient2867-449-88-871-390-598-476-591-434-148-57-177-8">
      <stop
         offset="0"
         style="stop-color:#90dbec;stop-opacity:1"
         id="stop3750-4" />
      <stop
         offset="0.26238"
         style="stop-color:#55c1ec;stop-opacity:1"
         id="stop3752-8" />
      <stop
         offset="0.704952"
         style="stop-color:#3689e6;stop-opacity:1"
         id="stop3754-1" />
      <stop
         offset="1"
         style="stop-color:#2b63a0;stop-opacity:1"
         id="stop3756-0" />
    </linearGradient>
    <radialGradient
       r="7.228416"
       fy="73.104591"
       fx="12.587129"
       cy="73.615715"
       cx="6.702713"
       gradientTransform="matrix(6.6589566,0,0,0.69364118,35.370377,70.722178)"
       gradientUnits="userSpaceOnUse"
       id="radialGradient4643"
       xlink:href="#linearGradient5060-2" />
    <linearGradient
       id="linearGradient4487">
      <stop
         offset="0"
         style="stop-color:#feaf9d;stop-opacity:1"
         id="stop4489" />
      <stop
         offset="1"
         style="stop-color:#7f4a98;stop-opacity:1"
         id="stop4491" />
    </linearGradient>
    <linearGradient
       id="linearGradient4304">
      <stop
         id="stop4306"
         offset="0"
         style="stop-color:#ffe6ab;stop-opacity:1" />
      <stop
         style="stop-color:#ffea8a;stop-opacity:0.63921571"
         offset="0.82044184"
         id="stop4312" />
      <stop
         id="stop4308"
         offset="1"
         style="stop-color:#e6ff4d;stop-opacity:0" />
    </linearGradient>
    <linearGradient
       id="linearGradient4011-6-3">
      <stop
         id="stop4013-0-0"
         style="stop-color:#ffffff;stop-opacity:1"
         offset="0" />
      <stop
         id="stop4015-7-9"
         style="stop-color:#ffffff;stop-opacity:0.23529412"
         offset="0.507761" />
      <stop
         id="stop4017-6-8"
         style="stop-color:#ffffff;stop-opacity:0.15686275"
         offset="0.83456558" />
      <stop
         id="stop4019-8-2"
         style="stop-color:#ffffff;stop-opacity:0.39215687"
         offset="1" />
    </linearGradient>
    <linearGradient
       id="linearGradient3846">
      <stop
         id="stop3848"
         style="stop-color:#fff3cb;stop-opacity:1"
         offset="0" />
      <stop
         id="stop3850"
         style="stop-color:#fdde76;stop-opacity:1"
         offset="0.26238" />
      <stop
         id="stop3852"
         style="stop-color:#f9c440;stop-opacity:1"
         offset="0.66093999" />
      <stop
         id="stop3854"
         style="stop-color:#e48b20;stop-opacity:1"
         offset="1" />
    </linearGradient>
    <linearGradient
       inkscape:collect="always"
       xlink:href="#linearGradient4498"
       id="linearGradient4504"
       x1="116.375"
       y1="25"
       x2="116.375"
       y2="28"
       gradientUnits="userSpaceOnUse"
       gradientTransform="matrix(2.2990691,0,0,2.5069636,-189.42006,-69.359321)" />
    <linearGradient
       inkscape:collect="always"
       xlink:href="#linearGradient4518"
       id="linearGradient4524"
       x1="132"
       y1="28"
       x2="132"
       y2="24.5625"
       gradientUnits="userSpaceOnUse"
       gradientTransform="matrix(2.5671307,0,0,2.4875298,-227.16,-68.649985)" />
    <linearGradient
       inkscape:collect="always"
       xlink:href="#linearGradient4574"
       id="linearGradient4572"
       gradientUnits="userSpaceOnUse"
       gradientTransform="matrix(3.5649962,0,0,3.9840394,-202.97508,-78.773053)"
       x1="87.968956"
       y1="18.534632"
       x2="87.968956"
       y2="19.541433" />
    <linearGradient
       xlink:href="#linearGradient4673"
       id="linearGradient3133-3"
       gradientUnits="userSpaceOnUse"
       gradientTransform="matrix(1.7585981,0,0,1.3770735,21.774618,33.895996)"
       x1="40.290417"
       y1="6.240006"
       x2="40.290417"
       y2="41.76001" />
    <linearGradient
       x1="164.28023"
       y1="241.65149"
       x2="164.28023"
       y2="156.78416"
       id="linearGradient3077-9-7-4"
       xlink:href="#linearGradient4487"
       gradientUnits="userSpaceOnUse"
       gradientTransform="matrix(1.3880253,0,0,1.190568,-168.38139,-170.22407)" />
    <linearGradient
       x1="27.083811"
       y1="2.7114925"
       x2="49.414146"
       y2="25.041828"
       id="linearGradient3275-0-1"
       xlink:href="#linearGradient3846"
       gradientUnits="userSpaceOnUse"
       gradientTransform="matrix(2.8521469,3.1495882,-2.8521469,3.1495882,-63.474262,-13.43828)" />
    <radialGradient
       xlink:href="#linearGradient4304"
       id="radialGradient4310-4"
       cx="10"
       cy="73"
       fx="10"
       fy="73"
       r="30.5"
       gradientUnits="userSpaceOnUse"
       gradientTransform="matrix(2.7087581,4.8629997e-8,-4.3045477e-8,2.9387486,-11.174738,-55.70902)" />
    <linearGradient
       gradientTransform="matrix(0.77627526,0,0,0.60446838,-65.998754,-53.511323)"
       gradientUnits="userSpaceOnUse"
       xlink:href="#linearGradient4487"
       id="linearGradient3077-9-7-2"
       y2="156.78416"
       x2="164.28023"
       y1="241.65149"
       x1="164.28023" />
    <linearGradient
       x1="71.204407"
       y1="5.0080671"
       x2="71.204407"
       y2="44.340794"
       id="linearGradient4488-1"
       xlink:href="#linearGradient4011-6-3"
       gradientUnits="userSpaceOnUse"
       gradientTransform="matrix(1.6798483,0,0,1.6731763,-84.153201,67.371105)" />
    <linearGradient
       gradientTransform="matrix(3.1430703,3.145539,-3.1430703,3.145539,-41.849368,-42.854729)"
       gradientUnits="userSpaceOnUse"
       xlink:href="#linearGradient3846"
       id="linearGradient3275-0-9"
       y2="25.041828"
       x2="49.414146"
       y1="2.7114925"
       x1="27.083811" />
    <radialGradient
       gradientTransform="matrix(1.488382,2.4216283e-8,-2.3652209e-8,1.463409,22.079739,6.3187103)"
       gradientUnits="userSpaceOnUse"
       r="30.5"
       fy="73"
       fx="10"
       cy="73"
       cx="10"
       id="radialGradient4310-49"
       xlink:href="#linearGradient4304" />
    <filter
       inkscape:collect="always"
       style="color-interpolation-filters:sRGB"
       id="filter4335"
       x="-0.070314832"
       width="1.1406296"
       y="-0.047082659"
       height="1.0941653">
      <feGaussianBlur
         inkscape:collect="always"
         stdDeviation="0.98437546"
         id="feGaussianBlur4337" />
    </filter>
    <filter
       inkscape:collect="always"
       style="color-interpolation-filters:sRGB"
       id="filter4439"
       x="-0.071663655"
       width="1.1433274"
       y="-0.14536451"
       height="1.290729">
      <feGaussianBlur
         inkscape:collect="always"
         stdDeviation="0.98765102"
         id="feGaussianBlur4441" />
    </filter>
  </defs>
  <path
     d="m 119.11207,113.16357 c 0,0 0,10.02726 0,10.02726 3.3184,0.02 8.02228,-2.24664 8.02228,-5.01433 0,-2.76769 -3.70309,-5.01293 -8.02228,-5.01293 z"
     id="path2883-6"
     style="display:inline;overflow:visible;visibility:visible;opacity:0.3;fill:url(#radialGradient3172);fill-opacity:1;fill-rule:nonzero;stroke:none;stroke-width:1;marker:none"
     inkscape:connector-curvature="0" />
  <rect
     width="110.3064"
     height="10.027854"
     x="8.8056679"
     y="113.16313"
     id="rect2879-0"
     style="display:inline;overflow:visible;visibility:visible;opacity:0.3;fill:url(#linearGradient3178);fill-opacity:1;fill-rule:nonzero;stroke:none;stroke-width:1;marker:none" />
  <path
     d="m 8.805668,113.16357 c 0,0 0,10.02726 0,10.02726 -3.3184036,0.02 -8.0222835,-2.24664 -8.0222835,-5.01433 0,-2.76769 3.7030877,-5.01293 8.0222835,-5.01293 z"
     id="path2881-4"
     style="display:inline;overflow:visible;visibility:visible;opacity:0.3;fill:url(#radialGradient3175);fill-opacity:1;fill-rule:nonzero;stroke:none;stroke-width:1;marker:none"
     inkscape:connector-curvature="0" />
  <rect
     style="color:#000000;display:inline;overflow:visible;visibility:visible;fill:url(#linearGradient3077-9-7-4);fill-opacity:1;fill-rule:nonzero;stroke:none;stroke-width:1.00000072;stroke-linecap:round;stroke-linejoin:miter;stroke-miterlimit:4;stroke-dasharray:none;stroke-dashoffset:0;stroke-opacity:1;marker:none;enable-background:accumulate"
     id="rect3180-1"
     y="15.893191"
     x="4.9721146"
     height="101.74426"
     width="118.15984"
     ry="4.0111418"
     rx="4.0111418" />
  <path
     inkscape:connector-curvature="0"
     id="path2555-7-6-5-7"
     d="m 15.912842,67.356741 c -3.710872,0 -7.35858,0.296907 -10.940727,0.823263 l 0,49.457436 84.683785,0 C 76.030903,87.829886 48.117761,67.356741 15.912842,67.356741 Z"
     style="color:#000000;clip-rule:nonzero;display:inline;overflow:visible;visibility:visible;opacity:0.6;isolation:auto;mix-blend-mode:normal;color-interpolation:sRGB;color-interpolation-filters:linearRGB;solid-color:#000000;solid-opacity:1;fill:url(#radialGradient4310-4);fill-opacity:1;fill-rule:evenodd;stroke:none;stroke-width:1.00000012px;stroke-linecap:butt;stroke-linejoin:miter;stroke-miterlimit:4;stroke-dasharray:none;stroke-dashoffset:0;stroke-opacity:1;marker:none;color-rendering:auto;image-rendering:auto;shape-rendering:auto;text-rendering:auto;enable-background:accumulate" />
  <path
     inkscape:connector-curvature="0"
     id="path2555-7-6-5"
     d="m 8.043716,105.92461 c -1.858614,0 -3.679056,0.17725 -5.455168,0.50249 l 0,15.80384 33.076216,0 C 29.68544,112.4003 19.540182,105.92461 8.043716,105.92461 Z"
     style="color:#000000;clip-rule:nonzero;display:inline;overflow:visible;visibility:visible;opacity:1;isolation:auto;mix-blend-mode:normal;color-interpolation:sRGB;color-interpolation-filters:linearRGB;solid-color:#000000;solid-opacity:1;fill:url(#linearGradient3275-0-1);fill-opacity:1;fill-rule:evenodd;stroke:none;stroke-width:1.00000012px;stroke-linecap:butt;stroke-linejoin:miter;stroke-miterlimit:4;stroke-dasharray:none;stroke-dashoffset:0;stroke-opacity:1;marker:none;filter:url(#filter4439);color-rendering:auto;image-rendering:auto;shape-rendering:auto;text-rendering:auto;enable-background:accumulate"
     transform="matrix(2.0055709,0,0,2.0055709,3.7805991,-131.75537)" />
  <path
     style="opacity:0.5;fill:#000000;fill-opacity:1;filter:url(#filter4335)"
     d="m 33.744141,71.5 c -0.0096,0.107584 0.0018,0.213239 0.04687,0.320312 0.152598,0.362862 0.611404,0.413566 1.197265,0.128907 0.522657,-0.253948 1.025262,-0.284995 1.117188,-0.06641 0.09192,0.218587 -0.08875,0.521451 -0.402344,0.673828 -0.747743,0.363319 -0.662572,0.507194 1.126953,1.867187 1.385391,1.05286 1.650492,1.085241 3.119141,0.375 1.269555,-0.613943 1.613502,-0.629911 1.638672,-0.07422 0.01846,0.406644 0.251906,0.607059 0.55664,0.476563 0.289521,-0.123994 0.210525,0.119753 -0.173828,0.542969 -0.452522,0.498281 -0.528619,0.948112 -0.216797,1.273437 0.407711,0.425362 0.03503,0.719664 -2.447265,1.925781 -3.183167,1.546651 -6.337788,4.026419 -8.238282,6.480469 -1.182607,1.527062 -3.401171,6.672202 -3.142578,7.28711 0.0724,0.172155 0.737714,0.01821 1.47461,-0.339844 1.101886,-0.535391 1.335684,-0.880972 1.318359,-1.955078 l -0.02148,-1.304688 0.55664,0.876953 0.558594,0.882813 0.458984,-1.615235 c 0.427888,-1.505162 0.471341,-1.544187 0.65625,-0.601562 0.122781,0.625905 0.435702,0.99281 0.822266,0.964844 0.466229,-0.03377 0.604278,0.191682 0.552734,0.896484 -0.06272,0.857625 0.07839,0.869765 1.546875,0.15625 1.300482,-0.631886 1.692574,-1.073793 2.011719,-2.289063 l 0.394531,-1.509765 0.529297,1.181641 c 0.501859,1.123125 0.537299,1.129264 0.759766,0.136718 0.203849,-0.909148 0.271107,-0.95717 0.517578,-0.371094 0.205212,0.487962 0.607389,0.511266 1.470703,0.0918 1.110362,-0.539511 1.056085,-0.356356 -0.804687,2.71875 -1.096013,1.811274 -2.644399,5.200821 -3.44336,7.535157 -1.390502,4.062606 -2.86955,10.913966 -2.294922,10.634766 0.793521,-0.38556 4.12853,-3.62139 4.013672,-3.89453 -0.07382,-0.17555 -0.1554,-0.91519 -0.183594,-1.64258 -0.05073,-1.30911 -0.04334,-1.3169 0.654297,-0.58984 0.985143,1.02669 1.78247,0.4768 1.748047,-1.20703 -0.03065,-1.499045 0.469006,-2.153182 0.886719,-1.16016 0.202941,0.48258 0.381809,0.42478 1.005859,-0.326173 0.567239,-0.682598 0.633969,-1.218096 0.25586,-2.117188 -0.46588,-1.107799 -0.444287,-1.169591 0.310547,-0.724609 0.854579,0.503785 1.617826,-0.125581 1.240234,-1.023438 -0.143006,-0.340052 0.14387,-0.611419 0.832031,-0.792968 0.576071,-0.151992 1.035572,-0.136339 1.021485,0.03516 -0.233419,2.838622 -0.273897,9.678276 -0.07031,12.222656 0.245277,3.06572 1.637461,8.61317 2.103516,8.38672 0.112829,-0.0548 0.712097,-1.90542 1.332031,-4.11523 0.7175,-2.55758 0.960227,-4.23962 0.664063,-4.62891 -0.342907,-0.45072 -0.239581,-0.72716 0.402343,-1.03906 1.011567,-0.49151 1.514433,-2.70594 0.785157,-3.4668 -0.355461,-0.37086 -0.29527,-0.52675 0.224609,-0.56445 0.900138,-0.0652 0.789056,-0.33019 -0.658203,-1.54297 -1.142199,-0.957153 -1.14541,-0.96689 -0.119141,-0.638675 0.571795,0.182865 1.15654,0.277185 1.296875,0.208985 0.402885,-0.195758 -0.340353,-1.660885 -0.876953,-1.728516 -0.265879,-0.03352 -0.566308,-0.249976 -0.664063,-0.482422 -0.112757,-0.268124 0.106176,-0.343973 0.595704,-0.207031 1.365192,0.381928 1.88611,-0.700541 0.970703,-2.019531 C 52.317562,95.102206 51.7168,94.451384 51.427734,94.298828 51.060318,94.104921 51.214803,93.940668 51.9375,93.75 c 0.629477,-0.166078 0.953619,-0.455739 0.833984,-0.740234 -0.108067,-0.256986 0.01664,-0.438607 0.273438,-0.40625 0.256819,0.03237 0.590714,-0.764904 0.74414,-1.767578 0.153419,-1.00267 0.381948,-1.875896 0.50586,-1.939454 3.434569,3.844921 5.939976,21.831416 6.58789,32.781246 0.381917,-0.36381 0.621094,-0.87571 0.621094,-1.44726 l 0,-24.330079 c -1.768145,-4.084676 -3.638336,-7.60129 -5.326172,-9.47461 -2.112129,-2.344241 -2.208024,-2.687205 -0.601562,-2.158203 0.899596,0.296232 0.959406,0.241497 0.908203,-0.802734 -0.0525,-1.070762 -0.01925,-1.059853 0.796875,0.15039 0.666212,0.987922 1.425852,1.368953 3.509766,1.761719 0.269645,0.05083 0.461457,0.07561 0.71289,0.119141 l 0,-9.66211 c -0.04414,2.04e-4 -0.08666,-0.0062 -0.130859,-0.0059 l -1.855469,0.01758 1.390625,-0.6875 c 0.215492,-0.106345 0.412616,-0.228998 0.595703,-0.357422 l 0,-1.300781 c 0,-1.108 -0.892,-2 -2,-2 L 56.248047,71.5 52.25,73.462891 52.017578,72.09375 C 51.988088,71.919921 51.92528,71.701074 51.878906,71.5 l -6.195312,0 c -0.0024,0.0027 0.005,0.02408 0.002,0.02539 -0.01248,0.0055 -0.072,-0.02179 -0.09766,-0.02539 l -11.84375,0 z m 10.457031,12.3125 c 0.415342,0.05938 0.479641,1.183786 0.0098,1.826172 -0.309228,0.422763 -0.666882,0.820595 -0.794922,0.882812 -0.332685,0.161652 0.248781,-2.484049 0.585937,-2.666015 0.07321,-0.0395 0.139878,-0.05145 0.199219,-0.04297 z"
     id="path4427"
     inkscape:connector-curvature="0"
     transform="matrix(2.0055709,0,0,2.0055709,-0.21940094,-127.50537)" />
  <rect
     width="118.70368"
     height="102.28411"
     rx="4.0238538"
     ry="4.0111418"
     x="4.6381226"
     y="16.602024"
     id="rect5505-21-3-8-5-2-6"
     style="color:#000000;display:inline;overflow:visible;visibility:visible;opacity:0.5;fill:#afafaf;fill-opacity:1;fill-rule:nonzero;stroke:none;stroke-width:1;stroke-linecap:round;stroke-linejoin:round;stroke-miterlimit:4;stroke-dasharray:none;stroke-dashoffset:0;stroke-opacity:1;marker:none;enable-background:accumulate" />
  <rect
     style="color:#000000;clip-rule:nonzero;display:inline;overflow:visible;visibility:visible;opacity:0.1;isolation:auto;mix-blend-mode:normal;color-interpolation:sRGB;color-interpolation-filters:linearRGB;solid-color:#000000;solid-opacity:1;fill:#4a2e4c;fill-opacity:1;fill-rule:nonzero;stroke:none;stroke-width:1;stroke-linecap:round;stroke-linejoin:miter;stroke-miterlimit:4;stroke-dasharray:none;stroke-dashoffset:0;stroke-opacity:1;marker:none;color-rendering:auto;image-rendering:auto;shape-rendering:auto;text-rendering:auto;enable-background:accumulate"
     id="rect3180-1-0-5-5"
     y="40.719505"
     x="28.557383"
     height="56.642376"
     width="70.802971"
     ry="2.3600988"
     rx="2.3600988" />
  <rect
     style="color:#000000;clip-rule:nonzero;display:inline;overflow:visible;visibility:visible;opacity:0.2;isolation:auto;mix-blend-mode:normal;color-interpolation:sRGB;color-interpolation-filters:linearRGB;solid-color:#000000;solid-opacity:1;fill:#4a2e4c;fill-opacity:1;fill-rule:nonzero;stroke:none;stroke-width:1.00000072;stroke-linecap:round;stroke-linejoin:miter;stroke-miterlimit:4;stroke-dasharray:none;stroke-dashoffset:0;stroke-opacity:1;marker:none;color-rendering:auto;image-rendering:auto;shape-rendering:auto;text-rendering:auto;enable-background:accumulate"
     id="rect3180-1-0-5"
     y="43.079609"
     x="30.951963"
     height="49.933437"
     width="66.082771"
     ry="2.2697017"
     rx="2.3600988" />
  <rect
     style="color:#000000;display:inline;overflow:visible;visibility:visible;fill:url(#linearGradient3077-9-7-2);fill-opacity:1;fill-rule:nonzero;stroke:none;stroke-width:1.00000072;stroke-linecap:round;stroke-linejoin:miter;stroke-miterlimit:4;stroke-dasharray:none;stroke-dashoffset:0;stroke-opacity:1;marker:none;enable-background:accumulate"
     id="rect3180-1-0"
     y="40.983047"
     x="30.951963"
     height="51.657013"
     width="66.082771"
     ry="2.3480458"
     rx="2.3600988" />
  <path
     inkscape:connector-curvature="0"
     id="path2555-7-6-5-7-9"
     d="m 36.96356,67.601786 c -2.039014,0 -4.043321,0.147831 -6.011602,0.409959 l 0,24.628322 46.531219,0 C 69.996646,77.796797 54.659205,67.601786 36.96356,67.601786 Z"
     style="color:#000000;clip-rule:nonzero;display:inline;overflow:visible;visibility:visible;opacity:0.6;isolation:auto;mix-blend-mode:normal;color-interpolation:sRGB;color-interpolation-filters:linearRGB;solid-color:#000000;solid-opacity:1;fill:url(#radialGradient4310-49);fill-opacity:1;fill-rule:evenodd;stroke:none;stroke-width:1.00000012px;stroke-linecap:butt;stroke-linejoin:miter;stroke-miterlimit:4;stroke-dasharray:none;stroke-dashoffset:0;stroke-opacity:1;marker:none;color-rendering:auto;image-rendering:auto;shape-rendering:auto;text-rendering:auto;enable-background:accumulate" />
  <path
     inkscape:connector-curvature="0"
     id="path2555-7-6-5-1"
     d="m 36.96356,76.354691 c -2.048193,0 -4.054326,0.177092 -6.011602,0.501854 l 0,15.783522 36.450039,0 C 60.812774,82.822075 49.632683,76.354691 36.96356,76.354691 Z"
     style="color:#000000;clip-rule:nonzero;display:inline;overflow:visible;visibility:visible;opacity:1;isolation:auto;mix-blend-mode:normal;color-interpolation:sRGB;color-interpolation-filters:linearRGB;solid-color:#000000;solid-opacity:1;fill:url(#linearGradient3275-0-9);fill-opacity:1;fill-rule:evenodd;stroke:none;stroke-width:1.00000012px;stroke-linecap:butt;stroke-linejoin:miter;stroke-miterlimit:4;stroke-dasharray:none;stroke-dashoffset:0;stroke-opacity:1;marker:none;color-rendering:auto;image-rendering:auto;shape-rendering:auto;text-rendering:auto;enable-background:accumulate" />
  <path
     inkscape:connector-curvature="0"
     id="path4427-7"
     d="m 66.442614,41.071448 c -0.01043,0.106708 0.0019,0.212027 0.05156,0.318193 0.168187,0.359864 0.674726,0.408654 1.320346,0.126346 0.575968,-0.251855 1.128781,-0.282298 1.230084,-0.06552 0.101302,0.216809 -0.09797,0.518027 -0.443552,0.669148 -0.824014,0.360316 -0.729079,0.501901 1.242979,1.850665 1.526705,1.044173 1.819083,1.076387 3.437536,0.372009 1.399053,-0.608877 1.777422,-0.623642 1.805157,-0.07253 0.0203,0.40329 0.277938,0.60203 0.613752,0.472611 0.319057,-0.12296 0.232731,0.118399 -0.19083,0.538124 -0.498683,0.494168 -0.583456,0.940775 -0.23983,1.263411 0.449298,0.421854 0.03809,0.713005 -2.69742,1.909165 -3.507858,1.533885 -6.983021,3.993253 -9.077365,6.427046 -1.303238,1.51446 -3.748295,6.617381 -3.463326,7.227209 0.07976,0.170737 0.812583,0.01832 1.624643,-0.336909 1.214281,-0.530972 1.470956,-0.874337 1.451865,-1.939579 l -0.02336,-1.293835 0.613753,0.870357 0.616334,0.875033 0.505442,-1.602668 c 0.471534,-1.492733 0.518296,-1.531456 0.722066,-0.596613 0.135295,0.620738 0.481742,0.984655 0.907733,0.956919 0.513787,-0.03349 0.6654,0.190116 0.608596,0.889071 -0.06913,0.850548 0.08632,0.864386 1.704587,0.156737 1.433133,-0.626674 1.866068,-1.066574 2.217767,-2.271813 l 0.433235,-1.497381 0.582809,1.172169 c 0.553046,1.113854 0.592951,1.120053 0.838108,0.135686 0.224634,-0.901644 0.298302,-0.948567 0.569915,-0.367328 0.226144,0.483933 0.670693,0.507257 1.622065,0.09126 1.223619,-0.535053 1.163464,-0.354432 -0.887108,2.695293 -1.207809,1.796319 -2.915534,5.157807 -3.79599,7.47287 -1.532334,4.029063 -3.160463,10.824086 -2.52722,10.547177 0.874459,-0.382362 4.549209,-3.591886 4.422637,-3.86276 -0.08135,-0.174064 -0.172659,-0.907024 -0.203748,-1.62841 -0.05591,-1.29831 -0.04673,-1.305972 0.722064,-0.584916 1.085629,1.018211 1.964296,0.472024 1.926363,-1.197907 -0.03377,-1.486663 0.517042,-2.133597 0.977361,-1.14877 0.223667,0.478583 0.421181,0.419535 1.108884,-0.325217 0.6251,-0.676958 0.697764,-1.207004 0.281086,-2.098672 -0.513396,-1.098651 -0.488843,-1.159584 0.342983,-0.718276 0.941748,0.499624 1.78287,-0.124991 1.366761,-1.015413 -0.157578,-0.337245 0.157136,-0.606074 0.915473,-0.786121 0.634831,-0.150742 1.142461,-0.134969 1.126934,0.03509 -0.257227,2.815189 -0.301708,9.5984 -0.07734,12.121787 0.270295,3.040399 1.804743,8.542047 2.318336,8.317478 0.124345,-0.05437 0.784168,-1.891121 1.467335,-4.082711 0.790689,-2.536451 1.058747,-4.204336 0.732377,-4.590403 -0.377888,-0.447009 -0.263847,-0.720113 0.443554,-1.029446 1.114748,-0.487457 1.667562,-2.684729 0.863897,-3.439303 -0.391718,-0.367802 -0.325341,-0.521797 0.247564,-0.559182 0.991953,-0.06469 0.870239,-0.327366 -0.724641,-1.530136 -1.258706,-0.949247 -1.26247,-0.959557 -0.131505,-0.63405 0.630118,0.181352 1.274003,0.275863 1.428654,0.208255 0.443982,-0.194139 -0.375715,-1.647896 -0.967048,-1.714969 -0.293,-0.03324 -0.622076,-0.246765 -0.729805,-0.47729 -0.124285,-0.265911 0.115541,-0.341706 0.655017,-0.205913 1.504445,0.378772 2.078981,-0.694646 1.070201,-2.002751 -0.489459,-0.634698 -1.151362,-1.280573 -1.469913,-1.431865 -0.404894,-0.192286 -0.234216,-0.356052 0.562178,-0.545146 0.693685,-0.164702 1.049892,-0.450163 0.918054,-0.73231 -0.119111,-0.254866 0.01865,-0.436854 0.301718,-0.404763 0.283014,0.0321 0.65098,-0.758009 0.820056,-1.752408 0.169049,-0.994396 0.420468,-1.860166 0.557021,-1.923197 3.845311,3.874031 6.644743,22.259495 7.30314,33.059391 l 0.642111,0 0,-26.112938 c -1.948496,-4.050957 -4.009334,-7.538218 -5.869333,-9.396075 -2.327569,-2.324888 -2.433076,-2.665424 -0.662753,-2.140786 0.991358,0.293785 1.057,0.240125 1.000574,-0.795487 -0.05784,-1.061921 -0.02266,-1.052851 0.876785,0.147416 0.734179,0.979766 1.57173,1.3582 3.868201,1.747725 0.297161,0.05041 0.509451,0.07615 0.786526,0.119335 l 0,-9.583247 c -0.04861,2.03e-4 -0.09558,-0.0052 -0.144441,-0.0048 l -2.044978,0.01634 1.531799,-0.680838 c 0.237471,-0.105494 0.455828,-0.228269 0.657594,-0.355636 l 0,-3.013479 -1.322906,-0.259706 -4.469066,0 -4.407166,1.946598 -0.255299,-1.357003 c -0.03249,-0.172411 -0.101061,-0.39018 -0.152162,-0.589595 l -6.828656,0 c -0.0026,0.0026 0.0058,0.02444 0.0026,0.02573 -0.01364,0.0056 -0.08002,-0.02226 -0.108321,-0.02573 l -13.051291,0 z m 11.524644,12.210685 c 0.457705,0.05887 0.528161,1.17381 0.01023,1.810895 -0.34077,0.419271 -0.735687,0.813328 -0.876789,0.875033 -0.366623,0.160302 0.275732,-2.46335 0.64728,-2.643812 0.08066,-0.03919 0.153807,-0.05053 0.219205,-0.04214 z"
     style="opacity:0.5;fill:#000000;fill-opacity:1" />
  <path
     inkscape:connector-curvature="0"
     id="path8655-6-9-8"
     d="M 63.788732,91.960459 C 58.161435,84.028928 48.1902,78.644431 36.348253,78.844467 c -1.796211,0.03028 -3.554281,0.159443 -5.267321,0.450872"
     style="color:#000000;display:inline;overflow:visible;visibility:visible;opacity:0.8;fill:none;stroke:url(#linearGradient4488-1);stroke-width:2.36009884;stroke-linecap:butt;stroke-linejoin:round;stroke-miterlimit:4;stroke-dasharray:none;stroke-dashoffset:0;stroke-opacity:1;marker:none;enable-background:accumulate" />
  <path
     inkscape:connector-curvature="0"
     id="path2555-7-4-7-3"
     d="m 66.854857,91.979492 c -6.343254,-9.434767 -17.706108,-15.64969 -29.90231,-15.64969 -1.971736,0 -3.902979,0.170072 -5.787197,0.482259"
     style="color:#000000;clip-rule:nonzero;display:inline;overflow:visible;visibility:visible;opacity:0.3;isolation:auto;mix-blend-mode:normal;color-interpolation:sRGB;color-interpolation-filters:linearRGB;solid-color:#000000;solid-opacity:1;fill:none;fill-opacity:1;fill-rule:evenodd;stroke:#d25000;stroke-width:2.36009884;stroke-linecap:butt;stroke-linejoin:miter;stroke-miterlimit:4;stroke-dasharray:none;stroke-dashoffset:0;stroke-opacity:1;marker:none;color-rendering:auto;image-rendering:auto;shape-rendering:auto;text-rendering:auto;enable-background:accumulate" />
  <rect
     width="65.068115"
     height="50.951721"
     rx="1.2049651"
     ry="1.2131361"
     x="31.446901"
     y="41.469898"
     id="rect6741-5-0-2-3-4"
     style="opacity:0.5;fill:none;stroke:url(#linearGradient3133-3);stroke-width:1.02457047;stroke-linecap:round;stroke-linejoin:round;stroke-miterlimit:4;stroke-dasharray:none;stroke-dashoffset:0;stroke-opacity:1" />
  <rect
     width="115.20598"
     height="98.81321"
     rx="2.0211573"
     ry="2.0165961"
     x="6.3614721"
     y="17.49786"
     id="rect6741-5-0-2-3"
     style="opacity:0.5;fill:none;stroke:url(#linearGradient3133);stroke-width:1.00663376;stroke-linecap:round;stroke-linejoin:round;stroke-miterlimit:4;stroke-dasharray:none;stroke-dashoffset:0;stroke-opacity:1" />
  <rect
     width="117.36733"
     height="101.79059"
     rx="3.9785535"
     ry="3.9917877"
     x="5.3216171"
     y="16.389709"
     id="rect5505-21-3-8-9-1-1"
     style="color:#000000;clip-rule:nonzero;display:inline;overflow:visible;visibility:visible;opacity:0.5;isolation:auto;mix-blend-mode:normal;color-interpolation:sRGB;color-interpolation-filters:linearRGB;solid-color:#000000;solid-opacity:1;fill:#000000;fill-opacity:0;fill-rule:nonzero;stroke:#73396d;stroke-width:0.9935239;stroke-linecap:round;stroke-linejoin:round;stroke-miterlimit:4;stroke-dasharray:none;stroke-dashoffset:0;stroke-opacity:1;marker:none;color-rendering:auto;image-rendering:auto;shape-rendering:auto;text-rendering:auto;enable-background:accumulate" />
  <path
     d="m 128.13713,121.78506 c 0,2.76913 -21.55022,5.01393 -48.133716,5.01393 -26.583501,0 -48.133681,-2.2448 -48.133681,-5.01393 0,-2.76911 21.55018,-5.01392 48.133681,-5.01392 26.583496,0 48.133716,2.24481 48.133716,5.01392 z"
     id="path10689"
     style="display:inline;overflow:visible;visibility:visible;opacity:0.2;fill:url(#radialGradient4643);fill-opacity:1;fill-rule:nonzero;stroke:none;stroke-width:0.80000001;marker:none"
     inkscape:connector-curvature="0" />
  <rect
     style="color:#000000;clip-rule:nonzero;display:inline;overflow:visible;visibility:visible;opacity:1;isolation:auto;mix-blend-mode:normal;color-interpolation:sRGB;color-interpolation-filters:linearRGB;solid-color:#000000;solid-opacity:1;fill:url(#linearGradient4504);fill-opacity:1;fill-rule:nonzero;stroke:none;stroke-width:1;stroke-linecap:butt;stroke-linejoin:miter;stroke-miterlimit:4;stroke-dasharray:none;stroke-dashoffset:0;stroke-opacity:1;marker:none;color-rendering:auto;image-rendering:auto;shape-rendering:auto;text-rendering:auto;enable-background:accumulate"
     id="rect3681"
     width="94.261833"
     height="10.027854"
     x="76.122421"
     y="-7.9387131"
     ry="1.0027854"
     rx="1.0027854"
     transform="matrix(0.70710678,0.70710678,-0.70710678,0.70710678,0,0)" />
  <rect
     style="color:#000000;clip-rule:nonzero;display:inline;overflow:visible;visibility:visible;opacity:1;isolation:auto;mix-blend-mode:normal;color-interpolation:sRGB;color-interpolation-filters:linearRGB;solid-color:#000000;solid-opacity:1;fill:url(#linearGradient4524);fill-opacity:1;fill-rule:nonzero;stroke:none;stroke-width:1;stroke-linecap:butt;stroke-linejoin:miter;stroke-miterlimit:4;stroke-dasharray:none;stroke-dashoffset:0;stroke-opacity:1;marker:none;color-rendering:auto;image-rendering:auto;shape-rendering:auto;text-rendering:auto;enable-background:accumulate"
     id="rect4516"
     width="64.178268"
     height="10.027854"
     x="91.164215"
     y="-7.9387131"
     rx="0"
     ry="0"
     transform="matrix(0.70710678,0.70710678,-0.70710678,0.70710678,0,0)" />
  <rect
     style="color:#000000;clip-rule:nonzero;display:inline;overflow:visible;visibility:visible;opacity:0.5;isolation:auto;mix-blend-mode:normal;color-interpolation:sRGB;color-interpolation-filters:linearRGB;solid-color:#000000;solid-opacity:1;fill:none;fill-opacity:1;fill-rule:nonzero;stroke:#001537;stroke-width:2.00557089;stroke-linecap:butt;stroke-linejoin:miter;stroke-miterlimit:4;stroke-dasharray:none;stroke-dashoffset:0;stroke-opacity:1;marker:none;color-rendering:auto;image-rendering:auto;shape-rendering:auto;text-rendering:auto;enable-background:accumulate"
     id="rect3681-7"
     width="94.261833"
     height="10.027854"
     x="76.122437"
     y="-7.9387131"
     ry="1.0027854"
     rx="1.0027854"
     transform="matrix(0.70710678,0.70710678,-0.70710678,0.70710678,0,0)" />
  <rect
     style="color:#000000;clip-rule:nonzero;display:inline;overflow:visible;visibility:visible;opacity:0.5;isolation:auto;mix-blend-mode:normal;color-interpolation:sRGB;color-interpolation-filters:linearRGB;solid-color:#000000;solid-opacity:1;fill:none;fill-opacity:1;fill-rule:nonzero;stroke:url(#linearGradient4572);stroke-width:2.00557089;stroke-linecap:round;stroke-linejoin:round;stroke-miterlimit:4;stroke-dasharray:none;stroke-dashoffset:0;stroke-opacity:1;marker:none;color-rendering:auto;image-rendering:auto;shape-rendering:auto;text-rendering:auto;enable-background:accumulate"
     id="rect3681-7-5"
     width="90.250687"
     height="6.0167127"
     x="78.128006"
     y="-5.9331427"
     transform="matrix(0.70710678,0.70710678,-0.70710678,0.70710678,0,0)" />
</svg>
