<?xml version="1.0" encoding="UTF-8" standalone="no"?>
<svg
   xmlns:dc="http://purl.org/dc/elements/1.1/"
   xmlns:cc="http://creativecommons.org/ns#"
   xmlns:rdf="http://www.w3.org/1999/02/22-rdf-syntax-ns#"
   xmlns:svg="http://www.w3.org/2000/svg"
   xmlns="http://www.w3.org/2000/svg"
   xmlns:xlink="http://www.w3.org/1999/xlink"
   xmlns:sodipodi="http://sodipodi.sourceforge.net/DTD/sodipodi-0.dtd"
   xmlns:inkscape="http://www.inkscape.org/namespaces/inkscape"
   version="1.0"
   width="32"
   height="32"
   id="svg2453"
   viewBox="0 0 32 32"
   inkscape:version="0.91 r13725"
   sodipodi:docname="com.github.philip-scott.wallpaperize.svg">
  <sodipodi:namedview
     pagecolor="#ffffff"
     bordercolor="#666666"
     borderopacity="1"
     objecttolerance="10"
     gridtolerance="10"
     guidetolerance="10"
     inkscape:pageopacity="0"
     inkscape:pageshadow="2"
     inkscape:window-width="1920"
     inkscape:window-height="1017"
     id="namedview37"
     showgrid="true"
     showguides="false"
     showborder="true"
     inkscape:zoom="32"
     inkscape:cx="13.016746"
     inkscape:cy="13.16085"
     inkscape:window-x="0"
     inkscape:window-y="30"
     inkscape:window-maximized="1"
     inkscape:current-layer="svg2453">
    <inkscape:grid
       type="xygrid"
       id="grid4237"
       enabled="true"
       snapvisiblegridlinesonly="true"
       dotted="false" />
  </sodipodi:namedview>
  <metadata
     id="metadata35">
    <rdf:RDF>
      <cc:Work
         rdf:about="">
        <dc:format>image/svg+xml</dc:format>
        <dc:type
           rdf:resource="http://purl.org/dc/dcmitype/StillImage" />
        <dc:title />
      </cc:Work>
    </rdf:RDF>
  </metadata>
  <defs
     id="defs2455">
    <linearGradient
       id="linearGradient4673">
      <stop
         offset="0"
         style="stop-color:#ffffff;stop-opacity:1"
         id="stop4675" />
      <stop
         offset="0"
         style="stop-color:#ffffff;stop-opacity:0.23529412"
         id="stop4677" />
      <stop
         offset="0.99999994"
         style="stop-color:#ffffff;stop-opacity:0.15686275"
         id="stop4679" />
      <stop
         offset="1"
         style="stop-color:#ffffff;stop-opacity:0.39215687"
         id="stop4681" />
    </linearGradient>
    <linearGradient
       id="linearGradient4574">
      <stop
         offset="0"
         style="stop-color:#ffffff;stop-opacity:1"
         id="stop4576" />
      <stop
         offset="0"
         style="stop-color:#ffffff;stop-opacity:0.23529412"
         id="stop4578" />
      <stop
         offset="1"
         style="stop-color:#ffffff;stop-opacity:0.15686275"
         id="stop4580" />
      <stop
         offset="1"
         style="stop-color:#ffffff;stop-opacity:0.39215687"
         id="stop4582" />
    </linearGradient>
    <linearGradient
       inkscape:collect="always"
       id="linearGradient4518">
      <stop
         style="stop-color:#06243c;stop-opacity:1;"
         offset="0"
         id="stop4520" />
      <stop
         id="stop4526"
         offset="0.34545457"
         style="stop-color:#082f3c;stop-opacity:1" />
      <stop
         style="stop-color:#074151;stop-opacity:1"
         offset="0.39090911"
         id="stop4528" />
      <stop
         style="stop-color:#3a5c6b;stop-opacity:1"
         offset="1"
         id="stop4522" />
    </linearGradient>
    <linearGradient
       inkscape:collect="always"
       id="linearGradient4498">
      <stop
         style="stop-color:#f9f7f0;stop-opacity:1"
         offset="0"
         id="stop4500" />
      <stop
         style="stop-color:#e8e8dd;stop-opacity:1"
         offset="0.34710741"
         id="stop4508" />
      <stop
         id="stop4514"
         offset="0.55208331"
         style="stop-color:#829c9a;stop-opacity:1;" />
      <stop
         id="stop4510"
         offset="0.57851237"
         style="stop-color:#0e2d39;stop-opacity:1" />
      <stop
         style="stop-color:#0e3848;stop-opacity:1"
         offset="0.74710745"
         id="stop4512" />
      <stop
         style="stop-color:#76b1bd;stop-opacity:1"
         offset="1"
         id="stop4502" />
    </linearGradient>
    <linearGradient
       id="linearGradient3462">
      <stop
         id="stop3464"
         style="stop-color:#ffffff;stop-opacity:1"
         offset="0" />
      <stop
         id="stop3466"
         style="stop-color:#ffffff;stop-opacity:0.23529412"
         offset="0.03457849" />
      <stop
         id="stop3468"
         style="stop-color:#ffffff;stop-opacity:0.15686275"
         offset="0.96375686" />
      <stop
         id="stop3470"
         style="stop-color:#ffffff;stop-opacity:0.39215687"
         offset="1" />
    </linearGradient>
    <linearGradient
       id="linearGradient5060-2">
      <stop
         id="stop5062-3"
         style="stop-color:#000000;stop-opacity:1"
         offset="0" />
      <stop
         id="stop5064-1"
         style="stop-color:#000000;stop-opacity:0"
         offset="1" />
    </linearGradient>
    <linearGradient
       id="linearGradient5048-8">
      <stop
         id="stop5050-4"
         style="stop-color:#000000;stop-opacity:0"
         offset="0" />
      <stop
         id="stop5056-5"
         style="stop-color:#000000;stop-opacity:1"
         offset="0.5" />
      <stop
         id="stop5052-1"
         style="stop-color:#000000;stop-opacity:0"
         offset="1" />
    </linearGradient>
    <radialGradient
       cx="605.71429"
       cy="486.64789"
       r="117.14286"
       fx="605.71429"
       fy="486.64789"
       id="radialGradient3172"
       xlink:href="#linearGradient5060-2"
       gradientUnits="userSpaceOnUse"
       gradientTransform="matrix(0.01563202,0,0,0.01001681,19.639811,23.818455)" />
    <radialGradient
       cx="605.71429"
       cy="486.64789"
       r="117.14286"
       fx="605.71429"
       fy="486.64789"
       id="radialGradient3175"
       xlink:href="#linearGradient5060-2"
       gradientUnits="userSpaceOnUse"
       gradientTransform="matrix(-0.01563202,0,0,0.01001681,11.72222,23.818455)" />
    <linearGradient
       x1="302.85715"
       y1="366.64789"
       x2="302.85715"
       y2="609.50507"
       id="linearGradient3178"
       xlink:href="#linearGradient5048-8"
       gradientUnits="userSpaceOnUse"
       gradientTransform="matrix(0.05541844,0,0,0.01001681,-4.3487941,23.818455)" />
    <linearGradient
       xlink:href="#linearGradient3462"
       id="linearGradient3133"
       gradientUnits="userSpaceOnUse"
       gradientTransform="matrix(0.73298219,0,0,0.62132461,-1.5901507,1.0668197)"
       x1="40.290417"
       y1="5.4143372"
       x2="40.290417"
       y2="42.437775" />
    <radialGradient
       gradientTransform="matrix(0,1.7743682,-2.1573022,-5.3688644e-8,33.909798,-8.3100844)"
       gradientUnits="userSpaceOnUse"
       xlink:href="#linearGradient2867-449-88-871-390-598-476-591-434-148-57-177-8"
       id="radialGradient3166-9"
       fy="8.4497671"
       fx="4.5993023"
       r="19.99999"
       cy="8.4497671"
       cx="4.5993023" />
    <linearGradient
       id="linearGradient2867-449-88-871-390-598-476-591-434-148-57-177-8">
      <stop
         offset="0"
         style="stop-color:#90dbec;stop-opacity:1"
         id="stop3750-4" />
      <stop
         offset="0.26238"
         style="stop-color:#55c1ec;stop-opacity:1"
         id="stop3752-8" />
      <stop
         offset="0.704952"
         style="stop-color:#3689e6;stop-opacity:1"
         id="stop3754-1" />
      <stop
         offset="1"
         style="stop-color:#2b63a0;stop-opacity:1"
         id="stop3756-0" />
    </linearGradient>
    <radialGradient
       r="7.228416"
       fy="73.104591"
       fx="12.587129"
       cy="73.615715"
       cx="6.702713"
       gradientTransform="matrix(1.615394,0,0,0.16827018,8.7457435,22.410248)"
       gradientUnits="userSpaceOnUse"
       id="radialGradient4643"
       xlink:href="#linearGradient5060-2" />
    <linearGradient
       id="linearGradient4487">
      <stop
         offset="0"
         style="stop-color:#feaf9d;stop-opacity:1"
         id="stop4489" />
      <stop
         offset="1"
         style="stop-color:#7f4a98;stop-opacity:1"
         id="stop4491" />
    </linearGradient>
    <linearGradient
       id="linearGradient4304">
      <stop
         id="stop4306"
         offset="0"
         style="stop-color:#ffe6ab;stop-opacity:1" />
      <stop
         style="stop-color:#ffea8a;stop-opacity:0.63921571"
         offset="0.82044184"
         id="stop4312" />
      <stop
         id="stop4308"
         offset="1"
         style="stop-color:#e6ff4d;stop-opacity:0" />
    </linearGradient>
    <linearGradient
       id="linearGradient4011-6-3">
      <stop
         id="stop4013-0-0"
         style="stop-color:#ffffff;stop-opacity:1"
         offset="0" />
      <stop
         id="stop4015-7-9"
         style="stop-color:#ffffff;stop-opacity:0.23529412"
         offset="0.507761" />
      <stop
         id="stop4017-6-8"
         style="stop-color:#ffffff;stop-opacity:0.15686275"
         offset="0.83456558" />
      <stop
         id="stop4019-8-2"
         style="stop-color:#ffffff;stop-opacity:0.39215687"
         offset="1" />
    </linearGradient>
    <linearGradient
       id="linearGradient3846">
      <stop
         id="stop3848"
         style="stop-color:#fff3cb;stop-opacity:1"
         offset="0" />
      <stop
         id="stop3850"
         style="stop-color:#fdde76;stop-opacity:1"
         offset="0.26238" />
      <stop
         id="stop3852"
         style="stop-color:#f9c440;stop-opacity:1"
         offset="0.66093999" />
      <stop
         id="stop3854"
         style="stop-color:#e48b20;stop-opacity:1"
         offset="1" />
    </linearGradient>
    <linearGradient
       inkscape:collect="always"
       xlink:href="#linearGradient4498"
       id="linearGradient4504"
       x1="116.375"
       y1="25"
       x2="116.375"
       y2="28"
       gradientUnits="userSpaceOnUse"
       gradientTransform="matrix(0.55773039,0,0,0.60816344,-45.807009,-16.915224)" />
    <linearGradient
       inkscape:collect="always"
       xlink:href="#linearGradient4518"
       id="linearGradient4524"
       x1="132"
       y1="28"
       x2="132"
       y2="24.5625"
       gradientUnits="userSpaceOnUse"
       gradientTransform="matrix(0.62275936,0,0,0.60344901,-54.962331,-16.743147)" />
    <linearGradient
       inkscape:collect="always"
       xlink:href="#linearGradient4574"
       id="linearGradient4572"
       gradientUnits="userSpaceOnUse"
       gradientTransform="matrix(0.86483117,0,0,0.96648671,-49.095319,-19.198898)"
       x1="87.968956"
       y1="18.534632"
       x2="87.968956"
       y2="19.541433" />
    <linearGradient
       xlink:href="#linearGradient4673"
       id="linearGradient3133-3"
       gradientUnits="userSpaceOnUse"
       gradientTransform="matrix(0.45991283,0,0,0.37722187,4.9635167,7.426729)"
       x1="40.290417"
       y1="6.240006"
       x2="40.290417"
       y2="41.76001" />
    <linearGradient
       x1="164.28023"
       y1="241.65149"
       x2="164.28023"
       y2="156.78416"
       id="linearGradient3077-9-7-4"
       xlink:href="#linearGradient4487"
       gradientUnits="userSpaceOnUse"
       gradientTransform="matrix(0.34956889,0,0,0.30271509,-42.505729,-44.31861)" />
    <linearGradient
       x1="27.083811"
       y1="2.7114925"
       x2="49.414146"
       y2="25.041828"
       id="linearGradient3275-0-1"
       xlink:href="#linearGradient3846"
       gradientUnits="userSpaceOnUse"
       gradientTransform="matrix(2.8521469,3.1495882,-2.8521469,3.1495882,-63.474262,-109.43828)" />
    <radialGradient
       xlink:href="#linearGradient4304"
       id="radialGradient4310-4"
       cx="10"
       cy="73"
       fx="10"
       fy="73"
       r="30.5"
       gradientUnits="userSpaceOnUse"
       gradientTransform="matrix(0.65711671,1.1797134e-8,-1.0442388e-8,0.71291001,-2.5456198,-13.475565)" />
    <linearGradient
       gradientTransform="matrix(0.21038021,0,0,0.17531614,-19.241778,-18.440111)"
       gradientUnits="userSpaceOnUse"
       xlink:href="#linearGradient4487"
       id="linearGradient3077-9-7-2"
       y2="156.78416"
       x2="164.28023"
       y1="241.65149"
       x1="164.28023" />
    <linearGradient
       x1="71.204407"
       y1="5.0080671"
       x2="71.204407"
       y2="44.340794"
       id="linearGradient4488-1"
       xlink:href="#linearGradient4011-6-3"
       gradientUnits="userSpaceOnUse"
       gradientTransform="matrix(0.51583928,0,0,0.55502836,-28.330402,15.522054)" />
    <linearGradient
       gradientTransform="matrix(0.96515801,1.0434426,-0.96515801,1.0434426,-15.339956,-21.042212)"
       gradientUnits="userSpaceOnUse"
       xlink:href="#linearGradient3846"
       id="linearGradient3275-0-9"
       y2="25.041828"
       x2="49.414146"
       y1="2.7114925"
       x1="27.083811" />
    <radialGradient
       gradientTransform="matrix(0.45704475,0,0,0.48544407,4.2910694,-4.7303292)"
       gradientUnits="userSpaceOnUse"
       r="30.5"
       fy="73"
       fx="10"
       cy="73"
       cx="10"
       id="radialGradient4310-49"
       xlink:href="#linearGradient4304" />
    <filter
       inkscape:collect="always"
       style="color-interpolation-filters:sRGB"
       id="filter4335"
       x="-0.070314832"
       width="1.1406296"
       y="-0.047082659"
       height="1.0941653">
      <feGaussianBlur
         inkscape:collect="always"
         stdDeviation="0.98437546"
         id="feGaussianBlur4337" />
    </filter>
    <filter
       inkscape:collect="always"
       style="color-interpolation-filters:sRGB"
       id="filter4439"
       x="-0.071663655"
       width="1.1433274"
       y="-0.14536451"
       height="1.290729">
      <feGaussianBlur
         inkscape:collect="always"
         stdDeviation="0.98765102"
         id="feGaussianBlur4441" />
    </filter>
    <radialGradient
       inkscape:collect="always"
       xlink:href="#linearGradient5060-2"
       id="radialGradient4251"
       gradientUnits="userSpaceOnUse"
       gradientTransform="matrix(0.01563202,0,0,0.01001681,19.572782,23.823357)"
       cx="605.71429"
       cy="486.64789"
       fx="605.71429"
       fy="486.64789"
       r="117.14286" />
  </defs>
  <path
     inkscape:connector-curvature="0"
     style="display:inline;overflow:visible;visibility:visible;opacity:0.3;fill:url(#radialGradient4251);fill-opacity:1;fill-rule:nonzero;stroke:none;stroke-width:1;marker:none"
     id="path4249"
     d="m 28.993582,27.49608 c 0,0 0,2.432508 0,2.432508 0.805011,0.0049 1.946123,-0.545012 1.946123,-1.216424 0,-0.671412 -0.898331,-1.216084 -1.946123,-1.216084 z" />
  <rect
     width="26.759192"
     height="2.4326537"
     x="2.30142"
     y="27.491074"
     id="rect2879-0"
     style="display:inline;overflow:visible;visibility:visible;opacity:0.3;fill:url(#linearGradient3178);fill-opacity:1;fill-rule:nonzero;stroke:none;stroke-width:1;marker:none" />
  <path
     d="m 2.3014199,27.491178 c 0,0 0,2.432508 0,2.432508 -0.8050104,0.0049 -1.946123,-0.545012 -1.946123,-1.216424 0,-0.671412 0.8983308,-1.216084 1.946123,-1.216084 z"
     id="path2881-4"
     style="display:inline;overflow:visible;visibility:visible;opacity:0.3;fill:url(#radialGradient3175);fill-opacity:1;fill-rule:nonzero;stroke:none;stroke-width:1;marker:none"
     inkscape:connector-curvature="0" />
  <rect
     width="28.705315"
     height="24.813068"
     rx="0.9730615"
     ry="0.9730615"
     x="1.3283584"
     y="3.894331"
     id="rect5505-21-3-8-5-2"
     style="color:#000000;display:inline;overflow:visible;visibility:visible;opacity:1;fill:url(#radialGradient3166-9);fill-opacity:1;fill-rule:nonzero;stroke:none;stroke-width:1;stroke-linecap:round;stroke-linejoin:round;stroke-miterlimit:4;stroke-dasharray:none;stroke-dashoffset:0;stroke-opacity:1;marker:none;enable-background:accumulate" />
  <rect
     style="color:#000000;display:inline;overflow:visible;visibility:visible;fill:url(#linearGradient3077-9-7-4);fill-opacity:1;fill-rule:nonzero;stroke:none;stroke-width:1.00000072;stroke-linecap:round;stroke-linejoin:miter;stroke-miterlimit:4;stroke-dasharray:none;stroke-dashoffset:0;stroke-opacity:1;marker:none;enable-background:accumulate"
     id="rect3180-1"
     y="3.0037663"
     x="1.1526897"
     height="25.869604"
     width="29.758104"
     ry="1.0198772"
     rx="1.0101907" />
  <path
     inkscape:connector-curvature="0"
     id="path2555-7-6-5-7"
     d="m 4.0255467,16.378916 c -0.9002191,0 -1.7851154,0.07203 -2.654107,0.199715 l 0,11.997863 20.5434093,0 C 18.609567,21.34549 11.838127,16.378916 4.0255467,16.378916 Z"
     style="color:#000000;clip-rule:nonzero;display:inline;overflow:visible;visibility:visible;opacity:0.6;isolation:auto;mix-blend-mode:normal;color-interpolation:sRGB;color-interpolation-filters:linearRGB;solid-color:#000000;solid-opacity:1;fill:url(#radialGradient4310-4);fill-opacity:1;fill-rule:evenodd;stroke:none;stroke-width:1.00000012px;stroke-linecap:butt;stroke-linejoin:miter;stroke-miterlimit:4;stroke-dasharray:none;stroke-dashoffset:0;stroke-opacity:1;marker:none;color-rendering:auto;image-rendering:auto;shape-rendering:auto;text-rendering:auto;enable-background:accumulate" />
  <path
     inkscape:connector-curvature="0"
     id="path2555-7-6-5"
     d="m 8.043716,9.924605 c -1.858614,0 -3.679056,0.17725 -5.455168,0.502495 l 0,15.80384 33.076216,0 C 29.68544,16.400302 19.540182,9.924605 8.043716,9.924605 Z"
     style="color:#000000;clip-rule:nonzero;display:inline;overflow:visible;visibility:visible;opacity:1;isolation:auto;mix-blend-mode:normal;color-interpolation:sRGB;color-interpolation-filters:linearRGB;solid-color:#000000;solid-opacity:1;fill:url(#linearGradient3275-0-1);fill-opacity:1;fill-rule:evenodd;stroke:none;stroke-width:1.00000012px;stroke-linecap:butt;stroke-linejoin:miter;stroke-miterlimit:4;stroke-dasharray:none;stroke-dashoffset:0;stroke-opacity:1;marker:none;filter:url(#filter4439);color-rendering:auto;image-rendering:auto;shape-rendering:auto;text-rendering:auto;enable-background:accumulate"
     transform="matrix(0.48653075,0,0,0.48653075,1.4245315,14.970585)" />
  <path
     style="opacity:0.5;fill:#000000;fill-opacity:1;filter:url(#filter4335)"
     d="m 33.744141,-24.5 c -0.0096,0.107584 0.0018,0.213239 0.04687,0.320313 0.152598,0.362861 0.611404,0.413565 1.197265,0.128906 0.522657,-0.253948 1.025262,-0.284995 1.117188,-0.06641 0.09192,0.218587 -0.08875,0.521451 -0.402344,0.673828 -0.747743,0.363319 -0.662572,0.507194 1.126953,1.867187 1.385391,1.05286 1.650492,1.085241 3.119141,0.375 1.269555,-0.613943 1.613502,-0.629911 1.638672,-0.07422 0.01846,0.406644 0.251906,0.607059 0.55664,0.476563 0.289521,-0.123994 0.210525,0.119753 -0.173828,0.542969 -0.452522,0.498281 -0.528619,0.948112 -0.216797,1.273437 0.407711,0.425362 0.03503,0.719664 -2.447265,1.925781 -3.183167,1.546651 -6.337788,4.026419 -8.238282,6.480469 -1.182607,1.527062 -3.401171,6.672202 -3.142578,7.28711 0.0724,0.172155 0.737714,0.01821 1.47461,-0.339844 1.101886,-0.535391 1.335684,-0.880972 1.318359,-1.955078 l -0.02148,-1.304688 0.55664,0.876953 0.558594,0.882813 0.458984,-1.615235 c 0.427888,-1.505162 0.471341,-1.544187 0.65625,-0.601562 0.122781,0.625905 0.435702,0.99281 0.822266,0.964844 0.466229,-0.03377 0.604278,0.191682 0.552734,0.896484 -0.06272,0.857625 0.07839,0.869765 1.546875,0.15625 1.300482,-0.631886 1.692574,-1.073793 2.011719,-2.289063 l 0.394531,-1.509765 0.529297,1.181641 c 0.501859,1.123125 0.537299,1.129264 0.759766,0.136718 0.203849,-0.909148 0.271107,-0.95717 0.517578,-0.371094 0.205212,0.487962 0.607389,0.511266 1.470703,0.0918 1.110362,-0.539511 1.056085,-0.356356 -0.804687,2.71875 -1.096013,1.811274 -2.644399,5.200821 -3.44336,7.535157 -1.390502,4.062597 -2.86955,10.913961 -2.294922,10.634765 0.793521,-0.385559 4.12853,-3.621395 4.013672,-3.894531 -0.07382,-0.175552 -0.1554,-0.915189 -0.183594,-1.642578 -0.05073,-1.309118 -0.04334,-1.3169 0.654297,-0.589844 0.985143,1.026687 1.78247,0.4768 1.748047,-1.207031 -0.03065,-1.49904 0.469006,-2.153177 0.886719,-1.160156 0.202941,0.482572 0.381809,0.424778 1.005859,-0.326172 0.567239,-0.682598 0.633969,-1.218096 0.25586,-2.117188 -0.46588,-1.107799 -0.444287,-1.169591 0.310547,-0.724609 0.854579,0.503785 1.617826,-0.125581 1.240234,-1.023438 -0.143006,-0.340052 0.14387,-0.611419 0.832031,-0.792968 0.576071,-0.151992 1.035572,-0.136339 1.021485,0.03516 -0.233419,2.838622 -0.273897,9.678272 -0.07031,12.222656 0.245277,3.06572 1.637461,8.613162 2.103516,8.386719 0.112829,-0.05481 0.712097,-1.905423 1.332031,-4.115235 0.7175,-2.557577 0.960227,-4.239617 0.664063,-4.628906 C 50.461783,10.771941 50.565109,10.495502 51.207033,10.1836 52.2186,9.692094 52.721466,7.47766 51.99219,6.716803 51.636729,6.345941 51.69692,6.190046 52.216799,6.15235 53.116937,6.08715 53.005855,5.822163 51.558596,4.609381 50.416397,3.652231 50.413186,3.642494 51.439455,3.970709 52.01125,4.153571 52.595995,4.247887 52.73633,4.179694 53.139215,3.983936 52.395977,2.518809 51.859377,2.451178 51.593498,2.417658 51.293069,2.201202 51.195314,1.968756 51.082557,1.700632 51.30149,1.624783 51.791018,1.761725 53.15621,2.143653 53.677128,1.061184 52.761721,-0.257806 52.317562,-0.897794 51.7168,-1.548616 51.427734,-1.701172 51.060318,-1.895079 51.214803,-2.059332 51.9375,-2.25 c 0.629477,-0.166078 0.953619,-0.455739 0.833984,-0.740234 -0.108067,-0.256986 0.01664,-0.438607 0.273438,-0.40625 0.256819,0.03237 0.590714,-0.764904 0.74414,-1.767578 0.153419,-1.00267 0.381948,-1.875896 0.50586,-1.939454 3.434569,3.844921 5.939976,21.831412 6.58789,32.78125 0.381917,-0.363811 0.621094,-0.875716 0.621094,-1.447265 l 0,-24.330078 c -1.768145,-4.084676 -3.638336,-7.60129 -5.326172,-9.47461 -2.112129,-2.344241 -2.208024,-2.687205 -0.601562,-2.158203 0.899596,0.296232 0.959406,0.241497 0.908203,-0.802734 -0.0525,-1.070762 -0.01925,-1.059853 0.796875,0.15039 0.666212,0.987922 1.425852,1.368953 3.509766,1.761719 0.269645,0.05083 0.461457,0.07561 0.71289,0.119141 l 0,-9.66211 c -0.04414,2.04e-4 -0.08666,-0.0062 -0.130859,-0.0059 l -1.855469,0.01758 1.390625,-0.6875 c 0.215492,-0.106345 0.412616,-0.228998 0.595703,-0.357422 l 0,-1.300781 c 0,-1.108 -0.892,-2 -2,-2 L 56.248047,-24.5 52.25,-22.537109 52.017578,-23.90625 c -0.02949,-0.173829 -0.0923,-0.392676 -0.138672,-0.59375 l -6.195312,0 c -0.0024,0.0026 0.005,0.02408 0.002,0.02539 -0.01248,0.0055 -0.072,-0.02179 -0.09766,-0.02539 l -11.84375,0 z m 10.457031,12.3125 c 0.415342,0.05938 0.479641,1.183786 0.0098,1.826172 -0.309228,0.422763 -0.666882,0.820595 -0.794922,0.882812 -0.332685,0.161652 0.248781,-2.484049 0.585937,-2.666015 0.07321,-0.0395 0.139878,-0.05145 0.199219,-0.04297 z"
     id="path4427"
     inkscape:connector-curvature="0"
     transform="matrix(0.48653075,0,0,0.48653075,0.11203152,15.814335)" />
  <rect
     width="29.705315"
     height="24.813068"
     rx="1.0069598"
     ry="0.9730615"
     x="1.1341705"
     y="4.0663457"
     id="rect5505-21-3-8-5-2-6"
     style="color:#000000;display:inline;overflow:visible;visibility:visible;opacity:0.5;fill:#afafaf;fill-opacity:1;fill-rule:nonzero;stroke:none;stroke-width:1;stroke-linecap:round;stroke-linejoin:round;stroke-miterlimit:4;stroke-dasharray:none;stroke-dashoffset:0;stroke-opacity:1;marker:none;enable-background:accumulate" />
  <rect
     style="color:#000000;clip-rule:nonzero;display:inline;overflow:visible;visibility:visible;opacity:0.1;isolation:auto;mix-blend-mode:normal;color-interpolation:sRGB;color-interpolation-filters:linearRGB;solid-color:#000000;solid-opacity:1;fill:#4a2e4c;fill-opacity:1;fill-rule:nonzero;stroke:none;stroke-width:1.00000072;stroke-linecap:round;stroke-linejoin:miter;stroke-miterlimit:4;stroke-dasharray:none;stroke-dashoffset:0;stroke-opacity:1;marker:none;color-rendering:auto;image-rendering:auto;shape-rendering:auto;text-rendering:auto;enable-background:accumulate"
     id="rect3180-1-0-5-5"
     y="8.0608435"
     x="6.0765152"
     height="16.944931"
     width="19.871912"
     ry="0.70603883"
     rx="0.66239709" />
  <rect
     style="color:#000000;clip-rule:nonzero;display:inline;overflow:visible;visibility:visible;opacity:0.2;isolation:auto;mix-blend-mode:normal;color-interpolation:sRGB;color-interpolation-filters:linearRGB;solid-color:#000000;solid-opacity:1;fill:#4a2e4c;fill-opacity:1;fill-rule:nonzero;stroke:none;stroke-width:1.00000072;stroke-linecap:round;stroke-linejoin:miter;stroke-miterlimit:4;stroke-dasharray:none;stroke-dashoffset:0;stroke-opacity:1;marker:none;color-rendering:auto;image-rendering:auto;shape-rendering:auto;text-rendering:auto;enable-background:accumulate"
     id="rect3180-1-0-5"
     y="10.489535"
     x="7.673882"
     height="12.595783"
     width="16.030998"
     ry="0.57253557"
     rx="0.57253557" />
  <rect
     style="color:#000000;display:inline;overflow:visible;visibility:visible;fill:url(#linearGradient3077-9-7-2);fill-opacity:1;fill-rule:nonzero;stroke:none;stroke-width:1.00000072;stroke-linecap:round;stroke-linejoin:miter;stroke-miterlimit:4;stroke-dasharray:none;stroke-dashoffset:0;stroke-opacity:1;marker:none;enable-background:accumulate"
     id="rect3180-1-0"
     y="8.9664326"
     x="7.0330663"
     height="14.982268"
     width="17.90925"
     ry="0.68101215"
     rx="0.63961601" />
  <path
     inkscape:connector-curvature="0"
     id="path2555-7-6-5-7-9"
     d="m 8.8615172,15.598579 c -0.6261299,0 -1.2416024,0.04903 -1.8460122,0.135989 l 0,8.169743 14.288569,0 C 19.005148,18.980483 14.295405,15.598579 8.8615172,15.598579 Z"
     style="color:#000000;clip-rule:nonzero;display:inline;overflow:visible;visibility:visible;opacity:0.6;isolation:auto;mix-blend-mode:normal;color-interpolation:sRGB;color-interpolation-filters:linearRGB;solid-color:#000000;solid-opacity:1;fill:url(#radialGradient4310-49);fill-opacity:1;fill-rule:evenodd;stroke:none;stroke-width:1.00000012px;stroke-linecap:butt;stroke-linejoin:miter;stroke-miterlimit:4;stroke-dasharray:none;stroke-dashoffset:0;stroke-opacity:1;marker:none;color-rendering:auto;image-rendering:auto;shape-rendering:auto;text-rendering:auto;enable-background:accumulate" />
  <path
     inkscape:connector-curvature="0"
     id="path2555-7-6-5-1"
     d="m 8.8615172,18.502107 c -0.6289488,0 -1.2449816,0.05873 -1.8460122,0.166473 l 0,5.235732 11.192891,0 C 16.185012,20.647473 12.751887,18.502107 8.8615172,18.502107 Z"
     style="color:#000000;clip-rule:nonzero;display:inline;overflow:visible;visibility:visible;opacity:1;isolation:auto;mix-blend-mode:normal;color-interpolation:sRGB;color-interpolation-filters:linearRGB;solid-color:#000000;solid-opacity:1;fill:url(#linearGradient3275-0-9);fill-opacity:1;fill-rule:evenodd;stroke:none;stroke-width:1.00000012px;stroke-linecap:butt;stroke-linejoin:miter;stroke-miterlimit:4;stroke-dasharray:none;stroke-dashoffset:0;stroke-opacity:1;marker:none;color-rendering:auto;image-rendering:auto;shape-rendering:auto;text-rendering:auto;enable-background:accumulate" />
  <path
     inkscape:connector-curvature="0"
     id="path4427-7"
     d="m 16.513929,8.9885312 c -0.0029,0.029114 5.36e-4,0.05785 0.01436,0.086816 0.04682,0.098185 0.187841,0.111498 0.367581,0.034473 0.160348,-0.068717 0.31425,-0.077022 0.342453,-0.017879 0.0282,0.059149 -0.02728,0.1413397 -0.123484,0.1825724 -0.229404,0.098306 -0.202975,0.1369402 0.346042,0.5049399 0.425031,0.2848941 0.506429,0.2936841 0.957003,0.1015024 0.389493,-0.1661265 0.49483,-0.1701548 0.502551,-0.019788 0.0056,0.110032 0.07738,0.1642585 0.170868,0.1289479 0.08882,-0.033548 0.06479,0.032304 -0.05312,0.1468226 -0.138832,0.13483 -0.162434,0.256683 -0.06677,0.344712 0.125084,0.115099 0.01056,0.194538 -0.750957,0.520901 -0.97658,0.418508 -1.944057,1.089528 -2.527118,1.753569 -0.362818,0.413209 -1.043518,1.805502 -0.964182,1.971889 0.02221,0.04659 0.226221,0.005 0.452296,-0.09191 0.338053,-0.144873 0.409512,-0.238557 0.404197,-0.5292 l -0.0065,-0.353013 0.170868,0.23747 0.171586,0.238747 0.140714,-0.437276 c 0.131274,-0.407281 0.144292,-0.417846 0.201021,-0.162781 0.03766,0.169364 0.134116,0.268655 0.252711,0.261088 0.143038,-0.0091 0.185246,0.05187 0.169432,0.242576 -0.01925,0.232066 0.02403,0.23584 0.474554,0.04276 0.398981,-0.170983 0.519508,-0.291007 0.617421,-0.619846 l 0.120611,-0.408549 0.162254,0.319817 c 0.153966,0.303906 0.165075,0.305598 0.233327,0.03702 0.06253,-0.246006 0.08305,-0.258809 0.158663,-0.100226 0.06296,0.132037 0.18672,0.138401 0.45158,0.02489 0.340652,-0.145985 0.323905,-0.09671 -0.24697,0.735389 -0.336251,0.490112 -0.811678,1.407267 -1.056796,2.038915 -0.426598,1.099299 -0.879865,2.953265 -0.703572,2.877719 0.243448,-0.104323 1.26649,-0.980023 1.231253,-1.053929 -0.02264,-0.0475 -0.04807,-0.247474 -0.05673,-0.444297 -0.01556,-0.354235 -0.01301,-0.356325 0.20102,-0.15959 0.302238,0.277811 0.546856,0.128787 0.536296,-0.32684 -0.0094,-0.405624 0.143943,-0.582135 0.272095,-0.313434 0.06227,0.13058 0.117256,0.114468 0.308711,-0.08873 0.174026,-0.184704 0.194256,-0.329322 0.07825,-0.572607 -0.142929,-0.299758 -0.136092,-0.316384 0.09548,-0.195977 0.26218,0.13632 0.496347,-0.0341 0.380503,-0.277046 -0.04387,-0.09202 0.04375,-0.165363 0.254866,-0.214487 0.176736,-0.04113 0.318059,-0.03682 0.313736,0.0097 -0.07161,0.768103 -0.08399,2.618849 -0.02153,3.307334 0.07525,0.829554 0.502437,2.330638 0.64542,2.269365 0.03462,-0.01482 0.218311,-0.515982 0.408503,-1.113936 0.220126,-0.692055 0.294753,-1.147121 0.203892,-1.252459 -0.105201,-0.12196 -0.07346,-0.196479 0.123485,-0.280877 0.310343,-0.132996 0.464246,-0.732506 0.240507,-0.938385 -0.109057,-0.100355 -0.09057,-0.142369 0.06893,-0.152569 0.276157,-0.01764 0.242273,-0.08932 -0.201739,-0.417487 -0.350421,-0.258995 -0.351469,-0.261807 -0.03661,-0.172996 0.175425,0.04948 0.35468,0.07527 0.397735,0.05682 0.123603,-0.05297 -0.104593,-0.449616 -0.269224,-0.467917 -0.08157,-0.009 -0.173185,-0.06732 -0.203176,-0.130224 -0.0346,-0.07256 0.03217,-0.09323 0.182354,-0.05618 0.418835,0.103347 0.578785,-0.189529 0.297942,-0.546436 -0.136264,-0.173171 -0.320536,-0.349395 -0.40922,-0.390672 -0.112719,-0.05247 -0.06521,-0.09715 0.156509,-0.14874 0.193121,-0.04494 0.292288,-0.122823 0.255584,-0.199805 -0.03315,-0.06954 0.0052,-0.119192 0.08399,-0.110435 0.07879,0.0087 0.181232,-0.206816 0.228302,-0.478131 0.04706,-0.271313 0.117057,-0.507533 0.155074,-0.524729 1.070526,1.056999 1.849882,6.073333 2.033178,9.020001 l 0.178763,0 0,-7.124715 c -0.542458,-1.105272 -1.116191,-2.056745 -1.63401,-2.563647 -0.64799,-0.634327 -0.677363,-0.72724 -0.184509,-0.584098 0.275992,0.08016 0.294266,0.06552 0.278558,-0.217041 -0.0161,-0.289737 -0.0063,-0.287263 0.244095,0.04022 0.204393,0.267321 0.437566,0.370575 1.076898,0.476852 0.08273,0.01375 0.141831,0.02077 0.218968,0.03256 l 0,-2.614714 c -0.01353,5.5e-5 -0.02661,-0.0015 -0.04021,-0.0013 l -0.569318,0.0045 0.42645,-0.1857618 c 0.06611,-0.028786 0.126901,-0.06227 0.183072,-0.09703 l 0,-0.8222046 -0.368294,-0.070858 -1.244178,0 -1.226945,0.531114 -0.07107,-0.3702478 c -0.0091,-0.04704 -0.02814,-0.1064584 -0.04236,-0.1608662 l -1.901084,0 c -7.25e-4,7.062e-4 0.0016,0.00667 7.26e-4,0.00702 -0.0038,0.00152 -0.02228,-0.00608 -0.03016,-0.00702 l -3.633451,0 z m 3.208436,3.3315898 c 0.127424,0.01606 0.147039,0.320267 0.0029,0.49409 -0.09487,0.114395 -0.204814,0.22191 -0.244097,0.238747 -0.102068,0.04374 0.07676,-0.672107 0.180201,-0.721345 0.02246,-0.01073 0.04282,-0.01378 0.06103,-0.0115 z"
     style="opacity:0.5;fill:#000000;fill-opacity:1" />
  <path
     inkscape:connector-curvature="0"
     id="path8655-6-9-8"
     d="m 17.098854,23.678874 c -1.728001,-2.631061 -4.789918,-4.417213 -8.4262822,-4.350858 -0.5515714,0.01012 -1.0914303,0.05288 -1.6174621,0.149562"
     style="color:#000000;display:inline;overflow:visible;visibility:visible;opacity:0.8;fill:none;stroke:url(#linearGradient4488-1);stroke-width:0.75324994;stroke-linecap:butt;stroke-linejoin:round;stroke-miterlimit:4;stroke-dasharray:none;stroke-dashoffset:0;stroke-opacity:1;marker:none;enable-background:accumulate" />
  <path
     inkscape:connector-curvature="0"
     id="path2555-7-4-7-3"
     d="m 18.040384,23.685182 c -1.947854,-3.129711 -5.437102,-5.191334 -9.1822485,-5.191334 -0.6054709,0 -1.198507,0.05642 -1.777103,0.159975"
     style="color:#000000;clip-rule:nonzero;display:inline;overflow:visible;visibility:visible;opacity:0.3;isolation:auto;mix-blend-mode:normal;color-interpolation:sRGB;color-interpolation-filters:linearRGB;solid-color:#000000;solid-opacity:1;fill:none;fill-opacity:1;fill-rule:evenodd;stroke:#d25000;stroke-width:0.75324994;stroke-linecap:butt;stroke-linejoin:miter;stroke-miterlimit:4;stroke-dasharray:none;stroke-dashoffset:0;stroke-opacity:1;marker:none;color-rendering:auto;image-rendering:auto;shape-rendering:auto;text-rendering:auto;enable-background:accumulate" />
  <rect
     width="17.016773"
     height="13.95721"
     rx="0.31512544"
     ry="0.33231452"
     x="7.4930367"
     y="9.5014496"
     id="rect6741-5-0-2-3-4"
     style="opacity:0.5;fill:none;stroke:url(#linearGradient3133-3);stroke-width:1.06218255;stroke-linecap:round;stroke-linejoin:round;stroke-miterlimit:4;stroke-dasharray:none;stroke-dashoffset:0;stroke-opacity:1" />
  <rect
     width="27.120342"
     height="22.989012"
     rx="0.47579548"
     ry="0.46916345"
     x="2.4412525"
     y="4.4841027"
     id="rect6741-5-0-2-3"
     style="opacity:0.5;fill:none;stroke:url(#linearGradient3133);stroke-width:0.97109556;stroke-linecap:round;stroke-linejoin:round;stroke-miterlimit:4;stroke-dasharray:none;stroke-dashoffset:0;stroke-opacity:1" />
  <rect
     width="28.885639"
     height="25.013269"
     rx="0.9791742"
     ry="0.98091251"
     x="1.5899677"
     y="3.4916692"
     id="rect5505-21-3-8-9-1-1"
     style="color:#000000;clip-rule:nonzero;display:inline;overflow:visible;visibility:visible;opacity:0.5;isolation:auto;mix-blend-mode:normal;color-interpolation:sRGB;color-interpolation-filters:linearRGB;solid-color:#000000;solid-opacity:1;fill:#000000;fill-opacity:0;fill-rule:nonzero;stroke:#73396d;stroke-width:1.00717473;stroke-linecap:round;stroke-linejoin:round;stroke-miterlimit:4;stroke-dasharray:none;stroke-dashoffset:0;stroke-opacity:1;marker:none;color-rendering:auto;image-rendering:auto;shape-rendering:auto;text-rendering:auto;enable-background:accumulate" />
  <g
     id="g4242"
     transform="matrix(0.61199781,0,0,0.61199781,6.9994306,8.4048138)">
    <path
       inkscape:connector-curvature="0"
       style="display:inline;overflow:visible;visibility:visible;opacity:0.3;fill:url(#radialGradient3172);fill-opacity:1;fill-rule:nonzero;stroke:none;stroke-width:1;marker:none"
       id="path2883-6"
       d="m 29.060611,27.491178 c 0,0 0,2.432508 0,2.432508 0.80501,0.0049 1.946123,-0.545012 1.946123,-1.216424 0,-0.671412 -0.898331,-1.216084 -1.946123,-1.216084 z" />
    <rect
       transform="matrix(0.70710678,0.70710678,-0.70710678,0.70710678,0,0)"
       rx="0.24326538"
       ry="0.24326538"
       y="-2.0152194"
       x="18.610847"
       height="2.4326537"
       width="22.866945"
       id="rect3681"
       style="color:#000000;clip-rule:nonzero;display:inline;overflow:visible;visibility:visible;opacity:1;isolation:auto;mix-blend-mode:normal;color-interpolation:sRGB;color-interpolation-filters:linearRGB;solid-color:#000000;solid-opacity:1;fill:url(#linearGradient4504);fill-opacity:1;fill-rule:nonzero;stroke:none;stroke-width:1;stroke-linecap:butt;stroke-linejoin:miter;stroke-miterlimit:4;stroke-dasharray:none;stroke-dashoffset:0;stroke-opacity:1;marker:none;color-rendering:auto;image-rendering:auto;shape-rendering:auto;text-rendering:auto;enable-background:accumulate" />
    <rect
       transform="matrix(0.70710678,0.70710678,-0.70710678,0.70710678,0,0)"
       ry="0"
       rx="0"
       y="-2.0152194"
       x="22.259832"
       height="2.4326537"
       width="15.568984"
       id="rect4516"
       style="color:#000000;clip-rule:nonzero;display:inline;overflow:visible;visibility:visible;opacity:1;isolation:auto;mix-blend-mode:normal;color-interpolation:sRGB;color-interpolation-filters:linearRGB;solid-color:#000000;solid-opacity:1;fill:url(#linearGradient4524);fill-opacity:1;fill-rule:nonzero;stroke:none;stroke-width:1;stroke-linecap:butt;stroke-linejoin:miter;stroke-miterlimit:4;stroke-dasharray:none;stroke-dashoffset:0;stroke-opacity:1;marker:none;color-rendering:auto;image-rendering:auto;shape-rendering:auto;text-rendering:auto;enable-background:accumulate" />
    <rect
       transform="matrix(0.70710678,0.70710678,-0.70710678,0.70710678,0,0)"
       rx="0.24326538"
       ry="0.24326538"
       y="-2.0152194"
       x="18.610851"
       height="2.4326537"
       width="22.866945"
       id="rect3681-7"
       style="color:#000000;clip-rule:nonzero;display:inline;overflow:visible;visibility:visible;opacity:0.5;isolation:auto;mix-blend-mode:normal;color-interpolation:sRGB;color-interpolation-filters:linearRGB;solid-color:#000000;solid-opacity:1;fill:none;fill-opacity:1;fill-rule:nonzero;stroke:#001537;stroke-width:0.48653075;stroke-linecap:butt;stroke-linejoin:miter;stroke-miterlimit:4;stroke-dasharray:none;stroke-dashoffset:0;stroke-opacity:1;marker:none;color-rendering:auto;image-rendering:auto;shape-rendering:auto;text-rendering:auto;enable-background:accumulate" />
    <rect
       transform="matrix(0.70710678,0.70710678,-0.70710678,0.70710678,0,0)"
       y="-1.5286896"
       x="19.097382"
       height="1.4595922"
       width="21.893885"
       id="rect3681-7-5"
       style="color:#000000;clip-rule:nonzero;display:inline;overflow:visible;visibility:visible;opacity:0.5;isolation:auto;mix-blend-mode:normal;color-interpolation:sRGB;color-interpolation-filters:linearRGB;solid-color:#000000;solid-opacity:1;fill:none;fill-opacity:1;fill-rule:nonzero;stroke:url(#linearGradient4572);stroke-width:0.48653075;stroke-linecap:round;stroke-linejoin:round;stroke-miterlimit:4;stroke-dasharray:none;stroke-dashoffset:0;stroke-opacity:1;marker:none;color-rendering:auto;image-rendering:auto;shape-rendering:auto;text-rendering:auto;enable-background:accumulate" />
  </g>
</svg>
