<?xml version="1.0" encoding="UTF-8" standalone="no"?>
<svg
   xmlns:dc="http://purl.org/dc/elements/1.1/"
   xmlns:cc="http://creativecommons.org/ns#"
   xmlns:rdf="http://www.w3.org/1999/02/22-rdf-syntax-ns#"
   xmlns:svg="http://www.w3.org/2000/svg"
   xmlns="http://www.w3.org/2000/svg"
   xmlns:xlink="http://www.w3.org/1999/xlink"
   xmlns:sodipodi="http://sodipodi.sourceforge.net/DTD/sodipodi-0.dtd"
   xmlns:inkscape="http://www.inkscape.org/namespaces/inkscape"
   version="1.0"
   width="64"
   height="64"
   id="svg2453"
   viewBox="0 0 64 64"
   inkscape:version="0.91 r13725"
   sodipodi:docname="com.github.philip-scott.wallpaperize.svg">
  <sodipodi:namedview
     pagecolor="#ffffff"
     bordercolor="#666666"
     borderopacity="1"
     objecttolerance="10"
     gridtolerance="10"
     guidetolerance="10"
     inkscape:pageopacity="0"
     inkscape:pageshadow="2"
     inkscape:window-width="1920"
     inkscape:window-height="1017"
     id="namedview37"
     showgrid="false"
     showguides="false"
     showborder="false"
     inkscape:zoom="16"
     inkscape:cx="29.46826"
     inkscape:cy="22.962306"
     inkscape:window-x="0"
     inkscape:window-y="30"
     inkscape:window-maximized="1"
     inkscape:current-layer="svg2453">
    <inkscape:grid
       type="xygrid"
       id="grid3679" />
  </sodipodi:namedview>
  <metadata
     id="metadata35">
    <rdf:RDF>
      <cc:Work
         rdf:about="">
        <dc:format>image/svg+xml</dc:format>
        <dc:type
           rdf:resource="http://purl.org/dc/dcmitype/StillImage" />
        <dc:title />
      </cc:Work>
    </rdf:RDF>
  </metadata>
  <defs
     id="defs2455">
    <linearGradient
       id="linearGradient4673">
      <stop
         offset="0"
         style="stop-color:#ffffff;stop-opacity:1"
         id="stop4675" />
      <stop
         offset="0"
         style="stop-color:#ffffff;stop-opacity:0.23529412"
         id="stop4677" />
      <stop
         offset="0.99999994"
         style="stop-color:#ffffff;stop-opacity:0.15686275"
         id="stop4679" />
      <stop
         offset="1"
         style="stop-color:#ffffff;stop-opacity:0.39215687"
         id="stop4681" />
    </linearGradient>
    <linearGradient
       id="linearGradient4574">
      <stop
         offset="0"
         style="stop-color:#ffffff;stop-opacity:1"
         id="stop4576" />
      <stop
         offset="0"
         style="stop-color:#ffffff;stop-opacity:0.23529412"
         id="stop4578" />
      <stop
         offset="1"
         style="stop-color:#ffffff;stop-opacity:0.15686275"
         id="stop4580" />
      <stop
         offset="1"
         style="stop-color:#ffffff;stop-opacity:0.39215687"
         id="stop4582" />
    </linearGradient>
    <linearGradient
       inkscape:collect="always"
       id="linearGradient4518">
      <stop
         style="stop-color:#06243c;stop-opacity:1;"
         offset="0"
         id="stop4520" />
      <stop
         id="stop4526"
         offset="0.34545457"
         style="stop-color:#082f3c;stop-opacity:1" />
      <stop
         style="stop-color:#074151;stop-opacity:1"
         offset="0.39090911"
         id="stop4528" />
      <stop
         style="stop-color:#3a5c6b;stop-opacity:1"
         offset="1"
         id="stop4522" />
    </linearGradient>
    <linearGradient
       inkscape:collect="always"
       id="linearGradient4498">
      <stop
         style="stop-color:#f9f7f0;stop-opacity:1"
         offset="0"
         id="stop4500" />
      <stop
         style="stop-color:#e8e8dd;stop-opacity:1"
         offset="0.34710741"
         id="stop4508" />
      <stop
         id="stop4514"
         offset="0.55208331"
         style="stop-color:#829c9a;stop-opacity:1;" />
      <stop
         id="stop4510"
         offset="0.57851237"
         style="stop-color:#0e2d39;stop-opacity:1" />
      <stop
         style="stop-color:#0e3848;stop-opacity:1"
         offset="0.74710745"
         id="stop4512" />
      <stop
         style="stop-color:#76b1bd;stop-opacity:1"
         offset="1"
         id="stop4502" />
    </linearGradient>
    <linearGradient
       id="linearGradient3462">
      <stop
         id="stop3464"
         style="stop-color:#ffffff;stop-opacity:1"
         offset="0" />
      <stop
         id="stop3466"
         style="stop-color:#ffffff;stop-opacity:0.23529412"
         offset="0.03457849" />
      <stop
         id="stop3468"
         style="stop-color:#ffffff;stop-opacity:0.15686275"
         offset="0.96375686" />
      <stop
         id="stop3470"
         style="stop-color:#ffffff;stop-opacity:0.39215687"
         offset="1" />
    </linearGradient>
    <linearGradient
       id="linearGradient5060-2">
      <stop
         id="stop5062-3"
         style="stop-color:#000000;stop-opacity:1"
         offset="0" />
      <stop
         id="stop5064-1"
         style="stop-color:#000000;stop-opacity:0"
         offset="1" />
    </linearGradient>
    <linearGradient
       id="linearGradient5048-8">
      <stop
         id="stop5050-4"
         style="stop-color:#000000;stop-opacity:0"
         offset="0" />
      <stop
         id="stop5056-5"
         style="stop-color:#000000;stop-opacity:1"
         offset="0.5" />
      <stop
         id="stop5052-1"
         style="stop-color:#000000;stop-opacity:0"
         offset="1" />
    </linearGradient>
    <radialGradient
       cx="605.71429"
       cy="486.64789"
       r="117.14286"
       fx="605.71429"
       fy="486.64789"
       id="radialGradient3172"
       xlink:href="#linearGradient5060-2"
       gradientUnits="userSpaceOnUse"
       gradientTransform="matrix(0.03212956,0,0,0.02058823,40.136784,48.451416)" />
    <radialGradient
       cx="605.71429"
       cy="486.64789"
       r="117.14286"
       fx="605.71429"
       fy="486.64789"
       id="radialGradient3175"
       xlink:href="#linearGradient5060-2"
       gradientUnits="userSpaceOnUse"
       gradientTransform="matrix(-0.03212956,0,0,0.02058823,23.863217,48.451416)" />
    <linearGradient
       x1="302.85715"
       y1="366.64789"
       x2="302.85715"
       y2="609.50507"
       id="linearGradient3178"
       xlink:href="#linearGradient5048-8"
       gradientUnits="userSpaceOnUse"
       gradientTransform="matrix(0.11390532,0,0,0.02058823,-9.1686406,48.451416)" />
    <linearGradient
       xlink:href="#linearGradient3462"
       id="linearGradient3133"
       gradientUnits="userSpaceOnUse"
       gradientTransform="matrix(1.5405405,0,0,1.3243243,-4.9729751,1.2874721)"
       x1="40.290417"
       y1="5.4143372"
       x2="40.290417"
       y2="42.437775" />
    <radialGradient
       gradientTransform="matrix(0,3.6469805,-4.4340511,-1.1034995e-7,69.466865,-17.584573)"
       gradientUnits="userSpaceOnUse"
       xlink:href="#linearGradient2867-449-88-871-390-598-476-591-434-148-57-177-8"
       id="radialGradient3166-9"
       fy="8.4497671"
       fx="4.5993023"
       r="19.99999"
       cy="8.4497671"
       cx="4.5993023" />
    <linearGradient
       id="linearGradient2867-449-88-871-390-598-476-591-434-148-57-177-8">
      <stop
         offset="0"
         style="stop-color:#90dbec;stop-opacity:1"
         id="stop3750-4" />
      <stop
         offset="0.26238"
         style="stop-color:#55c1ec;stop-opacity:1"
         id="stop3752-8" />
      <stop
         offset="0.704952"
         style="stop-color:#3689e6;stop-opacity:1"
         id="stop3754-1" />
      <stop
         offset="1"
         style="stop-color:#2b63a0;stop-opacity:1"
         id="stop3756-0" />
    </linearGradient>
    <radialGradient
       r="7.228416"
       fy="73.104591"
       fx="12.587129"
       cy="73.615715"
       cx="6.702713"
       gradientTransform="matrix(3.32023,0,0,0.34585723,17.74546,34.838466)"
       gradientUnits="userSpaceOnUse"
       id="radialGradient4643"
       xlink:href="#linearGradient5060-2" />
    <linearGradient
       id="linearGradient4487">
      <stop
         offset="0"
         style="stop-color:#feaf9d;stop-opacity:1"
         id="stop4489" />
      <stop
         offset="1"
         style="stop-color:#7f4a98;stop-opacity:1"
         id="stop4491" />
    </linearGradient>
    <linearGradient
       id="linearGradient4304">
      <stop
         id="stop4306"
         offset="0"
         style="stop-color:#ffe6ab;stop-opacity:1" />
      <stop
         style="stop-color:#ffea8a;stop-opacity:0.63921571"
         offset="0.82044184"
         id="stop4312" />
      <stop
         id="stop4308"
         offset="1"
         style="stop-color:#e6ff4d;stop-opacity:0" />
    </linearGradient>
    <linearGradient
       id="linearGradient4011-6-3">
      <stop
         id="stop4013-0-0"
         style="stop-color:#ffffff;stop-opacity:1"
         offset="0" />
      <stop
         id="stop4015-7-9"
         style="stop-color:#ffffff;stop-opacity:0.23529412"
         offset="0.507761" />
      <stop
         id="stop4017-6-8"
         style="stop-color:#ffffff;stop-opacity:0.15686275"
         offset="0.83456558" />
      <stop
         id="stop4019-8-2"
         style="stop-color:#ffffff;stop-opacity:0.39215687"
         offset="1" />
    </linearGradient>
    <linearGradient
       id="linearGradient3846">
      <stop
         id="stop3848"
         style="stop-color:#fff3cb;stop-opacity:1"
         offset="0" />
      <stop
         id="stop3850"
         style="stop-color:#fdde76;stop-opacity:1"
         offset="0.26238" />
      <stop
         id="stop3852"
         style="stop-color:#f9c440;stop-opacity:1"
         offset="0.66093999" />
      <stop
         id="stop3854"
         style="stop-color:#e48b20;stop-opacity:1"
         offset="1" />
    </linearGradient>
    <linearGradient
       inkscape:collect="always"
       xlink:href="#linearGradient4498"
       id="linearGradient4504"
       x1="116.375"
       y1="25"
       x2="116.375"
       y2="28"
       gradientUnits="userSpaceOnUse"
       gradientTransform="matrix(1.1463415,0,0,1.25,-94.669695,-34.960782)" />
    <linearGradient
       inkscape:collect="always"
       xlink:href="#linearGradient4518"
       id="linearGradient4524"
       x1="132"
       y1="28"
       x2="132"
       y2="24.5625"
       gradientUnits="userSpaceOnUse"
       gradientTransform="matrix(1.28,0,0,1.2403101,-113.48725,-34.607099)" />
    <linearGradient
       inkscape:collect="always"
       xlink:href="#linearGradient4574"
       id="linearGradient4572"
       gradientUnits="userSpaceOnUse"
       gradientTransform="matrix(1.7775468,0,0,1.9864864,-101.42838,-39.654574)"
       x1="87.968956"
       y1="18.534632"
       x2="87.968956"
       y2="19.541433" />
    <linearGradient
       xlink:href="#linearGradient4673"
       id="linearGradient3133-3"
       gradientUnits="userSpaceOnUse"
       gradientTransform="matrix(0.85872531,0,0,0.6678974,11.390594,16.793749)"
       x1="40.290417"
       y1="6.240006"
       x2="40.290417"
       y2="41.76001" />
    <linearGradient
       x1="164.28023"
       y1="241.65149"
       x2="164.28023"
       y2="156.78416"
       id="linearGradient3077-9-7-4"
       xlink:href="#linearGradient4487"
       gradientUnits="userSpaceOnUse"
       gradientTransform="matrix(0.69208491,0,0,0.59363046,-83.847442,-85.30002)" />
    <linearGradient
       x1="27.083811"
       y1="2.7114925"
       x2="49.414146"
       y2="25.041828"
       id="linearGradient3275-0-1"
       xlink:href="#linearGradient3846"
       gradientUnits="userSpaceOnUse"
       gradientTransform="matrix(2.8521469,3.1495882,-2.8521469,3.1495882,-60.866806,-79.45995)" />
    <radialGradient
       xlink:href="#linearGradient4304"
       id="radialGradient4310-4"
       cx="10"
       cy="73"
       fx="10"
       fy="73"
       r="30.5"
       gradientUnits="userSpaceOnUse"
       gradientTransform="matrix(1.350617,2.4247459e-8,-2.1462955e-8,1.4652928,-5.462453,-28.201539)" />
    <linearGradient
       gradientTransform="matrix(0.3870595,0,0,0.30294179,-32.798319,-27.479812)"
       gradientUnits="userSpaceOnUse"
       xlink:href="#linearGradient4487"
       id="linearGradient3077-9-7-2"
       y2="156.78416"
       x2="164.28023"
       y1="241.65149"
       x1="164.28023" />
    <linearGradient
       x1="71.204407"
       y1="5.0080671"
       x2="71.204407"
       y2="44.340794"
       id="linearGradient4488-1"
       xlink:href="#linearGradient4011-6-3"
       gradientUnits="userSpaceOnUse"
       gradientTransform="matrix(0.8375911,0,0,0.83426435,-41.850328,33.167582)" />
    <linearGradient
       gradientTransform="matrix(1.5671699,1.5684008,-1.5671699,1.5684008,-20.757166,-21.792246)"
       gradientUnits="userSpaceOnUse"
       xlink:href="#linearGradient3846"
       id="linearGradient3275-0-9"
       y2="25.041828"
       x2="49.414146"
       y1="2.7114925"
       x1="27.083811" />
    <radialGradient
       gradientTransform="matrix(0.74212384,1.2074509e-8,-1.1793255e-8,0.72967203,11.1186,2.7261793)"
       gradientUnits="userSpaceOnUse"
       r="30.5"
       fy="73"
       fx="10"
       cy="73"
       cx="10"
       id="radialGradient4310-49"
       xlink:href="#linearGradient4304" />
    <filter
       inkscape:collect="always"
       style="color-interpolation-filters:sRGB"
       id="filter4335"
       x="-0.070314833"
       width="1.1406297"
       y="-0.047082658"
       height="1.0941653">
      <feGaussianBlur
         inkscape:collect="always"
         stdDeviation="0.98437546"
         id="feGaussianBlur4337" />
    </filter>
    <filter
       inkscape:collect="always"
       style="color-interpolation-filters:sRGB"
       id="filter4439"
       x="-0.071663652"
       width="1.1433273"
       y="-0.14536451"
       height="1.290729">
      <feGaussianBlur
         inkscape:collect="always"
         stdDeviation="0.98765102"
         id="feGaussianBlur4441" />
    </filter>
  </defs>
  <path
     d="m 59.5,56.000216 c 0,0 0,4.9997 0,4.9997 1.654592,0.01 4,-1.1202 4,-2.5002 0,-1.38 -1.846401,-2.4995 -4,-2.4995 z"
     id="path2883-6"
     style="display:inline;overflow:visible;visibility:visible;opacity:0.3;fill:url(#radialGradient3172);fill-opacity:1;fill-rule:nonzero;stroke:none;stroke-width:1;marker:none" />
  <rect
     width="55"
     height="5"
     x="4.5"
     y="56"
     id="rect2879-0"
     style="display:inline;overflow:visible;visibility:visible;opacity:0.3;fill:url(#linearGradient3178);fill-opacity:1;fill-rule:nonzero;stroke:none;stroke-width:1;marker:none" />
  <path
     d="m 4.5,56.000216 c 0,0 0,4.9997 0,4.9997 -1.654593,0.01 -4,-1.1202 -4,-2.5002 0,-1.38 1.8464008,-2.4995 4,-2.4995 z"
     id="path2881-4"
     style="display:inline;overflow:visible;visibility:visible;opacity:0.3;fill:url(#radialGradient3175);fill-opacity:1;fill-rule:nonzero;stroke:none;stroke-width:1;marker:none" />
  <rect
     width="59"
     height="51"
     rx="2"
     ry="2"
     x="2.5"
     y="7.4999981"
     id="rect5505-21-3-8-5-2"
     style="color:#000000;display:inline;overflow:visible;visibility:visible;opacity:1;fill:url(#radialGradient3166-9);fill-opacity:1;fill-rule:nonzero;stroke:none;stroke-width:1;marker:none;enable-background:accumulate;font-variant-east_asian:normal;stroke-linecap:round;stroke-linejoin:round;stroke-miterlimit:4;stroke-dasharray:none;stroke-dashoffset:0;stroke-opacity:1" />
  <rect
     style="color:#000000;display:inline;overflow:visible;visibility:visible;fill:url(#linearGradient3077-9-7-4);fill-opacity:1;fill-rule:nonzero;stroke:none;stroke-width:1.00000072;stroke-linecap:round;stroke-linejoin:miter;stroke-miterlimit:4;stroke-dasharray:none;stroke-dashoffset:0;stroke-opacity:1;marker:none;enable-background:accumulate"
     id="rect3180-1"
     y="7.5001211"
     x="2.5885479"
     height="50.73082"
     width="58.915813"
     ry="2"
     rx="2" />
  <path
     inkscape:connector-curvature="0"
     id="path2555-7-6-5-7"
     d="m 8.043716,33.160422 c -1.850282,0 -3.66907,0.148041 -5.455168,0.410488 l 0,24.66003 42.224278,0 C 38.019252,43.368562 24.101448,33.160422 8.043716,33.160422 Z"
     style="color:#000000;clip-rule:nonzero;display:inline;overflow:visible;visibility:visible;opacity:0.6;isolation:auto;mix-blend-mode:normal;color-interpolation:sRGB;color-interpolation-filters:linearRGB;solid-color:#000000;solid-opacity:1;fill:url(#radialGradient4310-4);fill-opacity:1;fill-rule:evenodd;stroke:none;stroke-width:1.00000012px;stroke-linecap:butt;stroke-linejoin:miter;stroke-miterlimit:4;stroke-dasharray:none;stroke-dashoffset:0;stroke-opacity:1;marker:none;color-rendering:auto;image-rendering:auto;shape-rendering:auto;text-rendering:auto;enable-background:accumulate" />
  <path
     inkscape:connector-curvature="0"
     id="path2555-7-6-5"
     d="m 10.651172,39.902935 c -1.8586137,0 -3.6790557,0.17725 -5.4551677,0.502495 l 0,15.80384 33.0762157,0 C 32.292896,46.378632 22.147638,39.902935 10.651172,39.902935 Z"
     style="color:#000000;clip-rule:nonzero;display:inline;overflow:visible;visibility:visible;opacity:1;isolation:auto;mix-blend-mode:normal;color-interpolation:sRGB;color-interpolation-filters:linearRGB;solid-color:#000000;solid-opacity:1;fill:url(#linearGradient3275-0-1);fill-opacity:1;fill-rule:evenodd;stroke:none;stroke-width:1.00000012px;stroke-linecap:butt;stroke-linejoin:miter;stroke-miterlimit:4;stroke-dasharray:none;stroke-dashoffset:0;stroke-opacity:1;marker:none;filter:url(#filter4439);color-rendering:auto;image-rendering:auto;shape-rendering:auto;text-rendering:auto;enable-background:accumulate" />
  <path
     style="opacity:0.5;fill:#000000;fill-opacity:1;filter:url(#filter4335)"
     d="M 33.744141 7.5 C 33.734541 7.6075841 33.745916 7.7132386 33.791016 7.8203125 C 33.943614 8.1831736 34.40242 8.2338784 34.988281 7.9492188 C 35.510938 7.6952708 36.013543 7.6642237 36.105469 7.8828125 C 36.197389 8.1014001 36.016722 8.4042634 35.703125 8.5566406 C 34.955382 8.9199598 35.040553 9.0638348 36.830078 10.423828 C 38.215469 11.476688 38.48057 11.509069 39.949219 10.798828 C 41.218774 10.184885 41.562721 10.168917 41.587891 10.724609 C 41.606351 11.131253 41.839797 11.331668 42.144531 11.201172 C 42.434052 11.077178 42.355056 11.320925 41.970703 11.744141 C 41.518181 12.242422 41.442084 12.692253 41.753906 13.017578 C 42.161617 13.44294 41.788938 13.737242 39.306641 14.943359 C 36.123474 16.49001 32.968853 18.969778 31.068359 21.423828 C 29.885752 22.95089 27.667188 28.09603 27.925781 28.710938 C 27.998181 28.883093 28.663495 28.72915 29.400391 28.371094 C 30.502277 27.835703 30.736075 27.490122 30.71875 26.416016 L 30.697266 25.111328 L 31.253906 25.988281 L 31.8125 26.871094 L 32.271484 25.255859 C 32.699372 23.750697 32.742825 23.711672 32.927734 24.654297 C 33.050515 25.280202 33.363436 25.647107 33.75 25.619141 C 34.216229 25.585371 34.354278 25.810823 34.302734 26.515625 C 34.240014 27.37325 34.381121 27.38539 35.849609 26.671875 C 37.150091 26.039989 37.542183 25.598082 37.861328 24.382812 L 38.255859 22.873047 L 38.785156 24.054688 C 39.287015 25.177813 39.322455 25.183952 39.544922 24.191406 C 39.748771 23.282258 39.816029 23.234236 40.0625 23.820312 C 40.267712 24.308274 40.669889 24.331578 41.533203 23.912109 C 42.643565 23.372598 42.589288 23.555753 40.728516 26.630859 C 39.632503 28.442133 38.084117 31.83168 37.285156 34.166016 C 35.894654 38.228613 34.415606 45.079977 34.990234 44.800781 C 35.783755 44.415222 39.118764 41.179386 39.003906 40.90625 C 38.930086 40.730698 38.848506 39.991061 38.820312 39.263672 C 38.769582 37.954554 38.77697 37.946772 39.474609 38.673828 C 40.459752 39.700515 41.257079 39.150628 41.222656 37.466797 C 41.192006 35.967757 41.691662 35.31362 42.109375 36.306641 C 42.312316 36.789213 42.491184 36.731419 43.115234 35.980469 C 43.682473 35.297871 43.749203 34.762373 43.371094 33.863281 C 42.905214 32.755482 42.926807 32.69369 43.681641 33.138672 C 44.53622 33.642457 45.299467 33.013091 44.921875 32.115234 C 44.778869 31.775182 45.065745 31.503815 45.753906 31.322266 C 46.329977 31.170274 46.789478 31.185927 46.775391 31.357422 C 46.541972 34.196044 46.501494 41.035694 46.705078 43.580078 C 46.950355 46.645798 48.342539 52.19324 48.808594 51.966797 C 48.921423 51.911987 49.520691 50.061374 50.140625 47.851562 C 50.858125 45.293985 51.100852 43.611945 50.804688 43.222656 C 50.461781 42.771935 50.565107 42.495496 51.207031 42.183594 C 52.218598 41.692088 52.721464 39.477654 51.992188 38.716797 C 51.636727 38.345935 51.696918 38.19004 52.216797 38.152344 C 53.116935 38.087144 53.005853 37.822157 51.558594 36.609375 C 50.416395 35.652225 50.413184 35.642488 51.439453 35.970703 C 52.011248 36.153565 52.595993 36.247881 52.736328 36.179688 C 53.139213 35.98393 52.395975 34.518803 51.859375 34.451172 C 51.593496 34.417652 51.293067 34.201196 51.195312 33.96875 C 51.082555 33.700626 51.301488 33.624777 51.791016 33.761719 C 53.156208 34.143647 53.677126 33.061178 52.761719 31.742188 C 52.317562 31.102206 51.7168 30.451384 51.427734 30.298828 C 51.060318 30.104921 51.214803 29.940668 51.9375 29.75 C 52.566977 29.583922 52.891119 29.294261 52.771484 29.009766 C 52.663417 28.75278 52.78812 28.571159 53.044922 28.603516 C 53.301741 28.635886 53.635636 27.838612 53.789062 26.835938 C 53.942481 25.833268 54.17101 24.960042 54.294922 24.896484 C 57.729491 28.741405 60.234898 46.727896 60.882812 57.677734 C 61.264729 57.313923 61.503906 56.802018 61.503906 56.230469 L 61.503906 31.900391 C 59.735761 27.815715 57.86557 24.299101 56.177734 22.425781 C 54.065605 20.08154 53.96971 19.738576 55.576172 20.267578 C 56.475768 20.56381 56.535578 20.509075 56.484375 19.464844 C 56.431875 18.394082 56.465126 18.404991 57.28125 19.615234 C 57.947462 20.603156 58.707102 20.984187 60.791016 21.376953 C 61.060661 21.427783 61.252473 21.452568 61.503906 21.496094 L 61.503906 11.833984 C 61.459766 11.834188 61.417243 11.827825 61.373047 11.828125 L 59.517578 11.845703 L 60.908203 11.158203 C 61.123695 11.051858 61.320819 10.929205 61.503906 10.800781 L 61.503906 9.5 C 61.503906 8.392 60.611906 7.5 59.503906 7.5 L 56.248047 7.5 L 52.25 9.4628906 L 52.017578 8.09375 C 51.988088 7.919921 51.92528 7.7010744 51.878906 7.5 L 45.683594 7.5 C 45.681194 7.50265 45.688547 7.5240846 45.685547 7.5253906 C 45.673067 7.5309206 45.613551 7.503596 45.587891 7.5 L 33.744141 7.5 z M 44.201172 19.8125 C 44.616514 19.87188 44.680813 20.996286 44.210938 21.638672 C 43.90171 22.061435 43.544056 22.459267 43.416016 22.521484 C 43.083331 22.683136 43.664797 20.037435 44.001953 19.855469 C 44.075163 19.815969 44.141831 19.80402 44.201172 19.8125 z "
     id="path4427" />
  <rect
     width="59"
     height="51"
     rx="2"
     ry="2"
     x="2.3712282"
     y="7.7549782"
     id="rect5505-21-3-8-5-2-6"
     style="color:#000000;display:inline;overflow:visible;visibility:visible;opacity:0.5;fill:#afafaf;fill-opacity:1;fill-rule:nonzero;stroke:none;stroke-width:1;stroke-linecap:round;stroke-linejoin:round;stroke-miterlimit:4;stroke-dasharray:none;stroke-dashoffset:0;stroke-opacity:1;marker:none;enable-background:accumulate" />
  <rect
     style="color:#000000;clip-rule:nonzero;display:inline;overflow:visible;visibility:visible;opacity:0.1;isolation:auto;mix-blend-mode:normal;color-interpolation:sRGB;color-interpolation-filters:linearRGB;solid-color:#000000;solid-opacity:1;fill:#4a2e4c;fill-opacity:1;fill-rule:nonzero;stroke:none;stroke-width:1.00000072;stroke-linecap:round;stroke-linejoin:miter;stroke-miterlimit:4;stroke-dasharray:none;stroke-dashoffset:0;stroke-opacity:1;marker:none;color-rendering:auto;image-rendering:auto;shape-rendering:auto;text-rendering:auto;enable-background:accumulate"
     id="rect3180-1-0-5-5"
     y="19.878801"
     x="14.348425"
     height="28.242519"
     width="35.30315"
     ry="1.1767716"
     rx="1.1767716" />
  <rect
     style="color:#000000;clip-rule:nonzero;display:inline;overflow:visible;visibility:visible;opacity:0.2;isolation:auto;mix-blend-mode:normal;color-interpolation:sRGB;color-interpolation-filters:linearRGB;solid-color:#000000;solid-opacity:1;fill:#4a2e4c;fill-opacity:1;fill-rule:nonzero;stroke:none;stroke-width:1.00000072;stroke-linecap:round;stroke-linejoin:miter;stroke-miterlimit:4;stroke-dasharray:none;stroke-dashoffset:0;stroke-opacity:1;marker:none;color-rendering:auto;image-rendering:auto;shape-rendering:auto;text-rendering:auto;enable-background:accumulate"
     id="rect3180-1-0-5"
     y="21.055573"
     x="15.54239"
     height="25.888977"
     width="32.949608"
     ry="1.1767716"
     rx="1.1767716" />
  <rect
     style="color:#000000;display:inline;overflow:visible;visibility:visible;fill:url(#linearGradient3077-9-7-2);fill-opacity:1;fill-rule:nonzero;stroke:none;stroke-width:1.00000072;stroke-linecap:round;stroke-linejoin:miter;stroke-miterlimit:4;stroke-dasharray:none;stroke-dashoffset:0;stroke-opacity:1;marker:none;enable-background:accumulate"
     id="rect3180-1-0"
     y="19.877995"
     x="15.54239"
     height="25.888977"
     width="32.949608"
     ry="1.1767716"
     rx="1.1767716" />
  <path
     inkscape:connector-curvature="0"
     id="path2555-7-6-5-7-9"
     d="m 18.539839,33.282604 c -1.016675,0 -2.016045,0.07371 -2.997452,0.20441 l 0,12.279958 23.200985,0 C 35.010504,38.365952 27.363085,33.282604 18.539839,33.282604 Z"
     style="color:#000000;clip-rule:nonzero;display:inline;overflow:visible;visibility:visible;opacity:0.6;isolation:auto;mix-blend-mode:normal;color-interpolation:sRGB;color-interpolation-filters:linearRGB;solid-color:#000000;solid-opacity:1;fill:url(#radialGradient4310-49);fill-opacity:1;fill-rule:evenodd;stroke:none;stroke-width:1.00000012px;stroke-linecap:butt;stroke-linejoin:miter;stroke-miterlimit:4;stroke-dasharray:none;stroke-dashoffset:0;stroke-opacity:1;marker:none;color-rendering:auto;image-rendering:auto;shape-rendering:auto;text-rendering:auto;enable-background:accumulate" />
  <path
     inkscape:connector-curvature="0"
     id="path2555-7-6-5-1"
     d="m 18.539839,37.646904 c -1.021252,0 -2.021532,0.08827 -2.997452,0.250228 l 0,7.86984 18.174396,0 c -3.28546,-4.895363 -8.859978,-8.120068 -15.176944,-8.120068 z"
     style="color:#000000;clip-rule:nonzero;display:inline;overflow:visible;visibility:visible;opacity:1;isolation:auto;mix-blend-mode:normal;color-interpolation:sRGB;color-interpolation-filters:linearRGB;solid-color:#000000;solid-opacity:1;fill:url(#linearGradient3275-0-9);fill-opacity:1;fill-rule:evenodd;stroke:none;stroke-width:1.00000012px;stroke-linecap:butt;stroke-linejoin:miter;stroke-miterlimit:4;stroke-dasharray:none;stroke-dashoffset:0;stroke-opacity:1;marker:none;color-rendering:auto;image-rendering:auto;shape-rendering:auto;text-rendering:auto;enable-background:accumulate" />
  <path
     inkscape:connector-curvature="0"
     id="path4427-7"
     d="m 33.238424,19.877996 c -0.0052,0.05358 9.59e-4,0.106462 0.02571,0.15977 0.08386,0.180693 0.336426,0.205191 0.658339,0.06344 0.287184,-0.12646 0.562823,-0.141746 0.613334,-0.0329 0.05051,0.108863 -0.04885,0.260109 -0.22116,0.335989 -0.410863,0.18092 -0.363527,0.252012 0.619763,0.929247 0.761232,0.524295 0.907015,0.54047 1.713994,0.186791 0.697583,-0.305726 0.886242,-0.31314 0.900071,-0.03642 0.01012,0.202498 0.138583,0.302288 0.306024,0.237305 0.159085,-0.06174 0.116042,0.05945 -0.09515,0.2702 -0.248649,0.248129 -0.290918,0.472377 -0.119582,0.634378 0.224025,0.211819 0.01899,0.35801 -1.344964,0.95862 -1.749057,0.770187 -3.481812,2.005072 -4.526075,3.227116 -0.649809,0.760433 -1.868942,3.322686 -1.726853,3.62889 0.03977,0.08573 0.405163,0.0092 0.810065,-0.169167 0.605454,-0.266609 0.733435,-0.439018 0.723916,-0.973892 l -0.01165,-0.649654 0.306024,0.43702 0.307311,0.439367 0.252019,-0.804724 c 0.235112,-0.749523 0.258428,-0.768967 0.36003,-0.299568 0.06746,0.311682 0.240202,0.49441 0.452606,0.480483 0.25618,-0.01682 0.331776,0.09546 0.303453,0.446416 -0.03447,0.427073 0.04304,0.434021 0.849926,0.0787 0.714576,-0.314662 0.930442,-0.535543 1.105803,-1.140711 l 0.216016,-0.751858 0.290595,0.588564 c 0.275755,0.559283 0.295652,0.562395 0.41789,0.06813 0.112005,-0.452729 0.148737,-0.47629 0.284166,-0.184441 0.112758,0.24299 0.334415,0.254701 0.80878,0.04582 0.61011,-0.268658 0.580116,-0.177966 -0.442322,1.353347 -0.602227,0.901959 -1.453718,2.589812 -1.892723,3.75224 -0.764039,2.023053 -1.575842,5.434931 -1.2601,5.295901 0.436015,-0.191998 2.268286,-1.803547 2.205176,-1.939558 -0.04056,-0.08741 -0.08609,-0.455429 -0.101591,-0.817646 -0.02788,-0.651901 -0.0233,-0.655748 0.360029,-0.293695 0.541307,0.511259 0.97942,0.23701 0.960506,-0.601487 -0.01684,-0.746476 0.257803,-1.071311 0.487323,-0.576815 0.111523,0.240304 0.210006,0.210655 0.552902,-0.163296 0.311682,-0.339911 0.347913,-0.606055 0.140153,-1.053775 -0.255985,-0.551649 -0.243743,-0.582244 0.171015,-0.360657 0.469566,0.250869 0.888959,-0.06276 0.681482,-0.509854 -0.07857,-0.169336 0.07835,-0.304319 0.456465,-0.394723 0.316534,-0.07569 0.569644,-0.06777 0.561902,0.01762 -0.128256,1.413549 -0.150435,4.8195 -0.03856,6.086527 0.134772,1.526638 0.899865,4.289099 1.155948,4.176339 0.062,-0.02728 0.390995,-0.949569 0.73163,-2.049991 0.394246,-1.273597 0.527903,-2.111061 0.365171,-2.304914 -0.188419,-0.224447 -0.131557,-0.361584 0.221161,-0.516902 0.555826,-0.244755 0.831465,-1.348041 0.430749,-1.726924 -0.195315,-0.184679 -0.162219,-0.262002 0.123438,-0.280774 0.494599,-0.03248 0.433911,-0.164375 -0.361314,-0.768304 -0.627605,-0.476631 -0.629482,-0.481808 -0.06557,-0.318366 0.314184,0.09106 0.635232,0.138515 0.712343,0.104568 0.221374,-0.09748 -0.187336,-0.827433 -0.482181,-0.861112 -0.146093,-0.01669 -0.310174,-0.123904 -0.363889,-0.239654 -0.06197,-0.133518 0.05761,-0.171576 0.326599,-0.103392 0.750133,0.190187 1.036603,-0.348792 0.533614,-1.005611 -0.24405,-0.318692 -0.574082,-0.642995 -0.732915,-0.718961 -0.201885,-0.09655 -0.116783,-0.178779 0.280308,-0.273726 0.345879,-0.0827 0.523488,-0.226034 0.457752,-0.367704 -0.05939,-0.127972 0.0093,-0.219351 0.15044,-0.203238 0.141114,0.01612 0.324586,-0.380607 0.408889,-0.87991 0.08429,-0.499301 0.20965,-0.934017 0.277737,-0.965666 1.917315,1.945209 3.313143,11.176829 3.641427,16.599619 l 0.320164,0 0,-13.111701 c -0.971542,-2.034046 -1.999099,-3.785052 -2.926515,-4.71791 -1.160552,-1.167361 -1.213159,-1.338349 -0.330456,-1.074921 0.494302,0.147514 0.527032,0.120571 0.498897,-0.399426 -0.02884,-0.533206 -0.0113,-0.528652 0.437175,0.07402 0.36607,0.491955 0.783682,0.681973 1.928728,0.877559 0.148168,0.02531 0.254018,0.03824 0.392171,0.05992 l 0,-4.811892 c -0.02424,1.02e-4 -0.04766,-0.0026 -0.07202,-0.0024 l -1.019649,0.0082 0.763772,-0.341859 c 0.118406,-0.05297 0.227281,-0.114617 0.327884,-0.17857 l 0,-1.513113 -0.659616,-0.130402 -2.228326,0 -2.197462,0.977416 -0.127295,-0.681372 c -0.0162,-0.08657 -0.05039,-0.195915 -0.07587,-0.296044 l -3.404844,0 c -0.0013,0.0013 0.0029,0.01227 0.0013,0.01292 -0.0068,0.0028 -0.0399,-0.01118 -0.05401,-0.01292 l -6.507519,0 z m 5.746316,6.131168 c 0.228217,0.02956 0.263347,0.589388 0.0051,0.909278 -0.169912,0.210522 -0.366822,0.408384 -0.437177,0.439367 -0.182802,0.08049 0.137483,-1.236885 0.322741,-1.327498 0.04022,-0.01968 0.07669,-0.02537 0.109298,-0.02116 z"
     style="opacity:0.5;fill:#000000;fill-opacity:1" />
  <path
     inkscape:connector-curvature="0"
     id="path8655-6-9-8"
     d="m 31.915169,45.428114 c -2.805833,-3.954753 -7.777602,-6.639523 -13.682129,-6.539783 -0.895611,0.01513 -1.772204,0.07948 -2.626345,0.224805"
     style="color:#000000;display:inline;overflow:visible;visibility:visible;opacity:0.8;fill:none;stroke:url(#linearGradient4488-1);stroke-width:1.17677164;stroke-linecap:butt;stroke-linejoin:round;stroke-miterlimit:4;stroke-dasharray:none;stroke-dashoffset:0;stroke-opacity:1;marker:none;enable-background:accumulate" />
  <path
     inkscape:connector-curvature="0"
     id="path2555-7-4-7-3"
     d="M 33.443973,45.437596 C 30.281156,40.73332 24.61551,37.63449 18.534348,37.63449 c -0.98313,0 -1.946069,0.08481 -2.885561,0.24046"
     style="color:#000000;clip-rule:nonzero;display:inline;overflow:visible;visibility:visible;opacity:0.3;isolation:auto;mix-blend-mode:normal;color-interpolation:sRGB;color-interpolation-filters:linearRGB;solid-color:#000000;solid-opacity:1;fill:none;fill-opacity:1;fill-rule:evenodd;stroke:#d25000;stroke-width:1.17677164;stroke-linecap:butt;stroke-linejoin:miter;stroke-miterlimit:4;stroke-dasharray:none;stroke-dashoffset:0;stroke-opacity:1;marker:none;color-rendering:auto;image-rendering:auto;shape-rendering:auto;text-rendering:auto;enable-background:accumulate" />
  <rect
     width="31.772835"
     height="24.712204"
     rx="0.58838582"
     ry="0.58838582"
     x="16.113583"
     y="20.467184"
     id="rect6741-5-0-2-3-4"
     style="opacity:0.5;fill:none;stroke:url(#linearGradient3133-3);stroke-width:1.17677152;stroke-linecap:round;stroke-linejoin:round;stroke-miterlimit:4;stroke-dasharray:none;stroke-dashoffset:0;stroke-opacity:1" />
  <rect
     width="57"
     height="49"
     rx="1"
     ry="1"
     x="3.5"
     y="8.5712519"
     id="rect6741-5-0-2-3"
     style="opacity:0.5;fill:none;stroke:url(#linearGradient3133);stroke-width:1;stroke-linecap:round;stroke-linejoin:round;stroke-miterlimit:4;stroke-dasharray:none;stroke-dashoffset:0;stroke-opacity:1" />
  <rect
     width="59"
     height="51"
     rx="2"
     ry="2"
     x="2.5"
     y="7.5"
     id="rect5505-21-3-8-9-1-1"
     style="color:#000000;clip-rule:nonzero;display:inline;overflow:visible;visibility:visible;opacity:0.5;isolation:auto;mix-blend-mode:normal;color-interpolation:sRGB;color-interpolation-filters:linearRGB;solid-color:#000000;solid-opacity:1;fill:#000000;fill-opacity:0;fill-rule:nonzero;stroke:#73396d;stroke-width:1;stroke-linecap:round;stroke-linejoin:round;stroke-miterlimit:4;stroke-dasharray:none;stroke-dashoffset:0;stroke-opacity:1;marker:none;color-rendering:auto;image-rendering:auto;shape-rendering:auto;text-rendering:auto;enable-background:accumulate" />
  <path
     d="m 64,60.298992 c 0,1.380713 -10.74518,2.5 -24.00001,2.5 -13.25483,0 -23.99999,-1.119287 -23.99999,-2.5 0,-1.380711 10.74516,-2.5 23.99999,-2.5 13.25483,0 24.00001,1.119289 24.00001,2.5 z"
     id="path10689"
     style="display:inline;overflow:visible;visibility:visible;opacity:0.2;fill:url(#radialGradient4643);fill-opacity:1;fill-rule:nonzero;stroke:none;stroke-width:0.80000001;marker:none"
     inkscape:connector-curvature="0" />
  <rect
     style="color:#000000;clip-rule:nonzero;display:inline;overflow:visible;visibility:visible;opacity:1;isolation:auto;mix-blend-mode:normal;color-interpolation:sRGB;color-interpolation-filters:linearRGB;solid-color:#000000;solid-opacity:1;fill:url(#linearGradient4504);fill-opacity:1;fill-rule:nonzero;stroke:none;stroke-width:1;stroke-linecap:butt;stroke-linejoin:miter;stroke-miterlimit:4;stroke-dasharray:none;stroke-dashoffset:0;stroke-opacity:1;marker:none;color-rendering:auto;image-rendering:auto;shape-rendering:auto;text-rendering:auto;enable-background:accumulate"
     id="rect3681"
     width="47"
     height="5"
     x="37.732742"
     y="-4.3357816"
     ry="0.5"
     rx="0.5"
     transform="matrix(0.70710678,0.70710678,-0.70710678,0.70710678,0,0)" />
  <rect
     style="color:#000000;clip-rule:nonzero;display:inline;overflow:visible;visibility:visible;opacity:1;isolation:auto;mix-blend-mode:normal;color-interpolation:sRGB;color-interpolation-filters:linearRGB;solid-color:#000000;solid-opacity:1;fill:url(#linearGradient4524);fill-opacity:1;fill-rule:nonzero;stroke:none;stroke-width:1;stroke-linecap:butt;stroke-linejoin:miter;stroke-miterlimit:4;stroke-dasharray:none;stroke-dashoffset:0;stroke-opacity:1;marker:none;color-rendering:auto;image-rendering:auto;shape-rendering:auto;text-rendering:auto;enable-background:accumulate"
     id="rect4516"
     width="32"
     height="5"
     x="45.23275"
     y="-4.3357816"
     rx="0"
     ry="0"
     transform="matrix(0.70710678,0.70710678,-0.70710678,0.70710678,0,0)" />
  <rect
     style="color:#000000;clip-rule:nonzero;display:inline;overflow:visible;visibility:visible;opacity:0.5;isolation:auto;mix-blend-mode:normal;color-interpolation:sRGB;color-interpolation-filters:linearRGB;solid-color:#000000;solid-opacity:1;fill:none;fill-opacity:1;fill-rule:nonzero;stroke:#001537;stroke-width:1;stroke-linecap:butt;stroke-linejoin:miter;stroke-miterlimit:4;stroke-dasharray:none;stroke-dashoffset:0;stroke-opacity:1;marker:none;color-rendering:auto;image-rendering:auto;shape-rendering:auto;text-rendering:auto;enable-background:accumulate"
     id="rect3681-7"
     width="47"
     height="5"
     x="37.73275"
     y="-4.3357816"
     ry="0.5"
     rx="0.5"
     transform="matrix(0.70710678,0.70710678,-0.70710678,0.70710678,0,0)" />
  <rect
     style="color:#000000;clip-rule:nonzero;display:inline;overflow:visible;visibility:visible;opacity:0.5;isolation:auto;mix-blend-mode:normal;color-interpolation:sRGB;color-interpolation-filters:linearRGB;solid-color:#000000;solid-opacity:1;fill:none;fill-opacity:1;fill-rule:nonzero;stroke:url(#linearGradient4572);stroke-width:1;stroke-linecap:round;stroke-linejoin:round;stroke-miterlimit:4;stroke-dasharray:none;stroke-dashoffset:0;stroke-opacity:1;marker:none;color-rendering:auto;image-rendering:auto;shape-rendering:auto;text-rendering:auto;enable-background:accumulate"
     id="rect3681-7-5"
     width="45"
     height="3"
     x="38.73275"
     y="-3.3357818"
     transform="matrix(0.70710678,0.70710678,-0.70710678,0.70710678,0,0)" />
</svg>
